SplineFontDB: 3.2
FontName: WorkingMan2
FullName: Working Man 2
FamilyName: Working Man 2
Weight: Book
Copyright: This is a free font from the Rush Font Project, moved down by 2 pixels.
Version: Macromedia Fontographer 4.1.3 7/8/05
ItalicAngle: 0
UnderlinePosition: -143
UnderlineWidth: 20
Ascent: 800
Descent: 200
InvalidEm: 0
sfntRevision: 0x00010000
LayerCount: 2
Layer: 0 1 "Back" 1
Layer: 1 1 "Fore" 0
XUID: [1021 525 -220320079 9989225]
StyleMap: 0x0040
FSType: 0
OS2Version: 3
OS2_WeightWidthSlopeOnly: 0
OS2_UseTypoMetrics: 0
CreationTime: 1120832483
ModificationTime: 1737500307
PfmFamily: 81
TTFWeight: 400
TTFWidth: 5
LineGap: 0
VLineGap: 0
Panose: 0 0 4 0 0 0 0 0 0 0
OS2TypoAscent: 700
OS2TypoAOffset: 0
OS2TypoDescent: -100
OS2TypoDOffset: 0
OS2TypoLinegap: 0
OS2WinAscent: 800
OS2WinAOffset: 0
OS2WinDescent: 310
OS2WinDOffset: 0
HheadAscent: 700
HheadAOffset: 0
HheadDescent: -100
HheadDOffset: 0
OS2SubXSize: 700
OS2SubYSize: 650
OS2SubXOff: 0
OS2SubYOff: 143
OS2SupXSize: 700
OS2SupYSize: 650
OS2SupXOff: 0
OS2SupYOff: 453
OS2StrikeYSize: 50
OS2StrikeYPos: 259
OS2CapHeight: 700
OS2XHeight: 700
OS2Vendor: 'Alts'
OS2CodePages: 00000011.00000000
OS2UnicodeRanges: 80000027.10000040.00000000.00000000
Lookup: 258 0 0 "'kern' Horizontal Kerning in Latin lookup 0" { "'kern' Horizontal Kerning in Latin lookup 0 subtable"  } ['kern' ('latn' <'dflt' > ) ]
MarkAttachClasses: 1
DEI: 91125
TtTable: prep
PUSHW_1
 110
CALL
PUSHW_1
 100
CALL
PUSHW_1
 90
CALL
PUSHW_1
 80
CALL
PUSHW_1
 70
CALL
PUSHW_1
 60
CALL
PUSHW_1
 50
CALL
PUSHW_1
 40
CALL
PUSHW_1
 30
CALL
PUSHW_1
 20
CALL
PUSHW_1
 10
CALL
NPUSHB
 31
 18
 18
 17
 17
 16
 16
 15
 15
 14
 14
 13
 13
 12
 12
 11
 11
 10
 10
 9
 9
 4
 4
 3
 3
 2
 2
 1
 1
 0
 0
 1
SCANTYPE
PUSHW_1
 511
SCANCTRL
RCVT
ROUND[Grey]
WCVTP
RCVT
ROUND[Grey]
WCVTP
RCVT
ROUND[Grey]
WCVTP
RCVT
ROUND[Grey]
WCVTP
RCVT
ROUND[Grey]
WCVTP
RCVT
ROUND[Grey]
WCVTP
RCVT
ROUND[Grey]
WCVTP
RCVT
ROUND[Grey]
WCVTP
RCVT
ROUND[Grey]
WCVTP
RCVT
ROUND[Grey]
WCVTP
RCVT

StartChar: .notdef
Encoding: 65536 -1 0
Width: 360
VWidth: 900
GlyphClass: 1
Flags: W
LayerCount: 2
Fore
SplineSet
45 -100 m 1,0,-1
 45 872 l 1,1,-1
 315 872 l 1,2,-1
 315 -100 l 1,3,-1
 45 -100 l 1,0,-1
90 -55 m 1,4,-1
 270 -55 l 1,5,-1
 270 827 l 1,6,-1
 90 827 l 1,7,-1
 90 -55 l 1,4,-1
EndSplineSet
EndChar

StartChar: exclam
Encoding: 33 33 2
Width: 229
VWidth: 900
GlyphClass: 1
Flags: W
LayerCount: 2
Fore
SplineSet
207 -33 m 0,0,1
 207 -69 207 -69 182 -93.5 c 128,-1,2
 157 -118 157 -118 122 -118 c 0,3,4
 88 -118 88 -118 63 -93.5 c 128,-1,5
 38 -69 38 -69 38 -33 c 0,6,7
 38 1 38 1 63 26 c 128,-1,8
 88 51 88 51 122 51 c 0,9,10
 157 51 157 51 182 26 c 128,-1,11
 207 1 207 1 207 -33 c 0,0,1
14 574 m 1,12,13
 14 579 14 579 41 582 c 0,14,15
 77 585 77 585 104 593 c 0,16,17
 124 598 124 598 155 615 c 0,18,19
 189 633 189 633 204 638 c 0,20,21
 215 638 215 638 215 627 c 0,22,23
 215 624 215 624 208 619.5 c 128,-1,24
 201 615 201 615 193 585 c 0,25,26
 184 557 184 557 184 543 c 2,27,-1
 156 154 l 2,28,29
 155 138 155 138 164 123 c 128,-1,30
 173 108 173 108 173 110 c 1,31,32
 173 107 173 107 165 107 c 0,33,34
 127 107 127 107 81 75 c 1,35,-1
 77 75 l 2,36,37
 73 76 73 76 73 81 c 2,38,-1
 46 508 l 2,39,40
 45 526 45 526 29.5 550.5 c 128,-1,41
 14 575 14 575 14 574 c 1,12,13
EndSplineSet
EndChar

StartChar: quotedbl
Encoding: 34 34 3
Width: 391
VWidth: 900
GlyphClass: 1
Flags: W
LayerCount: 2
Fore
SplineSet
197 557 m 0,0,1
 197 524 197 524 175 450 c 0,2,3
 157 395 157 395 140 341 c 0,4,5
 128 296 128 296 121 296 c 0,6,7
 113 296 113 296 102 341 c 0,8,9
 85 395 85 395 67 450 c 0,10,11
 45 524 45 524 45 557 c 0,12,13
 45 588 45 588 67.5 610.5 c 128,-1,14
 90 633 90 633 121 633 c 256,15,16
 152 633 152 633 174.5 610.5 c 128,-1,17
 197 588 197 588 197 557 c 0,0,1
391 557 m 0,18,19
 391 524 391 524 369 450 c 0,20,21
 352 395 352 395 335 341 c 0,22,23
 322 296 322 296 315 296 c 256,24,25
 308 296 308 296 296 341 c 0,26,27
 279 395 279 395 262 450 c 0,28,29
 239 524 239 524 239 557 c 0,30,31
 239 588 239 588 261.5 610.5 c 128,-1,32
 284 633 284 633 315 633 c 256,33,34
 346 633 346 633 368.5 610.5 c 128,-1,35
 391 588 391 588 391 557 c 0,18,19
EndSplineSet
EndChar

StartChar: numbersign
Encoding: 35 35 4
Width: 524
VWidth: 900
GlyphClass: 1
Flags: W
LayerCount: 2
Fore
SplineSet
311 304 m 1,0,-1
 242 304 l 1,1,-1
 206 132 l 1,2,-1
 275 132 l 1,3,-1
 311 304 l 1,0,-1
481 310 m 2,4,5
 480 304 480 304 473 304 c 2,6,-1
 389 304 l 1,7,-1
 353 132 l 1,8,-1
 437 132 l 2,9,10
 444 132 444 132 442 126 c 2,11,-1
 428 59 l 2,12,13
 427 53 427 53 420 53 c 2,14,-1
 337 53 l 1,15,-1
 333 39 l 1,16,17
 326 -1 326 -1 319 -41 c 0,18,19
 306 -105 306 -105 300 -105 c 2,20,-1
 237 -105 l 2,21,22
 230 -105 230 -105 229 -98 c 0,23,24
 229 -95 229 -95 258 53 c 1,25,-1
 189 53 l 1,26,-1
 186 39 l 2,27,28
 179 -1 179 -1 172 -41 c 0,29,30
 159 -105 159 -105 153 -105 c 2,31,-1
 90 -105 l 2,32,33
 84 -105 84 -105 82 -98 c 0,34,35
 81 -95 81 -95 112 53 c 1,36,-1
 34 53 l 2,37,38
 27 53 27 53 29 59 c 2,39,-1
 42 126 l 2,40,41
 44 132 44 132 51 132 c 2,42,-1
 128 132 l 1,43,-1
 165 304 l 1,44,-1
 86 304 l 2,45,46
 80 304 80 304 81 310 c 2,47,-1
 95 377 l 2,48,49
 96 384 96 384 103 384 c 2,50,-1
 182 384 l 1,51,-1
 182 388 l 1,52,53
 189 427 189 427 196 467 c 0,54,55
 209 530 209 530 215 530 c 2,56,-1
 279 530 l 2,57,58
 284 530 284 530 286 524 c 0,59,60
 287 521 287 521 258 384 c 1,61,-1
 328 384 l 1,62,-1
 329 388 l 2,63,64
 337 427 337 427 344 467 c 0,65,66
 355 530 355 530 362 530 c 2,67,-1
 426 530 l 2,68,69
 431 530 431 530 434 524 c 0,70,71
 434 521 434 521 405 384 c 1,72,-1
 490 384 l 2,73,74
 496 384 496 384 495 377 c 2,75,-1
 481 310 l 2,4,5
EndSplineSet
EndChar

StartChar: dollar
Encoding: 36 36 5
Width: 331
VWidth: 900
GlyphClass: 1
Flags: W
LayerCount: 2
Fore
SplineSet
230 -114 m 0,0,1
 230 -120 230 -120 226.5 -121.5 c 128,-1,2
 223 -123 223 -123 218 -122 c 0,3,4
 208 -120 208 -120 208 -120 c 2,5,6
 196 -120 196 -120 172 -129 c 128,-1,7
 148 -138 148 -138 146 -138 c 0,8,9
 138 -138 138 -138 138 -130 c 2,10,-1
 138 -23 l 1,11,12
 128 -20 128 -20 85 -2 c 0,13,14
 53 12 53 12 34 12 c 0,15,16
 24 12 24 12 17 8 c 1,17,18
 43 46 43 46 56 64 c 0,19,20
 76 98 76 98 85 124 c 1,21,22
 112 75 112 75 164 75 c 0,23,24
 179 75 179 75 191 84 c 128,-1,25
 203 93 203 93 203 107 c 0,26,27
 203 134 203 134 160 161 c 0,28,29
 88 205 88 205 80 211 c 0,30,31
 36 249 36 249 36 303 c 0,32,33
 36 346 36 346 65 382 c 128,-1,34
 94 418 94 418 135 431 c 1,35,36
 136 438 136 438 137 460 c 0,37,38
 138 478 138 478 138 489 c 0,39,40
 138 496 138 496 133 512 c 128,-1,41
 128 528 128 528 128 535 c 0,42,43
 128 541 128 541 131.5 542 c 128,-1,44
 135 543 135 543 140 543 c 0,45,46
 149 543 149 543 149 543 c 2,47,48
 162 543 162 543 186 551 c 128,-1,49
 210 559 210 559 212 559 c 0,50,51
 220 559 220 559 220 551 c 2,52,-1
 220 427 l 1,53,54
 232 424 232 424 272 399 c 0,55,56
 304 378 304 378 320 378 c 0,57,58
 326 378 326 378 330 381 c 1,59,60
 302 349 302 349 290 334 c 0,61,62
 268 306 268 306 257 283 c 1,63,64
 250 306 250 306 234 322 c 0,65,66
 215 339 215 339 193 339 c 0,67,68
 179 339 179 339 166.5 331 c 128,-1,69
 154 323 154 323 154 310 c 0,70,71
 154 289 154 289 200 262 c 0,72,73
 266 220 266 220 283 205 c 0,74,75
 328 165 328 165 328 111 c 0,76,77
 328 61 328 61 299 24 c 128,-1,78
 270 -13 270 -13 221 -24 c 1,79,80
 220 -71 220 -71 220 -66 c 1,81,82
 220 -75 220 -75 225 -90 c 128,-1,83
 230 -105 230 -105 230 -114 c 0,0,1
EndSplineSet
EndChar

StartChar: percent
Encoding: 37 37 6
Width: 552
VWidth: 900
GlyphClass: 1
Flags: W
LayerCount: 2
Fore
SplineSet
161 328 m 2,0,-1
 161 451 l 2,1,2
 161 471 161 471 142 471 c 256,3,4
 123 471 123 471 123 451 c 2,5,-1
 123 328 l 2,6,7
 123 309 123 309 142 309 c 256,8,9
 161 309 161 309 161 328 c 2,0,-1
427 -6 m 2,10,-1
 427 118 l 2,11,12
 427 136 427 136 407 136 c 256,13,14
 387 136 387 136 387 118 c 2,15,-1
 387 -6 l 2,16,17
 387 -24 387 -24 407 -24 c 256,18,19
 427 -24 427 -24 427 -6 c 2,10,-1
143 220 m 256,20,21
 72 220 72 220 44 275 c 0,22,23
 25 312 25 312 25 385 c 0,24,25
 25 459 25 459 44 496 c 0,26,27
 71 550 71 550 143 550 c 0,28,29
 214 550 214 550 243 496 c 0,30,31
 261 459 261 459 261 385 c 0,32,33
 261 312 261 312 243 275 c 0,34,35
 214 220 214 220 143 220 c 256,20,21
359 307 m 2,36,-1
 234 50 l 2,37,38
 223 27 223 27 196 -33 c 0,39,40
 160 -105 160 -105 148 -105 c 2,41,-1
 99 -105 l 2,42,43
 83 -105 83 -105 83 -89 c 0,44,45
 83 -84 83 -84 191 136 c 0,46,47
 254 264 254 264 317 393 c 0,48,49
 328 417 328 417 355 476 c 0,50,51
 391 549 391 549 402 549 c 2,52,-1
 453 549 l 2,53,54
 468 549 468 549 468 533 c 0,55,56
 468 528 468 528 359 307 c 2,36,-1
409 -105 m 0,57,58
 337 -105 337 -105 309 -51 c 0,59,60
 290 -13 290 -13 290 60 c 0,61,62
 290 134 290 134 309 171 c 0,63,64
 337 226 337 226 409 226 c 0,65,66
 480 226 480 226 507 171 c 0,67,68
 526 133 526 133 526 60 c 256,69,70
 526 -13 526 -13 507 -51 c 0,71,72
 480 -105 480 -105 409 -105 c 0,57,58
EndSplineSet
EndChar

StartChar: ampersand
Encoding: 38 38 7
Width: 522
VWidth: 900
GlyphClass: 1
Flags: W
LayerCount: 2
Fore
SplineSet
532 239 m 0,0,1
 532 237 532 237 531 235 c 0,2,3
 522 219 522 219 504 189 c 0,4,5
 495 174 495 174 482.5 142 c 128,-1,6
 470 110 470 110 463 95 c 0,7,8
 459 89 459 89 454 89 c 0,9,10
 452 89 452 89 438 95 c 128,-1,11
 424 101 424 101 416 101 c 0,12,13
 397 101 397 101 380 89 c 1,14,15
 387 62 387 62 387 39 c 0,16,17
 387 -33 387 -33 337 -74 c 0,18,19
 289 -113 289 -113 215 -113 c 0,20,21
 122 -113 122 -113 65.5 -52 c 128,-1,22
 9 9 9 9 9 102 c 0,23,24
 9 223 9 223 116 291 c 1,25,26
 37 346 37 346 37 463 c 0,27,28
 37 542 37 542 89.5 595 c 128,-1,29
 142 648 142 648 220 648 c 0,30,31
 292 648 292 648 341 607 c 0,32,33
 394 564 394 564 394 493 c 0,34,35
 394 453 394 453 365 421 c 128,-1,36
 336 389 336 389 295 389 c 0,37,38
 274 389 274 389 256 401 c 0,39,40
 237 416 237 416 237 436 c 0,41,42
 237 440 237 440 247 444 c 0,43,44
 261 448 261 448 267 453 c 0,45,46
 278 462 278 462 278 480 c 0,47,48
 278 513 278 513 233 513 c 0,49,50
 211 513 211 513 190.5 492.5 c 128,-1,51
 170 472 170 472 170 449 c 0,52,53
 170 394 170 394 191 368 c 0,54,55
 214 340 214 340 268 337 c 0,56,57
 287 336 287 336 287 328 c 2,58,-1
 287 280 l 2,59,60
 287 273 287 273 277 271 c 0,61,62
 270 270 270 270 262 269 c 0,63,64
 220 263 220 263 184 221 c 0,65,66
 145 175 145 175 145 106 c 0,67,68
 145 71 145 71 159 46 c 0,69,70
 177 16 177 16 211 16 c 0,71,72
 233 16 233 16 251.5 30 c 128,-1,73
 270 44 270 44 270 66 c 0,74,75
 270 83 270 83 265 96 c 0,76,77
 257 116 257 116 244 116 c 0,78,79
 238 116 238 116 229.5 111.5 c 128,-1,80
 221 107 221 107 218 107 c 0,81,82
 211 107 211 107 211 119 c 0,83,84
 211 176 211 176 244 211 c 128,-1,85
 277 246 277 246 335 246 c 0,86,87
 355 246 355 246 391 235.5 c 128,-1,88
 427 225 427 225 446 225 c 0,89,90
 462 225 462 225 489.5 236 c 128,-1,91
 517 247 517 247 524 247 c 0,92,93
 532 247 532 247 532 239 c 0,0,1
EndSplineSet
EndChar

StartChar: quotesingle
Encoding: 39 39 8
Width: 169
VWidth: 900
GlyphClass: 1
Flags: W
LayerCount: 2
Fore
SplineSet
160 557 m 0,0,1
 160 524 160 524 139 450 c 0,2,3
 121 395 121 395 103 341 c 0,4,5
 92 296 92 296 85 296 c 0,6,7
 77 296 77 296 65 341 c 0,8,9
 49 395 49 395 31 450 c 0,10,11
 8 524 8 524 8 557 c 0,12,13
 8 588 8 588 30.5 610.5 c 128,-1,14
 53 633 53 633 85 633 c 0,15,16
 115 633 115 633 137.5 610.5 c 128,-1,17
 160 588 160 588 160 557 c 0,0,1
EndSplineSet
EndChar

StartChar: parenleft
Encoding: 40 40 9
Width: 207
VWidth: 900
GlyphClass: 1
Flags: W
LayerCount: 2
Fore
SplineSet
221 698 m 0,0,1
 221 695 221 695 210 660 c 0,2,3
 194 615 194 615 194 615 c 1,4,5
 145 456 145 456 145 270 c 0,6,7
 145 170 145 170 167 55 c 0,8,9
 184 -25 184 -25 221 -156 c 1,10,-1
 221 -158 l 2,11,12
 221 -170 221 -170 188 -192 c 1,13,-1
 183 -188 l 1,14,15
 98 -96 98 -96 51.5 24 c 128,-1,16
 5 144 5 144 5 270 c 256,17,18
 5 396 5 396 51.5 516 c 128,-1,19
 98 636 98 636 183 729 c 1,20,-1
 188 732 l 1,21,22
 221 710 221 710 221 698 c 0,0,1
EndSplineSet
EndChar

StartChar: parenright
Encoding: 41 41 10
Width: 207
VWidth: 900
GlyphClass: 1
Flags: W
LayerCount: 2
Fore
SplineSet
5 698 m 0,0,1
 5 710 5 710 39 732 c 1,2,-1
 44 729 l 1,3,4
 129 636 129 636 175 516 c 128,-1,5
 221 396 221 396 221 270 c 256,6,7
 221 144 221 144 175 24 c 128,-1,8
 129 -96 129 -96 44 -188 c 1,9,-1
 39 -192 l 1,10,11
 5 -170 5 -170 5 -158 c 2,12,-1
 5 -156 l 1,13,14
 43 -25 43 -25 59 55 c 0,15,16
 82 170 82 170 82 270 c 0,17,18
 82 456 82 456 32 615 c 2,19,20
 32 615 32 615 17 660 c 0,21,22
 5 695 5 695 5 698 c 0,0,1
EndSplineSet
EndChar

StartChar: asterisk
Encoding: 42 42 11
Width: 423
VWidth: 900
GlyphClass: 1
Flags: W
LayerCount: 2
Fore
SplineSet
182 244 m 0,0,1
 158 244 158 244 139.5 260 c 128,-1,2
 121 276 121 276 121 300 c 0,3,4
 121 319 121 319 155 363 c 0,5,6
 178 392 178 392 203 422 c 1,7,8
 172 409 172 409 140 399 c 0,9,10
 98 381 98 381 80 381 c 0,11,12
 56 381 56 381 39 399 c 128,-1,13
 22 417 22 417 22 440 c 256,14,15
 22 463 22 463 39 480.5 c 128,-1,16
 56 498 56 498 80 498 c 0,17,18
 98 498 98 498 140 482 c 0,19,20
 172 471 172 471 203 458 c 1,21,22
 178 488 178 488 155 517 c 0,23,24
 121 561 121 561 121 579 c 0,25,26
 121 604 121 604 139.5 620 c 128,-1,27
 158 636 158 636 182 636 c 0,28,29
 223 636 223 636 234 568 c 0,30,31
 238 544 238 544 238 470 c 1,32,33
 260 503 260 503 283 538 c 0,34,35
 318 584 318 584 342 584 c 0,36,37
 365 584 365 584 383 565 c 128,-1,38
 401 546 401 546 401 523 c 0,39,40
 401 492 401 492 344 467 c 1,41,42
 301 453 301 453 258 440 c 1,43,44
 301 426 301 426 344 413 c 1,45,46
 401 388 401 388 401 357 c 0,47,48
 401 334 401 334 383 315 c 128,-1,49
 365 296 365 296 342 296 c 0,50,51
 318 296 318 296 283 343 c 0,52,53
 260 377 260 377 237 411 c 1,54,55
 237 403 237 403 238 390 c 0,56,57
 238 375 238 375 238 370 c 0,58,59
 238 244 238 244 182 244 c 0,0,1
EndSplineSet
EndChar

StartChar: plus
Encoding: 43 43 12
Width: 394
VWidth: 900
GlyphClass: 1
Flags: W
LayerCount: 2
Fore
SplineSet
244 391 m 2,0,1
 252 391 252 391 252 384 c 2,2,-1
 252 265 l 1,3,-1
 370 265 l 2,4,5
 378 265 378 265 378 258 c 2,6,-1
 378 165 l 2,7,8
 378 156 378 156 370 156 c 2,9,-1
 252 156 l 1,10,-1
 252 39 l 2,11,12
 252 30 252 30 244 30 c 2,13,-1
 149 30 l 2,14,15
 142 30 142 30 142 39 c 2,16,-1
 142 156 l 1,17,-1
 23 156 l 2,18,19
 16 156 16 156 16 165 c 2,20,-1
 16 258 l 2,21,22
 16 265 16 265 23 265 c 2,23,-1
 142 265 l 1,24,-1
 142 384 l 2,25,26
 142 391 142 391 149 391 c 2,27,-1
 244 391 l 2,0,1
EndSplineSet
EndChar

StartChar: comma
Encoding: 44 44 13
Width: 175
VWidth: 900
GlyphClass: 1
Flags: W
LayerCount: 2
Fore
SplineSet
178 -33 m 0,0,1
 178 -70 178 -70 153 -152 c 0,2,3
 134 -213 134 -213 114 -273 c 1,4,5
 102 -323 102 -323 93 -323 c 0,6,7
 85 -323 85 -323 72 -273 c 0,8,9
 52 -213 52 -213 34 -152 c 0,10,11
 9 -70 9 -70 9 -33 c 0,12,13
 9 1 9 1 33.5 26 c 128,-1,14
 58 51 58 51 93 51 c 256,15,16
 128 51 128 51 153 26 c 128,-1,17
 178 1 178 1 178 -33 c 0,0,1
EndSplineSet
EndChar

StartChar: hyphen
Encoding: 61485 61485 14
AltUni2: 002010.ffffffff.0 002010.ffffffff.0
Width: 286
VWidth: 900
GlyphClass: 1
Flags: W
LayerCount: 2
Fore
SplineSet
270 151 m 2,0,1
 270 144 270 144 262 144 c 2,2,-1
 23 144 l 2,3,4
 16 144 16 144 16 151 c 2,5,-1
 16 256 l 2,6,7
 16 264 16 264 23 264 c 2,8,-1
 262 264 l 2,9,10
 270 264 270 264 270 256 c 2,11,-1
 270 151 l 2,0,1
EndSplineSet
EndChar

StartChar: period
Encoding: 46 46 15
Width: 180
VWidth: 900
GlyphClass: 1
Flags: W
LayerCount: 2
Fore
SplineSet
182 -33 m 0,0,1
 182 -69 182 -69 156.5 -93.5 c 128,-1,2
 131 -118 131 -118 96 -118 c 0,3,4
 62 -118 62 -118 37 -93.5 c 128,-1,5
 12 -69 12 -69 12 -33 c 0,6,7
 12 1 12 1 37 26 c 128,-1,8
 62 51 62 51 96 51 c 0,9,10
 131 51 131 51 156.5 26 c 128,-1,11
 182 1 182 1 182 -33 c 0,0,1
EndSplineSet
EndChar

StartChar: slash
Encoding: 47 47 16
Width: 365
VWidth: 900
GlyphClass: 1
Flags: W
LayerCount: 2
Fore
SplineSet
392 633 m 0,0,1
 392 629 392 629 270 372 c 0,2,3
 130 80 130 80 126 71 c 0,4,5
 104 22 104 22 82 -26 c 0,6,7
 45 -105 45 -105 38 -105 c 2,8,-1
 -20 -105 l 2,9,10
 -27 -105 -27 -105 -27 -97 c 0,11,12
 -27 -94 -27 -94 96 165 c 0,13,14
 236 456 236 456 239 465 c 0,15,16
 262 514 262 514 283 562 c 0,17,18
 320 641 320 641 328 641 c 2,19,-1
 385 641 l 2,20,21
 392 641 392 641 392 633 c 0,0,1
EndSplineSet
EndChar

StartChar: zero
Encoding: 48 48 17
Width: 405
VWidth: 900
GlyphClass: 1
Flags: W
LayerCount: 2
Fore
SplineSet
391 219 m 256,0,1
 391 92 391 92 360 8 c 0,2,3
 314 -113 314 -113 208 -113 c 0,4,5
 103 -113 103 -113 56 8 c 0,6,7
 24 92 24 92 24 219 c 0,8,9
 24 348 24 348 56 430 c 0,10,11
 102 551 102 551 208 551 c 256,12,13
 314 551 314 551 360 430 c 0,14,15
 391 346 391 346 391 219 c 256,0,1
256 219 m 256,16,17
 256 269 256 269 247 326 c 0,18,19
 234 408 234 408 208 408 c 0,20,21
 183 408 183 408 169 326 c 0,22,23
 160 269 160 269 160 219 c 256,24,25
 160 169 160 169 169 112 c 0,26,27
 183 30 183 30 208 30 c 0,28,29
 234 30 234 30 247 112 c 0,30,31
 256 169 256 169 256 219 c 256,16,17
EndSplineSet
EndChar

StartChar: one
Encoding: 49 49 18
Width: 235
VWidth: 900
GlyphClass: 1
Flags: W
LayerCount: 2
Fore
SplineSet
220 -96 m 1,0,1
 220 -105 220 -105 212 -105 c 2,2,-1
 36 -105 l 2,3,4
 29 -105 29 -105 29 -96 c 1,5,6
 29 -98 29 -98 43.5 -80 c 128,-1,7
 58 -62 58 -62 58 -43 c 2,8,-1
 58 373 l 2,9,10
 58 399 58 399 44.5 422 c 128,-1,11
 31 445 31 445 31 442 c 1,12,13
 31 445 31 445 38 449 c 0,14,15
 95 472 95 472 144 525 c 0,16,17
 153 536 153 536 162.5 547.5 c 128,-1,18
 172 559 172 559 182 564 c 0,19,20
 190 564 190 564 190 557 c 2,21,-1
 190 -43 l 2,22,23
 190 -62 190 -62 205 -80 c 128,-1,24
 220 -98 220 -98 220 -96 c 1,0,1
EndSplineSet
EndChar

StartChar: two
Encoding: 50 50 19
Width: 382
VWidth: 900
GlyphClass: 1
Flags: W
LayerCount: 2
Fore
SplineSet
278 13 m 1,0,-1
 279 13 l 1,1,2
 279 13 279 13 278 13 c 1,0,-1
379 380 m 0,3,4
 379 309 379 309 335 236 c 0,5,6
 322 214 322 214 250 119 c 0,7,8
 200 54 200 54 193 13 c 1,9,-1
 279 13 l 2,10,11
 291 13 291 13 306.5 31.5 c 128,-1,12
 322 50 322 50 326 50 c 0,13,14
 332 50 332 50 337 9 c 0,15,16
 339 -15 339 -15 369 -93 c 0,17,18
 371 -96 371 -96 371 -97 c 0,19,20
 371 -105 371 -105 363 -105 c 2,21,-1
 29 -105 l 2,22,23
 21 -105 21 -105 21 -97 c 0,24,25
 21 -2 21 -2 79 96 c 0,26,27
 95 122 95 122 186 243 c 0,28,29
 244 319 244 319 244 363 c 0,30,31
 244 384 244 384 230.5 402 c 128,-1,32
 217 420 217 420 196 420 c 0,33,34
 178 420 178 420 164 409.5 c 128,-1,35
 150 399 150 399 150 382 c 0,36,37
 150 370 150 370 157 359 c 128,-1,38
 164 348 164 348 175 348 c 0,39,40
 183 348 183 348 192.5 354.5 c 128,-1,41
 202 361 202 361 205 361 c 0,42,43
 213 361 213 361 213 352 c 0,44,45
 213 317 213 317 193 289 c 0,46,47
 169 258 169 258 135 258 c 0,48,49
 88 258 88 258 56 300 c 0,50,51
 27 338 27 338 27 388 c 0,52,53
 27 458 27 458 78 505.5 c 128,-1,54
 129 553 129 553 200 553 c 0,55,56
 277 553 277 553 328 504.5 c 128,-1,57
 379 456 379 456 379 380 c 0,3,4
EndSplineSet
EndChar

StartChar: three
Encoding: 51 51 20
Width: 390
VWidth: 900
GlyphClass: 1
Flags: W
LayerCount: 2
Fore
SplineSet
375 85 m 0,0,1
 375 -6 375 -6 331 -60 c 0,2,3
 283 -119 283 -119 195 -119 c 0,4,5
 124 -119 124 -119 73 -71.5 c 128,-1,6
 22 -24 22 -24 22 47 c 0,7,8
 22 96 22 96 50 135 c 0,9,10
 82 176 82 176 130 176 c 0,11,12
 161 176 161 176 186 152.5 c 128,-1,13
 211 129 211 129 211 96 c 0,14,15
 211 88 211 88 203 88 c 0,16,17
 200 88 200 88 193.5 92 c 128,-1,18
 187 96 187 96 182 96 c 0,19,20
 171 96 171 96 164 84 c 128,-1,21
 157 72 157 72 157 60 c 0,22,23
 157 42 157 42 167 29 c 128,-1,24
 177 16 177 16 195 16 c 0,25,26
 221 16 221 16 236 43 c 0,27,28
 247 65 247 65 247 95 c 0,29,30
 247 134 247 134 230 168 c 0,31,32
 211 208 211 208 178 219 c 0,33,34
 169 222 169 222 161 225 c 0,35,36
 149 229 149 229 149 234 c 0,37,38
 149 240 149 240 162 244 c 0,39,40
 171 247 171 247 179 250 c 0,41,42
 210 264 210 264 225 305 c 0,43,44
 237 337 237 337 237 378 c 0,45,46
 237 398 237 398 224 414.5 c 128,-1,47
 211 431 211 431 191 431 c 0,48,49
 175 431 175 431 166 419.5 c 128,-1,50
 157 408 157 408 157 392 c 0,51,52
 157 381 157 381 163 371.5 c 128,-1,53
 169 362 169 362 180 362 c 0,54,55
 184 362 184 362 189.5 365.5 c 128,-1,56
 195 369 195 369 198 369 c 0,57,58
 206 369 206 369 206 360 c 0,59,60
 206 332 206 332 183.5 310.5 c 128,-1,61
 161 289 161 289 132 289 c 0,62,63
 85 289 85 289 58 324 c 0,64,65
 34 355 34 355 34 404 c 0,66,67
 34 467 34 467 81 509 c 128,-1,68
 128 551 128 551 191 551 c 0,69,70
 256 551 256 551 304.5 506.5 c 128,-1,71
 353 462 353 462 353 398 c 0,72,73
 353 339 353 339 345 312 c 0,74,75
 333 270 333 270 297 244 c 1,76,77
 375 192 375 192 375 85 c 0,0,1
EndSplineSet
EndChar

StartChar: four
Encoding: 52 52 21
Width: 406
VWidth: 900
GlyphClass: 1
Flags: W
LayerCount: 2
Fore
SplineSet
351 -98 m 1,0,1
 351 -105 351 -105 343 -105 c 2,2,-1
 174 -105 l 2,3,4
 166 -105 166 -105 166 -98 c 1,5,6
 166 -98 166 -98 180.5 -80.5 c 128,-1,7
 195 -63 195 -63 195 -44 c 2,8,-1
 195 48 l 1,9,-1
 23 48 l 2,10,11
 16 48 16 48 16 57 c 0,12,13
 16 58 16 58 88 289 c 0,14,15
 160 523 160 523 166 534 c 0,16,17
 169 540 169 540 175 540 c 2,18,-1
 296 540 l 2,19,20
 303 540 303 540 303 532 c 0,21,22
 303 528 303 528 154 157 c 1,23,-1
 195 157 l 1,24,-1
 196 197 l 1,25,26
 221 255 221 255 247 313 c 0,27,28
 276 382 276 382 301 427 c 0,29,30
 310 442 310 442 312 442 c 0,31,32
 320 442 320 442 320 434 c 2,33,-1
 320 157 l 1,34,-1
 335 157 l 2,35,36
 353 157 353 157 371 172.5 c 128,-1,37
 389 188 389 188 389 188 c 1,38,39
 396 188 396 188 396 180 c 2,40,-1
 396 26 l 2,41,42
 396 18 396 18 388 18 c 0,43,44
 387 18 387 18 378 26.5 c 128,-1,45
 369 35 369 35 358 40 c 0,46,47
 343 48 343 48 320 48 c 1,48,-1
 320 -44 l 2,49,50
 320 -62 320 -62 335.5 -80 c 128,-1,51
 351 -98 351 -98 351 -98 c 1,0,1
EndSplineSet
EndChar

StartChar: five
Encoding: 53 53 22
Width: 390
VWidth: 900
GlyphClass: 1
Flags: W
LayerCount: 2
Fore
SplineSet
164 247 m 1,0,-1
 162 247 l 1,1,2
 163 247 163 247 164 247 c 1,0,-1
380 153 m 0,3,4
 380 145 380 145 379 129 c 128,-1,5
 378 113 378 113 378 105 c 0,6,7
 378 25 378 25 328 -43 c 0,8,9
 272 -117 272 -117 195 -117 c 0,10,11
 121 -117 121 -117 71.5 -68 c 128,-1,12
 22 -19 22 -19 22 54 c 0,13,14
 22 107 22 107 49 148 c 0,15,16
 81 196 81 196 130 196 c 0,17,18
 161 196 161 196 186 173 c 128,-1,19
 211 150 211 150 211 120 c 0,20,21
 211 111 211 111 203 111 c 0,22,23
 200 111 200 111 194.5 115.5 c 128,-1,24
 189 120 189 120 185 120 c 0,25,26
 170 120 170 120 158 102 c 128,-1,27
 146 84 146 84 146 68 c 0,28,29
 146 48 146 48 160.5 30.5 c 128,-1,30
 175 13 175 13 195 13 c 0,31,32
 225 13 225 13 242 49 c 0,33,34
 254 78 254 78 254 112 c 0,35,36
 254 247 254 247 140 247 c 0,37,38
 121 247 121 247 92 235.5 c 128,-1,39
 63 224 63 224 65 224 c 1,40,41
 57 224 57 224 57 232 c 2,42,-1
 57 540 l 2,43,44
 57 548 57 548 65 548 c 0,45,46
 67 548 67 548 115.5 531 c 128,-1,47
 164 514 164 514 189 514 c 0,48,49
 242 514 242 514 305 561 c 1,50,51
 313 560 313 560 319 539 c 0,52,53
 322 522 322 522 322 510 c 0,54,55
 322 464 322 464 289.5 429.5 c 128,-1,56
 257 395 257 395 211 395 c 0,57,58
 198 395 198 395 186 398 c 1,59,-1
 186 343 l 1,60,61
 202 346 202 346 220 346 c 0,62,63
 292 346 292 346 338 284 c 0,64,65
 380 228 380 228 380 153 c 0,3,4
EndSplineSet
EndChar

StartChar: six
Encoding: 54 54 23
Width: 384
VWidth: 900
GlyphClass: 1
Flags: W
LayerCount: 2
Fore
SplineSet
373 111 m 0,0,1
 373 -106 373 -106 206 -106 c 0,2,3
 85 -106 85 -106 48 3 c 0,4,5
 26 64 26 64 26 211 c 0,6,7
 26 363 26 363 49 432 c 0,8,9
 90 553 90 553 210 553 c 0,10,11
 273 553 273 553 317 518 c 0,12,13
 364 481 364 481 364 420 c 0,14,15
 364 377 364 377 341.5 351 c 128,-1,16
 319 325 319 325 275 325 c 0,17,18
 256 325 256 325 230 343 c 128,-1,19
 204 361 204 361 204 379 c 0,20,21
 204 387 204 387 211 387 c 0,22,23
 214 387 214 387 219.5 385 c 128,-1,24
 225 383 225 383 227 383 c 0,25,26
 232 383 232 383 239.5 387.5 c 128,-1,27
 247 392 247 392 247 399 c 0,28,29
 247 413 247 413 236 423 c 128,-1,30
 225 433 225 433 210 433 c 0,31,32
 191 433 191 433 178 414 c 0,33,34
 168 399 168 399 168 377 c 2,35,-1
 168 283 l 1,36,37
 203 309 203 309 239 309 c 0,38,39
 314 309 314 309 347 243 c 0,40,41
 373 192 373 192 373 111 c 0,0,1
232 70 m 2,42,-1
 232 154 l 2,43,44
 232 170 232 170 223 183 c 128,-1,45
 214 196 214 196 200 196 c 0,46,47
 184 196 184 196 175 183 c 128,-1,48
 166 170 166 170 166 154 c 2,49,-1
 166 70 l 2,50,51
 166 55 166 55 175 42 c 128,-1,52
 184 29 184 29 200 29 c 0,53,54
 214 29 214 29 223 42 c 128,-1,55
 232 55 232 55 232 70 c 2,42,-1
EndSplineSet
EndChar

StartChar: seven
Encoding: 55 55 24
Width: 360
VWidth: 900
GlyphClass: 1
Flags: W
LayerCount: 2
Fore
SplineSet
384 531 m 0,0,1
 384 528 384 528 380 525 c 0,2,3
 355 507 355 507 348 476 c 2,4,-1
 234 -44 l 1,5,6
 238 -60 238 -60 239 -68 c 0,7,8
 243 -85 243 -85 248 -89 c 128,-1,9
 253 -93 253 -93 253 -96 c 0,10,11
 253 -104 253 -104 245 -104 c 2,12,-1
 68 -104 l 2,13,14
 61 -104 61 -104 61 -95 c 0,15,16
 61 -92 61 -92 67 -88 c 0,17,18
 96 -69 96 -69 103 -41 c 2,19,-1
 203 417 l 1,20,-1
 113 417 l 2,21,22
 92 417 92 417 82 396.5 c 128,-1,23
 72 376 72 376 70 376 c 0,24,25
 64 376 64 376 62 383 c 0,26,27
 58 393 58 393 49 443 c 0,28,29
 41 480 41 480 31 501 c 0,30,31
 23 510 23 510 11 532 c 1,32,33
 12 539 12 539 19 539 c 2,34,-1
 376 539 l 2,35,36
 384 539 384 539 384 531 c 0,0,1
EndSplineSet
EndChar

StartChar: eight
Encoding: 56 56 25
Width: 400
VWidth: 900
GlyphClass: 1
Flags: W
LayerCount: 2
Fore
SplineSet
382 84 m 0,0,1
 382 -6 382 -6 335.5 -55 c 128,-1,2
 289 -104 289 -104 200 -104 c 0,3,4
 122 -104 122 -104 72.5 -53 c 128,-1,5
 23 -2 23 -2 23 75 c 0,6,7
 23 121 23 121 47 168 c 0,8,9
 68 211 68 211 105 244 c 1,10,11
 37 301 37 301 37 381 c 0,12,13
 37 457 37 457 82.5 504.5 c 128,-1,14
 128 552 128 552 203 552 c 0,15,16
 276 552 276 552 322 506 c 128,-1,17
 368 460 368 460 368 385 c 0,18,19
 368 345 368 345 347.5 303.5 c 128,-1,20
 327 262 327 262 293 235 c 1,21,22
 382 168 382 168 382 84 c 0,0,1
234 388 m 0,23,24
 234 429 234 429 202 429 c 0,25,26
 185 429 185 429 176 415.5 c 128,-1,27
 167 402 167 402 167 384 c 0,28,29
 167 355 167 355 207 327 c 1,30,31
 234 354 234 354 234 388 c 0,23,24
243 85 m 0,32,33
 243 115 243 115 199 150 c 1,34,35
 160 118 160 118 160 85 c 0,36,37
 160 66 160 66 171.5 52.5 c 128,-1,38
 183 39 183 39 203 39 c 0,39,40
 220 39 220 39 231.5 53 c 128,-1,41
 243 67 243 67 243 85 c 0,32,33
EndSplineSet
EndChar

StartChar: nine
Encoding: 57 57 26
Width: 393
VWidth: 900
GlyphClass: 1
Flags: W
LayerCount: 2
Fore
SplineSet
190 -106 m 0,0,1
 127 -106 127 -106 83 -72 c 0,2,3
 35 -34 35 -34 35 28 c 0,4,5
 35 71 35 71 58 96 c 128,-1,6
 81 121 81 121 124 121 c 0,7,8
 143 121 143 121 169 103.5 c 128,-1,9
 195 86 195 86 195 68 c 0,10,11
 195 60 195 60 188 60 c 0,12,13
 185 60 185 60 180 62 c 128,-1,14
 175 64 175 64 173 64 c 0,15,16
 167 64 167 64 160 59.5 c 128,-1,17
 153 55 153 55 153 49 c 0,18,19
 153 33 153 33 164 23 c 128,-1,20
 175 13 175 13 190 13 c 0,21,22
 209 13 209 13 221 32 c 0,23,24
 231 49 231 49 231 69 c 2,25,-1
 231 164 l 1,26,27
 196 138 196 138 160 138 c 0,28,29
 85 138 85 138 52 204 c 0,30,31
 26 255 26 255 26 336 c 0,32,33
 26 553 26 553 193 553 c 0,34,35
 314 553 314 553 352 444 c 0,36,37
 373 383 373 383 373 235 c 0,38,39
 373 84 373 84 350 14 c 0,40,41
 310 -106 310 -106 190 -106 c 0,0,1
233 292 m 2,42,-1
 233 377 l 2,43,44
 233 391 233 391 224 404.5 c 128,-1,45
 215 418 215 418 200 418 c 256,46,47
 185 418 185 418 176 404.5 c 128,-1,48
 167 391 167 391 167 377 c 2,49,-1
 167 292 l 2,50,51
 167 277 167 277 176 264 c 128,-1,52
 185 251 185 251 200 251 c 256,53,54
 215 251 215 251 224 264 c 128,-1,55
 233 277 233 277 233 292 c 2,42,-1
EndSplineSet
EndChar

StartChar: colon
Encoding: 58 58 27
Width: 180
VWidth: 900
GlyphClass: 1
Flags: W
LayerCount: 2
Fore
SplineSet
182 237 m 0,0,1
 182 203 182 203 156.5 178.5 c 128,-1,2
 131 154 131 154 96 154 c 0,3,4
 62 154 62 154 37 178.5 c 128,-1,5
 12 203 12 203 12 237 c 0,6,7
 12 273 12 273 37 298 c 128,-1,8
 62 323 62 323 96 323 c 0,9,10
 131 323 131 323 156.5 298 c 128,-1,11
 182 273 182 273 182 237 c 0,0,1
182 -33 m 0,12,13
 182 -69 182 -69 156.5 -93.5 c 128,-1,14
 131 -118 131 -118 96 -118 c 0,15,16
 62 -118 62 -118 37 -93.5 c 128,-1,17
 12 -69 12 -69 12 -33 c 0,18,19
 12 1 12 1 37 26 c 128,-1,20
 62 51 62 51 96 51 c 0,21,22
 131 51 131 51 156.5 26 c 128,-1,23
 182 1 182 1 182 -33 c 0,12,13
EndSplineSet
EndChar

StartChar: semicolon
Encoding: 59 59 28
Width: 180
VWidth: 900
GlyphClass: 1
Flags: W
LayerCount: 2
Fore
SplineSet
178 -33 m 0,0,1
 178 -70 178 -70 153 -152 c 0,2,3
 134 -213 134 -213 114 -273 c 1,4,5
 102 -323 102 -323 93 -323 c 0,6,7
 85 -323 85 -323 72 -273 c 0,8,9
 52 -213 52 -213 34 -152 c 0,10,11
 9 -70 9 -70 9 -33 c 0,12,13
 9 1 9 1 33.5 26 c 128,-1,14
 58 51 58 51 93 51 c 256,15,16
 128 51 128 51 153 26 c 128,-1,17
 178 1 178 1 178 -33 c 0,0,1
182 237 m 0,18,19
 182 203 182 203 156.5 178.5 c 128,-1,20
 131 154 131 154 96 154 c 0,21,22
 62 154 62 154 37 178.5 c 128,-1,23
 12 203 12 203 12 237 c 0,24,25
 12 273 12 273 37 298 c 128,-1,26
 62 323 62 323 96 323 c 0,27,28
 131 323 131 323 156.5 298 c 128,-1,29
 182 273 182 273 182 237 c 0,18,19
EndSplineSet
EndChar

StartChar: less
Encoding: 60 60 29
Width: 387
VWidth: 900
GlyphClass: 1
Flags: W
LayerCount: 2
Fore
SplineSet
209 247 m 1,0,1
 409 -159 409 -159 409 -160 c 0,2,3
 409 -167 409 -167 382 -183 c 128,-1,4
 355 -199 355 -199 347 -199 c 0,5,6
 341 -199 341 -199 338 -194 c 0,7,8
 326 -168 326 -168 301 -116 c 0,9,10
 197 75 197 75 13 240 c 0,11,12
 10 244 10 244 10 248 c 256,13,14
 10 252 10 252 13 255 c 0,15,16
 197 414 197 414 301 612 c 0,17,18
 305 618 305 618 338 690 c 0,19,20
 341 696 341 696 347 696 c 0,21,22
 355 696 355 696 385.5 679 c 128,-1,23
 416 662 416 662 416 657 c 0,24,25
 416 654 416 654 209 247 c 1,0,1
EndSplineSet
EndChar

StartChar: equal
Encoding: 61 61 30
Width: 394
VWidth: 900
GlyphClass: 1
Flags: W
LayerCount: 2
Fore
SplineSet
378 100 m 2,0,1
 378 92 378 92 370 92 c 2,2,-1
 23 92 l 2,3,4
 16 92 16 92 16 100 c 2,5,-1
 16 183 l 2,6,7
 16 190 16 190 23 190 c 2,8,-1
 370 190 l 2,9,10
 378 190 378 190 378 183 c 2,11,-1
 378 100 l 2,0,1
16 334 m 2,12,13
 16 341 16 341 23 341 c 2,14,-1
 370 341 l 2,15,16
 378 341 378 341 378 334 c 2,17,-1
 378 251 l 2,18,19
 378 243 378 243 370 243 c 2,20,-1
 23 243 l 2,21,22
 16 243 16 243 16 251 c 2,23,-1
 16 334 l 2,12,13
EndSplineSet
EndChar

StartChar: greater
Encoding: 62 62 31
Width: 387
VWidth: 900
GlyphClass: 1
Flags: W
LayerCount: 2
Fore
SplineSet
215 247 m 1,0,1
 9 654 9 654 9 657 c 0,2,3
 9 662 9 662 39.5 679 c 128,-1,4
 70 696 70 696 77 696 c 256,5,6
 84 696 84 696 86 690 c 0,7,8
 98 664 98 664 123 612 c 0,9,10
 228 414 228 414 410 255 c 0,11,12
 414 252 414 252 414 248 c 256,13,14
 414 244 414 244 410 240 c 0,15,16
 227 75 227 75 124 -116 c 0,17,18
 123 -117 123 -117 86 -194 c 0,19,20
 84 -199 84 -199 77 -199 c 256,21,22
 70 -199 70 -199 42 -183 c 128,-1,23
 14 -167 14 -167 14 -160 c 0,24,25
 14 -159 14 -159 215 247 c 1,0,1
EndSplineSet
EndChar

StartChar: question
Encoding: 63 63 32
Width: 432
VWidth: 900
GlyphClass: 1
Flags: W
LayerCount: 2
Fore
SplineSet
290 -33 m 0,0,1
 290 -69 290 -69 264.5 -93.5 c 128,-1,2
 239 -118 239 -118 204 -118 c 0,3,4
 170 -118 170 -118 145 -93.5 c 128,-1,5
 120 -69 120 -69 120 -33 c 0,6,7
 120 1 120 1 145 26 c 128,-1,8
 170 51 170 51 204 51 c 0,9,10
 239 51 239 51 264.5 26 c 128,-1,11
 290 1 290 1 290 -33 c 0,0,1
212 179 m 0,12,13
 212 156 212 156 236 156 c 0,14,15
 247 156 247 156 259.5 166 c 128,-1,16
 272 176 272 176 276 176 c 0,17,18
 286 176 286 176 286 150 c 0,19,20
 286 120 286 120 264.5 102 c 128,-1,21
 243 84 243 84 211 84 c 0,22,23
 171 84 171 84 140.5 111.5 c 128,-1,24
 110 139 110 139 110 179 c 0,25,26
 110 240 110 240 154 283 c 1,27,28
 195 317 195 317 236 350 c 0,29,30
 280 390 280 390 280 437 c 0,31,32
 280 510 280 510 199 510 c 0,33,34
 179 510 179 510 164 500 c 0,35,36
 148 489 148 489 148 471 c 0,37,38
 148 444 148 444 181 444 c 0,39,40
 184 444 184 444 189 446 c 128,-1,41
 194 448 194 448 196 448 c 0,42,43
 206 448 206 448 206 441 c 0,44,45
 206 424 206 424 177 402 c 0,46,47
 152 382 152 382 133 379 c 0,48,49
 121 376 121 376 106 376 c 0,50,51
 62 376 62 376 36 408 c 0,52,53
 13 438 13 438 13 483 c 0,54,55
 13 550 13 550 79 597 c 0,56,57
 139 639 139 639 208 639 c 0,58,59
 301 639 301 639 358 596 c 0,60,61
 421 547 421 547 421 456 c 0,62,63
 421 382 421 382 367 327 c 0,64,65
 351 312 351 312 266 251 c 0,66,67
 212 212 212 212 212 179 c 0,12,13
EndSplineSet
EndChar

StartChar: at
Encoding: 64 64 33
Width: 767
VWidth: 900
GlyphClass: 1
Flags: W
LayerCount: 2
Fore
SplineSet
734 240 m 0,0,1
 734 151 734 151 685 73 c 0,2,3
 627 -19 627 -19 539 -19 c 0,4,5
 461 -19 461 -19 430 42 c 1,6,7
 419 21 419 21 397 3 c 0,8,9
 371 -17 371 -17 349 -17 c 0,10,11
 255 -17 255 -17 255 108 c 2,12,-1
 255 262 l 2,13,14
 255 304 255 304 275 336 c 0,15,16
 301 372 301 372 342 372 c 0,17,18
 384 372 384 372 418 334 c 1,19,20
 418 343 418 343 418 364 c 0,21,22
 418 384 418 384 426 384 c 0,23,24
 428 384 428 384 468 362 c 0,25,26
 484 352 484 352 511 342 c 0,27,28
 533 334 533 334 555 325 c 0,29,30
 561 323 561 323 561 319 c 0,31,32
 535 291 535 291 535 257 c 2,33,-1
 535 66 l 1,34,35
 547 57 547 57 559 57 c 0,36,37
 598 57 598 57 621 137 c 0,38,39
 639 197 639 197 639 250 c 0,40,41
 639 351 639 351 568.5 424.5 c 128,-1,42
 498 498 498 498 398 498 c 0,43,44
 273 498 273 498 205 399 c 0,45,46
 146 313 146 313 146 183 c 0,47,48
 146 56 146 56 210 -26 c 0,49,50
 280 -116 280 -116 403 -116 c 0,51,52
 440 -116 440 -116 470 -102 c 0,53,54
 488 -92 488 -92 509 -72 c 0,55,56
 526 -56 526 -56 532 -56 c 0,57,58
 544 -56 544 -56 544 -89 c 0,59,60
 544 -145 544 -145 479 -177 c 0,61,62
 427 -201 427 -201 364 -201 c 0,63,64
 243 -201 243 -201 145 -109 c 0,65,66
 32 -2 32 -2 32 190 c 0,67,68
 32 357 32 357 125 470 c 0,69,70
 225 589 225 589 389 589 c 0,71,72
 540 589 540 589 637 490 c 128,-1,73
 734 391 734 391 734 240 c 0,0,1
391 268 m 0,74,75
 366 268 366 268 366 237 c 2,76,-1
 366 114 l 2,77,78
 366 78 366 78 391 78 c 0,79,80
 406 78 406 78 424 124 c 1,81,-1
 424 232 l 1,82,83
 409 268 409 268 391 268 c 0,74,75
EndSplineSet
EndChar

StartChar: A
Encoding: 65 65 34
Width: 500
VWidth: 900
GlyphClass: 1
Flags: W
LayerCount: 2
Fore
SplineSet
517 -98 m 0,0,1
 517 -105 517 -105 509 -105 c 2,2,-1
 308 -105 l 2,3,4
 300 -105 300 -105 300 -98 c 2,5,6
 300 -98 300 -98 311 -80 c 128,-1,7
 322 -62 322 -62 322 -43 c 2,8,-1
 322 104 l 1,9,10
 299 86 299 86 251 53 c 1,11,12
 247 16 247 16 243 -22 c 0,13,14
 239 -66 239 -66 239 -96 c 0,15,16
 239 -114 239 -114 252 -130 c 128,-1,17
 265 -146 265 -146 265 -145 c 1,18,19
 265 -152 265 -152 236 -165 c 0,20,21
 221 -170 221 -170 139 -217 c 0,22,23
 61 -260 61 -260 58 -260 c 0,24,25
 51 -260 51 -260 51 -253 c 0,26,27
 51 -250 51 -250 56 -246 c 0,28,29
 67 -235 67 -235 77 -204 c 0,30,31
 88 -175 88 -175 91 -157 c 0,32,33
 100 -89 100 -89 108 13 c 0,34,35
 121 173 121 173 122 183 c 0,36,37
 128 227 128 227 132 271 c 0,38,39
 139 322 139 322 139 357 c 0,40,41
 139 366 139 366 132 384 c 128,-1,42
 125 402 125 402 125 410 c 0,43,44
 125 416 125 416 132 418 c 0,45,46
 169 430 169 430 207 442.5 c 128,-1,47
 245 455 245 455 274 485 c 1,48,-1
 279 487 l 2,49,50
 288 487 288 487 287 478 c 2,51,-1
 266 229 l 1,52,-1
 322 270 l 1,53,-1
 322 370 l 2,54,55
 322 443 322 443 302 478 c 0,56,57
 276 523 276 523 209 523 c 0,58,59
 168 523 168 523 134 492.5 c 128,-1,60
 100 462 100 462 100 422 c 0,61,62
 100 414 100 414 106 400 c 128,-1,63
 112 386 112 386 112 383 c 0,64,65
 112 375 112 375 98 375 c 0,66,67
 58 375 58 375 34 408 c 0,68,69
 12 436 12 436 12 478 c 0,70,71
 12 561 12 561 73 615 c 0,72,73
 131 665 131 665 216 665 c 0,74,75
 338 665 338 665 400 579 c 0,76,77
 454 504 454 504 454 376 c 2,78,-1
 454 370 l 1,79,-1
 482 -42 l 2,80,81
 483 -60 483 -60 500 -78 c 128,-1,82
 517 -96 517 -96 517 -98 c 0,0,1
EndSplineSet
EndChar

StartChar: B
Encoding: 66 66 35
Width: 490
VWidth: 900
GlyphClass: 1
Flags: W
LayerCount: 2
Fore
SplineSet
256 144 m 1,0,-1
 256 48 l 1,1,2
 265 26 265 26 275 26 c 0,3,4
 316 26 316 26 316 105 c 0,5,6
 316 131 316 131 311 144 c 0,7,8
 307 161 307 161 290 175 c 1,9,10
 272 161 272 161 256 144 c 1,0,-1
101 -105 m 2,11,12
 93 -105 93 -105 93 -96 c 1,13,14
 93 -99 93 -99 106 -80.5 c 128,-1,15
 119 -62 119 -62 119 -43 c 2,16,-1
 119 345 l 2,17,18
 119 377 119 377 101 419 c 0,19,20
 101 424 101 424 108 426 c 0,21,22
 135 435 135 435 161 444 c 0,23,24
 193 455 193 455 211 469 c 0,25,26
 222 480 222 480 247 496 c 1,27,28
 256 496 256 496 256 488 c 2,29,-1
 256 309 l 1,30,31
 319 361 319 361 319 413 c 0,32,33
 319 459 319 459 290.5 491 c 128,-1,34
 262 523 262 523 218 523 c 0,35,36
 175 523 175 523 134 492 c 0,37,38
 89 460 89 460 89 419 c 0,39,40
 89 414 89 414 90.5 405 c 128,-1,41
 92 396 92 396 92 391 c 0,42,43
 92 382 92 382 84 382 c 0,44,45
 47 382 47 382 26 408 c 0,46,47
 7 431 7 431 7 469 c 0,48,49
 7 546 7 546 74 603 c 0,50,51
 137 655 137 655 217 655 c 0,52,53
 321 655 321 655 393 591 c 0,54,55
 468 525 468 525 468 423 c 0,56,57
 468 334 468 334 400 265 c 1,58,59
 475 183 475 183 475 78 c 0,60,61
 475 7 475 7 441 -45 c 0,62,63
 401 -105 401 -105 333 -105 c 2,64,-1
 101 -105 l 2,11,12
EndSplineSet
EndChar

StartChar: C
Encoding: 67 67 36
Width: 366
VWidth: 900
GlyphClass: 1
Flags: W
LayerCount: 2
Fore
SplineSet
369 504 m 0,0,1
 369 459 369 459 344 427 c 0,2,3
 315 393 315 393 271 393 c 0,4,5
 245 393 245 393 226 409.5 c 128,-1,6
 207 426 207 426 207 453 c 0,7,8
 207 460 207 460 215 460 c 0,9,10
 218 460 218 460 223.5 456.5 c 128,-1,11
 229 453 229 453 232 453 c 0,12,13
 242 453 242 453 248 463 c 128,-1,14
 254 473 254 473 254 482 c 0,15,16
 254 516 254 516 221 516 c 0,17,18
 179 516 179 516 159 444 c 0,19,20
 146 397 146 397 146 338 c 0,21,22
 146 226 146 226 185 111 c 0,23,24
 228 -15 228 -15 301 -89 c 0,25,26
 319 -105 319 -105 343 -133 c 1,27,28
 338 -146 338 -146 312 -197.5 c 128,-1,29
 286 -249 286 -249 279 -260 c 0,30,31
 275 -265 275 -265 271 -265 c 0,32,33
 194 -235 194 -235 114 -77 c 0,34,35
 47 57 47 57 27 161 c 0,36,37
 14 228 14 228 14 316 c 0,38,39
 14 374 14 374 19 417 c 0,40,41
 28 501 28 501 74 571 c 0,42,43
 128 654 128 654 203 654 c 0,44,45
 271 654 271 654 319 614 c 0,46,47
 369 570 369 570 369 504 c 0,0,1
EndSplineSet
EndChar

StartChar: D
Encoding: 68 68 37
Width: 513
VWidth: 900
GlyphClass: 1
Flags: W
LayerCount: 2
Fore
SplineSet
128 -105 m 2,0,1
 121 -105 121 -105 121 -96 c 1,2,3
 121 -98 121 -98 133.5 -80 c 128,-1,4
 146 -62 146 -62 146 -42 c 2,5,-1
 146 340 l 2,6,7
 146 372 146 372 128 413 c 0,8,9
 128 418 128 418 135 421 c 0,10,11
 161 430 161 430 188 438 c 0,12,13
 220 449 220 449 238 463 c 0,14,15
 250 474 250 474 275 489 c 1,16,17
 283 489 283 489 283 482 c 2,18,-1
 283 29 l 1,19,-1
 305 29 l 2,20,21
 353 29 353 29 353 167 c 0,22,23
 353 181 353 181 354 208 c 0,24,25
 354 235 354 235 354 248 c 0,26,27
 354 358 354 358 335 417 c 0,28,29
 303 515 303 515 218 515 c 0,30,31
 181 515 181 515 141 485 c 0,32,33
 99 454 99 454 99 418 c 0,34,35
 99 410 99 410 105 398 c 128,-1,36
 111 386 111 386 111 384 c 0,37,38
 111 372 111 372 83 372 c 0,39,40
 49 372 49 372 33 408 c 0,41,42
 21 435 21 435 21 472 c 0,43,44
 21 551 21 551 86 604 c 0,45,46
 148 653 148 653 228 653 c 0,47,48
 346 653 346 653 418 560 c 0,49,50
 481 478 481 478 492 354 c 0,51,52
 497 306 497 306 497 228 c 0,53,54
 497 97 497 97 462 -7 c 0,55,56
 430 -105 430 -105 339 -105 c 0,57,58
 333 -105 333 -105 317 -105 c 0,59,60
 302 -105 302 -105 295 -105 c 2,61,-1
 128 -105 l 2,0,1
EndSplineSet
EndChar

StartChar: E
Encoding: 69 69 38
Width: 361
VWidth: 900
GlyphClass: 1
Flags: W
LayerCount: 2
Fore
SplineSet
361 493 m 0,0,1
 361 447 361 447 337 417 c 0,2,3
 312 385 312 385 268 385 c 0,4,5
 241 385 241 385 220.5 405.5 c 128,-1,6
 200 426 200 426 200 452 c 0,7,8
 200 460 200 460 207 460 c 0,9,10
 211 460 211 460 215.5 456.5 c 128,-1,11
 220 453 220 453 224 453 c 0,12,13
 233 453 233 453 239 462.5 c 128,-1,14
 245 472 245 472 245 482 c 0,15,16
 245 516 245 516 214 516 c 0,17,18
 192 516 192 516 175 498 c 128,-1,19
 158 480 158 480 158 457 c 0,20,21
 158 419 158 419 172 389 c 0,22,23
 189 352 189 352 220 341 c 0,24,25
 229 337 229 337 239 336 c 0,26,27
 252 331 252 331 252 326 c 2,28,-1
 251 259 l 2,29,30
 251 253 251 253 239 250 c 0,31,32
 229 248 229 248 221 247 c 0,33,34
 193 240 193 240 177.5 216 c 128,-1,35
 162 192 162 192 162 162 c 0,36,37
 162 100 162 100 196 28 c 0,38,39
 225 -36 225 -36 272 -90 c 0,40,41
 289 -106 289 -106 311 -137 c 1,42,43
 304 -157 304 -157 277 -199 c 0,44,45
 257 -229 257 -229 237 -259 c 1,46,-1
 231 -263 l 1,47,-1
 225 -260 l 1,48,49
 145 -185 145 -185 84 -69 c 0,50,51
 15 57 15 57 15 155 c 0,52,53
 15 207 15 207 32 244 c 0,54,55
 48 276 48 276 87 316 c 1,56,57
 44 345 44 345 28 390 c 0,58,59
 15 425 15 425 15 486 c 0,60,61
 15 556 15 556 69.5 605 c 128,-1,62
 124 654 124 654 195 654 c 0,63,64
 263 654 263 654 312 607.5 c 128,-1,65
 361 561 361 561 361 493 c 0,0,1
EndSplineSet
EndChar

StartChar: F
Encoding: 70 70 39
Width: 486
VWidth: 900
GlyphClass: 1
Flags: W
LayerCount: 2
Fore
SplineSet
497 642 m 0,0,1
 497 640 497 640 473.5 561.5 c 128,-1,2
 450 483 450 483 448 480 c 0,3,4
 445 474 445 474 441 474 c 1,5,6
 443 474 443 474 420.5 492 c 128,-1,7
 398 510 398 510 369 510 c 2,8,-1
 220 510 l 2,9,10
 190 510 190 510 167 495 c 0,11,12
 142 478 142 478 142 449 c 0,13,14
 142 430 142 430 149 413 c 0,15,16
 160 393 160 393 178 393 c 0,17,18
 180 393 180 393 184 394 c 128,-1,19
 188 395 188 395 190 395 c 0,20,21
 198 395 198 395 198 387 c 0,22,23
 198 363 198 363 176.5 346 c 128,-1,24
 155 329 155 329 130 329 c 0,25,26
 77 329 77 329 43 373 c 0,27,28
 12 413 12 413 12 467 c 0,29,30
 12 550 12 550 59.5 600 c 128,-1,31
 107 650 107 650 190 650 c 2,32,-1
 490 650 l 2,33,34
 497 650 497 650 497 642 c 0,0,1
394 -140 m 1,35,36
 394 -145 394 -145 368 -158 c 0,37,38
 345 -168 345 -168 286 -226 c 0,39,40
 239 -274 239 -274 201 -274 c 0,41,42
 193 -274 193 -274 193 -267 c 0,43,44
 193 -264 193 -264 200 -256.5 c 128,-1,45
 207 -249 207 -249 217 -216 c 0,46,47
 225 -185 225 -185 225 -170 c 2,48,-1
 225 348 l 2,49,50
 225 370 225 370 221 381 c 0,51,52
 221 385 221 385 214 401 c 128,-1,53
 207 417 207 417 207 419 c 0,54,55
 207 424 207 424 214 426 c 0,56,57
 249 438 249 438 285.5 450 c 128,-1,58
 322 462 322 462 348 492 c 1,59,-1
 355 496 l 2,60,61
 362 496 362 496 362 488 c 2,62,-1
 362 273 l 1,63,64
 390 312 390 312 402 312 c 0,65,66
 476 312 476 312 476 230 c 0,67,68
 476 192 476 192 458 178 c 1,69,70
 445 197 445 197 417 197 c 0,71,72
 386 197 386 197 362 164 c 1,73,-1
 362 -87 l 2,74,75
 362 -105 362 -105 378 -123 c 128,-1,76
 394 -141 394 -141 394 -140 c 1,35,36
EndSplineSet
EndChar

StartChar: G
Encoding: 71 71 40
Width: 421
VWidth: 900
GlyphClass: 1
Flags: W
LayerCount: 2
Fore
SplineSet
428 251 m 1,0,1
 428 251 428 251 415 233 c 128,-1,2
 402 215 402 215 402 196 c 2,3,-1
 402 -3 l 1,4,-1
 400 -8 l 2,5,6
 395 -13 395 -13 388.5 -13.5 c 128,-1,7
 382 -14 382 -14 376 -19 c 0,8,9
 366 -26 366 -26 351 -50 c 0,10,11
 332 -78 332 -78 290 -97 c 0,12,13
 251 -114 251 -114 214 -114 c 0,14,15
 131 -114 131 -114 76 -48 c 0,16,17
 23 15 23 15 23 99 c 2,18,-1
 23 446 l 2,19,20
 23 530 23 530 76 593 c 0,21,22
 131 660 131 660 214 660 c 0,23,24
 283 660 283 660 332 610 c 128,-1,25
 381 560 381 560 381 490 c 0,26,27
 381 447 381 447 358 413 c 0,28,29
 331 376 331 376 290 376 c 0,30,31
 257 376 257 376 231 393 c 0,32,33
 202 413 202 413 202 444 c 0,34,35
 202 453 202 453 211 453 c 0,36,37
 214 453 214 453 222 450 c 128,-1,38
 230 447 230 447 235 447 c 0,39,40
 255 447 255 447 255 478 c 0,41,42
 255 511 255 511 215 511 c 0,43,44
 169 511 169 511 169 417 c 2,45,-1
 169 103 l 2,46,47
 169 82 169 82 182.5 63.5 c 128,-1,48
 196 45 196 45 216 45 c 0,49,50
 253 45 253 45 263 93 c 0,51,52
 265 109 265 109 265 168 c 0,53,54
 265 187 265 187 265 196 c 0,55,56
 263 216 263 216 248 233 c 128,-1,57
 233 250 233 250 233 251 c 0,58,59
 233 258 233 258 241 258 c 2,60,-1
 420 258 l 2,61,62
 428 258 428 258 428 251 c 1,0,1
EndSplineSet
EndChar

StartChar: H
Encoding: 72 72 41
Width: 469
VWidth: 900
GlyphClass: 1
Flags: W
LayerCount: 2
Fore
SplineSet
224 -113 m 2,0,1
 224 -119 224 -119 198 -131 c 0,2,3
 162 -146 162 -146 134 -165 c 0,4,5
 128 -168 128 -168 79 -210 c 0,6,7
 34 -247 34 -247 31 -247 c 0,8,9
 23 -247 23 -247 23 -239 c 0,10,11
 23 -236 23 -236 30.5 -229 c 128,-1,12
 38 -222 38 -222 47 -188 c 0,13,14
 55 -158 55 -158 55 -144 c 2,15,-1
 55 485 l 2,16,17
 55 510 55 510 40.5 533.5 c 128,-1,18
 26 557 26 557 26 553 c 1,19,20
 26 557 26 557 32 561 c 0,21,22
 99 587 99 587 140 627 c 0,23,24
 150 640 150 640 161 651 c 0,25,26
 175 665 175 665 185 670 c 0,27,28
 193 670 193 670 193 662 c 2,29,-1
 193 341 l 1,30,-1
 266 341 l 1,31,-1
 266 534 l 2,32,33
 266 660 266 660 369 660 c 0,34,35
 409 660 409 660 438 637 c 0,36,37
 470 612 470 612 470 572 c 0,38,39
 470 522 470 522 455 522 c 0,40,41
 454 522 454 522 446.5 527 c 128,-1,42
 439 532 439 532 434 532 c 0,43,44
 420 532 420 532 412 520.5 c 128,-1,45
 404 509 404 509 404 496 c 2,46,-1
 404 -43 l 2,47,48
 404 -62 404 -62 420 -80 c 128,-1,49
 436 -98 436 -98 436 -98 c 1,50,51
 436 -105 436 -105 427 -105 c 2,52,-1
 248 -105 l 2,53,54
 240 -105 240 -105 240 -98 c 1,55,56
 240 -99 240 -99 253 -80 c 128,-1,57
 266 -61 266 -61 266 -43 c 2,58,-1
 266 198 l 1,59,-1
 193 198 l 1,60,-1
 193 -59 l 2,61,62
 193 -78 193 -78 208.5 -95.5 c 128,-1,63
 224 -113 224 -113 224 -113 c 2,0,1
EndSplineSet
EndChar

StartChar: I
Encoding: 73 73 42
Width: 238
VWidth: 900
GlyphClass: 1
Flags: W
LayerCount: 2
Fore
SplineSet
228 -113 m 1,0,1
 228 -119 228 -119 202 -131 c 0,2,3
 166 -146 166 -146 138 -165 c 0,4,5
 131 -168 131 -168 83 -210 c 0,6,7
 38 -247 38 -247 35 -247 c 0,8,9
 27 -247 27 -247 27 -239 c 0,10,11
 27 -236 27 -236 34 -229 c 128,-1,12
 41 -222 41 -222 50 -188 c 0,13,14
 59 -158 59 -158 59 -144 c 2,15,-1
 59 485 l 2,16,17
 59 510 59 510 44.5 533.5 c 128,-1,18
 30 557 30 557 30 553 c 1,19,20
 30 557 30 557 36 561 c 0,21,22
 103 587 103 587 144 627 c 0,23,24
 155 640 155 640 165 651 c 0,25,26
 178 665 178 665 189 670 c 0,27,28
 196 670 196 670 196 662 c 2,29,-1
 196 -59 l 2,30,31
 196 -78 196 -78 212 -95.5 c 128,-1,32
 228 -113 228 -113 228 -113 c 1,0,1
EndSplineSet
EndChar

StartChar: J
Encoding: 74 74 43
Width: 455
VWidth: 900
GlyphClass: 1
Flags: W
LayerCount: 2
Fore
SplineSet
501 642 m 0,0,1
 475 568 475 568 444 488 c 0,2,3
 441 484 441 484 437 482 c 0,4,5
 436 482 436 482 414 498 c 0,6,7
 394 510 394 510 368 510 c 2,8,-1
 255 510 l 2,9,10
 185 510 185 510 185 476 c 0,11,12
 185 449 185 449 206 449 c 0,13,14
 214 449 214 449 218 455 c 128,-1,15
 222 461 222 461 226 461 c 0,16,17
 235 461 235 461 239 447 c 0,18,19
 243 436 243 436 243 426 c 0,20,21
 243 393 243 393 221.5 369 c 128,-1,22
 200 345 200 345 167 345 c 0,23,24
 117 345 117 345 81 387 c 0,25,26
 46 426 46 426 46 478 c 0,27,28
 46 561 46 561 92.5 605.5 c 128,-1,29
 139 650 139 650 221 650 c 2,30,-1
 493 650 l 2,31,32
 501 650 501 650 501 642 c 0,0,1
419 -84 m 2,33,34
 419 -169 419 -169 359 -220 c 0,35,36
 302 -267 302 -267 216 -267 c 0,37,38
 141 -267 141 -267 81 -224 c 0,39,40
 16 -177 16 -177 16 -104 c 0,41,42
 16 -37 16 -37 49 7 c 0,43,44
 85 56 85 56 150 56 c 0,45,46
 186 56 186 56 218 25.5 c 128,-1,47
 250 -5 250 -5 250 -41 c 0,48,49
 250 -51 250 -51 243 -66 c 0,50,51
 235 -84 235 -84 226 -84 c 0,52,53
 223 -84 223 -84 214 -67.5 c 128,-1,54
 205 -51 205 -51 186 -51 c 0,55,56
 170 -51 170 -51 162 -69 c 0,57,58
 155 -81 155 -81 155 -99 c 0,59,60
 155 -120 155 -120 178 -131 c 0,61,62
 196 -141 196 -141 218 -141 c 0,63,64
 242 -141 242 -141 262 -121 c 128,-1,65
 282 -101 282 -101 282 -77 c 2,66,-1
 282 356 l 2,67,68
 282 384 282 384 263 430 c 1,69,70
 265 438 265 438 280 439 c 0,71,72
 369 447 369 447 405 487 c 1,73,-1
 411 489 l 2,74,75
 419 489 419 489 419 482 c 2,76,-1
 419 -84 l 2,33,34
EndSplineSet
EndChar

StartChar: K
Encoding: 75 75 44
Width: 466
VWidth: 900
GlyphClass: 1
Flags: W
LayerCount: 2
Fore
SplineSet
474 567 m 0,0,1
 474 550 474 550 466 526 c 0,2,3
 455 498 455 498 443 498 c 0,4,5
 441 498 441 498 434 507 c 128,-1,6
 427 516 427 516 417 516 c 0,7,8
 395 516 395 516 387 492 c 0,9,10
 383 471 383 471 373 430 c 0,11,12
 355 359 355 359 320 291 c 1,13,-1
 418 -41 l 2,14,15
 422 -55 422 -55 443.5 -76.5 c 128,-1,16
 465 -98 465 -98 465 -98 c 1,17,18
 465 -105 465 -105 458 -105 c 2,19,-1
 250 -105 l 2,20,21
 243 -105 243 -105 243 -98 c 0,22,23
 257 -63 257 -63 257 -37 c 0,24,25
 257 2 257 2 243 57 c 0,26,27
 230 103 230 103 218 150 c 1,28,29
 202 135 202 135 186 121 c 1,30,-1
 186 -51 l 2,31,32
 186 -69 186 -69 202 -87 c 128,-1,33
 218 -105 218 -105 218 -104 c 1,34,35
 218 -109 218 -109 193 -120.5 c 128,-1,36
 168 -132 168 -132 111 -190 c 0,37,38
 63 -238 63 -238 25 -238 c 0,39,40
 18 -238 18 -238 18 -231 c 0,41,42
 18 -228 18 -228 24.5 -220.5 c 128,-1,43
 31 -213 31 -213 40 -181 c 128,-1,44
 49 -149 49 -149 49 -134 c 2,45,-1
 49 493 l 2,46,47
 49 521 49 521 34.5 542.5 c 128,-1,48
 20 564 20 564 20 562 c 1,49,50
 20 566 20 566 27 569 c 0,51,52
 93 596 93 596 135 636 c 0,53,54
 145 648 145 648 156 660 c 0,55,56
 168 674 168 674 179 679 c 0,57,58
 186 679 186 679 186 672 c 2,59,-1
 186 319 l 1,60,61
 209 354 209 354 229 428 c 0,62,63
 243 486 243 486 257 544 c 0,64,65
 270 586 270 586 301 619 c 0,66,67
 337 657 337 657 377 657 c 0,68,69
 416 657 416 657 445 632 c 0,70,71
 474 604 474 604 474 567 c 0,0,1
EndSplineSet
EndChar

StartChar: L
Encoding: 76 76 45
Width: 374
VWidth: 900
GlyphClass: 1
Flags: W
LayerCount: 2
Fore
SplineSet
369 -97 m 0,0,1
 369 -105 369 -105 362 -105 c 2,2,-1
 31 -105 l 2,3,4
 23 -105 23 -105 23 -98 c 1,5,6
 23 -98 23 -98 36 -80 c 128,-1,7
 49 -62 49 -62 49 -43 c 2,8,-1
 49 498 l 2,9,10
 49 561 49 561 103 609 c 128,-1,11
 157 657 157 657 221 657 c 0,12,13
 288 657 288 657 337 616 c 0,14,15
 389 574 389 574 389 508 c 0,16,17
 389 462 389 462 366 430 c 0,18,19
 341 394 341 394 297 394 c 0,20,21
 272 394 272 394 241 412 c 0,22,23
 208 432 208 432 208 456 c 0,24,25
 208 463 208 463 225 463 c 0,26,27
 256 463 256 463 256 493 c 0,28,29
 256 527 256 527 225 527 c 0,30,31
 206 527 206 527 195 510 c 0,32,33
 185 497 185 497 185 477 c 2,34,-1
 186 36 l 1,35,36
 241 35 241 35 239 35 c 1,37,38
 261 35 261 35 277 49 c 0,39,40
 286 57 286 57 297 75 c 0,41,42
 306 89 306 89 310 89 c 256,43,44
 314 89 314 89 317 84 c 0,45,46
 319 82 319 82 344 -7 c 128,-1,47
 369 -96 369 -96 369 -97 c 0,0,1
EndSplineSet
EndChar

StartChar: M
Encoding: 77 77 46
Width: 678
VWidth: 900
GlyphClass: 1
Flags: W
LayerCount: 2
Fore
SplineSet
625 -45 m 0,0,1
 625 -60 625 -60 636.5 -78 c 128,-1,2
 648 -96 648 -96 648 -97 c 0,3,4
 648 -105 648 -105 640 -105 c 2,5,-1
 499 -105 l 2,6,7
 487 -105 487 -105 487 -75 c 256,8,9
 487 -45 487 -45 509 60 c 0,10,11
 528 152 528 152 528 262 c 0,12,13
 528 381 528 381 467 453 c 0,14,15
 402 529 402 529 284 529 c 0,16,17
 167 529 167 529 121 444 c 0,18,19
 106 420 106 420 106 403 c 0,20,21
 106 395 106 395 112 380.5 c 128,-1,22
 118 366 118 366 118 359 c 0,23,24
 118 348 118 348 97 348 c 0,25,26
 58 348 58 348 35 384 c 0,27,28
 15 416 15 416 15 456 c 0,29,30
 15 489 15 489 36 530 c 0,31,32
 103 661 103 661 283 661 c 0,33,34
 468 661 468 661 571 543 c 0,35,36
 667 431 667 431 667 242 c 0,37,38
 667 113 667 113 633 -9 c 0,39,40
 625 -37 625 -37 625 -45 c 0,0,1
470 -97 m 1,41,42
 470 -105 470 -105 463 -105 c 2,43,-1
 311 -105 l 2,44,45
 301 -105 301 -105 301 -97 c 1,46,47
 326 -78 326 -78 326 -48 c 2,48,-1
 326 309 l 2,49,50
 326 323 326 323 318 347 c 128,-1,51
 310 371 310 371 310 377 c 0,52,53
 310 381 310 381 316 384 c 0,54,55
 362 403 362 403 376 411 c 0,56,57
 407 427 407 427 429 451 c 1,58,-1
 435 453 l 2,59,60
 443 453 443 453 443 445 c 2,61,-1
 444 -48 l 2,62,63
 444 -64 444 -64 457 -81 c 128,-1,64
 470 -98 470 -98 470 -97 c 1,41,42
293 -147 m 1,65,66
 293 -152 293 -152 270.5 -165 c 128,-1,67
 248 -178 248 -178 223 -197 c 0,68,69
 175 -238 175 -238 123 -279 c 0,70,71
 122 -279 122 -279 121 -280 c 0,72,73
 113 -280 113 -280 113 -272 c 0,74,75
 113 -269 113 -269 119.5 -262.5 c 128,-1,76
 126 -256 126 -256 135 -223.5 c 128,-1,77
 144 -191 144 -191 144 -177 c 2,78,-1
 144 334 l 2,79,80
 144 355 144 355 141 368 c 0,81,82
 139 371 139 371 132.5 387 c 128,-1,83
 126 403 126 403 126 405 c 0,84,85
 126 409 126 409 132 413 c 0,86,87
 179 433 179 433 202 447 c 0,88,89
 231 466 231 466 259 498 c 1,90,-1
 265 501 l 1,91,92
 274 501 274 501 274 493 c 2,93,-1
 274 -101 l 2,94,95
 274 -119 274 -119 283.5 -134.5 c 128,-1,96
 293 -150 293 -150 293 -147 c 1,65,66
EndSplineSet
EndChar

StartChar: N
Encoding: 78 78 47
Width: 519
VWidth: 900
GlyphClass: 1
Flags: W
LayerCount: 2
Fore
SplineSet
521 21 m 0,0,1
 521 20 521 20 501.5 -37.5 c 128,-1,2
 482 -95 482 -95 479.5 -100 c 128,-1,3
 477 -105 477 -105 472 -105 c 2,4,-1
 301 -105 l 2,5,6
 290 -105 290 -105 290 -98 c 0,7,8
 290 -80 290 -80 301 -34 c 0,9,10
 316 32 316 32 316 33 c 0,11,12
 342 174 342 174 342 271 c 0,13,14
 342 523 342 523 184 523 c 0,15,16
 139 523 139 523 103 500 c 0,17,18
 59 474 59 474 59 434 c 0,19,20
 59 421 59 421 68 400.5 c 128,-1,21
 77 380 77 380 77 377 c 0,22,23
 77 370 77 370 63 370 c 0,24,25
 23 370 23 370 2 408 c 0,26,27
 -14 439 -14 439 -14 482 c 0,28,29
 -14 568 -14 568 54 617 c 0,30,31
 115 661 115 661 203 661 c 0,32,33
 346 661 346 661 423 550 c 0,34,35
 491 453 491 453 491 304 c 0,36,37
 491 240 491 240 476 161 c 0,38,39
 471 134 471 134 445 20 c 1,40,-1
 512 30 l 2,41,42
 521 31 521 31 521 21 c 0,0,1
268 -98 m 1,43,44
 268 -105 268 -105 261 -105 c 2,45,-1
 95 -105 l 2,46,47
 88 -105 88 -105 88 -98 c 1,48,49
 88 -98 88 -98 100.5 -80.5 c 128,-1,50
 113 -63 113 -63 113 -43 c 2,51,-1
 113 345 l 2,52,53
 113 370 113 370 94 419 c 0,54,55
 94 424 94 424 101 426 c 0,56,57
 128 435 128 435 156 445 c 0,58,59
 186 456 186 456 207 471 c 0,60,61
 218 480 218 480 241 496 c 0,62,63
 248 496 248 496 248 488 c 2,64,-1
 247 33 l 2,65,66
 247 -33 247 -33 248.5 -49.5 c 128,-1,67
 250 -66 250 -66 259 -83 c 128,-1,68
 268 -100 268 -100 268 -98 c 1,43,44
EndSplineSet
EndChar

StartChar: O
Encoding: 79 79 48
Width: 430
VWidth: 900
GlyphClass: 1
Flags: W
LayerCount: 2
Fore
SplineSet
407 102 m 2,0,1
 407 18 407 18 354 -44 c 0,2,3
 298 -111 298 -111 216 -111 c 0,4,5
 133 -111 133 -111 77 -44 c 0,6,7
 25 18 25 18 25 102 c 2,8,-1
 25 283 l 2,9,10
 25 354 25 354 49 397 c 0,11,12
 81 451 81 451 146 451 c 0,13,14
 190 451 190 451 214 417 c 0,15,16
 236 387 236 387 236 341 c 0,17,18
 236 330 236 330 228 330 c 0,19,20
 225 330 225 330 215 337.5 c 128,-1,21
 205 345 205 345 196 345 c 0,22,23
 184 345 184 345 175 332 c 128,-1,24
 166 319 166 319 166 305 c 2,25,-1
 166 107 l 2,26,27
 166 85 166 85 178 67 c 0,28,29
 193 48 193 48 214 48 c 0,30,31
 234 48 234 48 247 67 c 0,32,33
 261 85 261 85 261 107 c 2,34,-1
 261 403 l 2,35,36
 261 520 261 520 182 520 c 0,37,38
 169 520 169 520 157 513 c 128,-1,39
 145 506 145 506 145 495 c 0,40,41
 145 491 145 491 146 485 c 128,-1,42
 147 479 147 479 147 476 c 0,43,44
 147 469 147 469 139 469 c 0,45,46
 115 469 115 469 97.5 491 c 128,-1,47
 80 513 80 513 80 535 c 0,48,49
 80 594 80 594 120 629 c 0,50,51
 157 662 157 662 216 662 c 0,52,53
 298 662 298 662 354 597 c 0,54,55
 407 534 407 534 407 449 c 2,56,-1
 407 102 l 2,0,1
EndSplineSet
EndChar

StartChar: P
Encoding: 80 80 49
Width: 473
VWidth: 900
GlyphClass: 1
Flags: W
LayerCount: 2
Fore
SplineSet
304 -117 m 1,0,1
 304 -123 304 -123 277 -135 c 0,2,3
 254 -146 254 -146 196 -204 c 0,4,5
 149 -252 149 -252 111 -252 c 0,6,7
 103 -252 103 -252 103 -244 c 0,8,9
 103 -242 103 -242 110 -233 c 128,-1,10
 117 -224 117 -224 126 -193.5 c 128,-1,11
 135 -163 135 -163 135 -149 c 2,12,-1
 135 348 l 2,13,14
 135 372 135 372 131 384 c 0,15,16
 130 387 130 387 123 402 c 0,17,18
 117 417 117 417 117 419 c 0,19,20
 117 424 117 424 123 426 c 0,21,22
 159 438 159 438 195.5 450 c 128,-1,23
 232 462 232 462 258 492 c 1,24,-1
 265 496 l 2,25,26
 272 496 272 496 272 488 c 2,27,-1
 272 255 l 1,28,29
 301 283 301 283 320.5 327.5 c 128,-1,30
 340 372 340 372 340 411 c 0,31,32
 340 457 340 457 303 492 c 128,-1,33
 266 527 266 527 220 527 c 0,34,35
 176 527 176 527 139 501 c 0,36,37
 99 472 99 472 99 430 c 0,38,39
 99 420 99 420 106.5 401 c 128,-1,40
 114 382 114 382 114 378 c 0,41,42
 114 371 114 371 107 371 c 0,43,44
 61 371 61 371 37 397 c 128,-1,45
 13 423 13 423 13 470 c 0,46,47
 13 551 13 551 81 607 c 0,48,49
 146 661 146 661 229 661 c 0,50,51
 326 661 326 661 399.5 591.5 c 128,-1,52
 473 522 473 522 473 426 c 0,53,54
 473 315 473 315 416 226 c 0,55,56
 373 160 373 160 272 75 c 1,57,-1
 272 -64 l 2,58,59
 272 -84 272 -84 288 -101.5 c 128,-1,60
 304 -119 304 -119 304 -117 c 1,0,1
EndSplineSet
EndChar

StartChar: Q
Encoding: 81 81 50
Width: 420
VWidth: 900
GlyphClass: 1
Flags: W
LayerCount: 2
Fore
SplineSet
404 107 m 2,0,1
 404 45 404 45 373 -8 c 0,2,3
 342 -63 342 -63 289 -89 c 1,4,-1
 289 -118 l 2,5,6
 289 -146 289 -146 306 -146 c 0,7,8
 321 -146 321 -146 323.5 -127 c 128,-1,9
 326 -108 326 -108 333 -108 c 0,10,11
 348 -108 348 -108 359 -134 c 0,12,13
 368 -156 368 -156 368 -176 c 0,14,15
 368 -213 368 -213 339 -239.5 c 128,-1,16
 310 -266 310 -266 272 -266 c 256,17,18
 234 -266 234 -266 205 -239.5 c 128,-1,19
 176 -213 176 -213 176 -176 c 2,20,-1
 176 -103 l 1,21,22
 107 -87 107 -87 63 -26 c 0,23,24
 22 33 22 33 22 107 c 2,25,-1
 22 288 l 2,26,27
 22 359 22 359 47 401 c 0,28,29
 77 455 77 455 143 455 c 0,30,31
 187 455 187 455 211 421 c 0,32,33
 232 391 232 391 232 345 c 0,34,35
 232 335 232 335 225 335 c 0,36,37
 222 335 222 335 212 342.5 c 128,-1,38
 202 350 202 350 193 350 c 0,39,40
 181 350 181 350 172 336.5 c 128,-1,41
 163 323 163 323 163 309 c 2,42,-1
 163 111 l 2,43,44
 163 90 163 90 175 72 c 0,45,46
 191 52 191 52 211 52 c 256,47,48
 231 52 231 52 246 72 c 0,49,50
 257 90 257 90 257 111 c 2,51,-1
 257 408 l 2,52,53
 257 525 257 525 178 525 c 0,54,55
 166 525 166 525 154 517.5 c 128,-1,56
 142 510 142 510 142 499 c 0,57,58
 142 496 142 496 143.5 489.5 c 128,-1,59
 145 483 145 483 145 480 c 0,60,61
 145 473 145 473 135 473 c 0,62,63
 112 473 112 473 94.5 495 c 128,-1,64
 77 517 77 517 77 540 c 0,65,66
 77 598 77 598 117 633 c 0,67,68
 154 667 154 667 213 667 c 0,69,70
 295 667 295 667 351 600 c 0,71,72
 404 538 404 538 404 453 c 2,73,-1
 404 107 l 2,0,1
EndSplineSet
EndChar

StartChar: R
Encoding: 82 82 51
Width: 503
VWidth: 900
GlyphClass: 1
Flags: W
LayerCount: 2
Fore
SplineSet
305 -117 m 1,0,1
 305 -123 305 -123 279 -135 c 0,2,3
 265 -141 265 -141 113 -252 c 1,4,5
 105 -252 105 -252 105 -244 c 0,6,7
 105 -242 105 -242 112.5 -234 c 128,-1,8
 120 -226 120 -226 128 -194 c 0,9,10
 137 -163 137 -163 137 -149 c 2,11,-1
 137 348 l 2,12,13
 137 370 137 370 133 381 c 0,14,15
 132 385 132 385 125 401 c 128,-1,16
 118 417 118 417 118 419 c 0,17,18
 118 424 118 424 125 426 c 0,19,20
 161 438 161 438 197 450 c 128,-1,21
 233 462 233 462 260 492 c 1,22,-1
 266 496 l 1,23,24
 274 496 274 496 274 488 c 2,25,-1
 274 276 l 1,26,27
 308 291 308 291 326 330 c 0,28,29
 342 366 342 366 342 406 c 0,30,31
 342 450 342 450 309 483 c 128,-1,32
 276 516 276 516 232 516 c 0,33,34
 185 516 185 516 146 492 c 0,35,36
 101 465 101 465 101 420 c 0,37,38
 101 409 101 409 109 389.5 c 128,-1,39
 117 370 117 370 117 368 c 0,40,41
 117 361 117 361 102 355 c 0,42,43
 89 352 89 352 79 352 c 0,44,45
 42 352 42 352 27 397 c 0,46,47
 15 427 15 427 15 471 c 0,48,49
 15 553 15 553 84 608 c 0,50,51
 148 661 148 661 231 661 c 0,52,53
 332 661 332 661 405.5 593 c 128,-1,54
 479 525 479 525 479 426 c 0,55,56
 479 359 479 359 427 281 c 1,57,-1
 474 -42 l 2,58,59
 477 -61 477 -61 495 -79 c 128,-1,60
 513 -97 513 -97 513 -97 c 1,61,62
 513 -105 513 -105 506 -105 c 2,63,-1
 332 -105 l 2,64,65
 324 -105 324 -105 324 -98 c 0,66,67
 324 -96 324 -96 329 -90 c 0,68,69
 337 -80 337 -80 337 -48 c 0,70,71
 337 -40 337 -40 337 -32 c 2,72,-1
 311 156 l 1,73,74
 290 139 290 139 274 129 c 1,75,-1
 274 -64 l 2,76,77
 274 -84 274 -84 289.5 -101 c 128,-1,78
 305 -118 305 -118 305 -117 c 1,0,1
EndSplineSet
EndChar

StartChar: S
Encoding: 83 83 52
Width: 450
VWidth: 900
GlyphClass: 1
Flags: W
LayerCount: 2
Fore
SplineSet
439 110 m 0,0,1
 439 14 439 14 375.5 -51 c 128,-1,2
 312 -116 312 -116 218 -116 c 0,3,4
 122 -116 122 -116 76 -70 c 0,5,6
 52 -47 52 -47 36 -10.5 c 128,-1,7
 20 26 20 26 20 58 c 0,8,9
 20 121 20 121 52 165 c 0,10,11
 88 215 88 215 149 215 c 0,12,13
 192 215 192 215 221 191 c 0,14,15
 255 165 255 165 255 122 c 0,16,17
 255 104 255 104 241 84 c 0,18,19
 227 62 227 62 211 62 c 0,20,21
 202 62 202 62 202 78 c 0,22,23
 202 112 202 112 174 112 c 0,24,25
 138 112 138 112 138 68 c 0,26,27
 138 46 138 46 162 28 c 128,-1,28
 186 10 186 10 211 10 c 0,29,30
 248 10 248 10 275.5 35 c 128,-1,31
 303 60 303 60 303 98 c 0,32,33
 303 210 303 210 165 281 c 0,34,35
 103 312 103 312 65 355 c 0,36,37
 17 408 17 408 17 467 c 0,38,39
 17 557 17 557 63 607.5 c 128,-1,40
 109 658 109 658 198 658 c 0,41,42
 217 658 217 658 255 654.5 c 128,-1,43
 293 651 293 651 313 651 c 0,44,45
 326 651 326 651 349.5 655.5 c 128,-1,46
 373 660 373 660 385 660 c 0,47,48
 392 660 392 660 392 652 c 0,49,50
 392 632 392 632 373.5 578.5 c 128,-1,51
 355 525 355 525 355 496 c 0,52,53
 355 488 355 488 347 488 c 0,54,55
 337 488 337 488 302.5 501 c 128,-1,56
 268 514 268 514 248 514 c 0,57,58
 171 514 171 514 171 472 c 0,59,60
 171 448 171 448 203 424 c 0,61,62
 213 417 213 417 257 391 c 0,63,64
 350 339 350 339 387 281 c 0,65,66
 439 201 439 201 439 110 c 0,0,1
EndSplineSet
EndChar

StartChar: T
Encoding: 84 84 53
Width: 488
VWidth: 900
GlyphClass: 1
Flags: W
LayerCount: 2
Fore
SplineSet
485 642 m 0,0,1
 445 527 445 527 441 521.5 c 128,-1,2
 437 516 437 516 434 516 c 2,3,-1
 152 516 l 2,4,5
 135 516 135 516 103.5 504.5 c 128,-1,6
 72 493 72 493 60 493 c 0,7,8
 52 493 52 493 52 503 c 0,9,10
 74 564 74 564 107 644 c 0,11,12
 110 650 110 650 114 650 c 2,13,-1
 477 650 l 2,14,15
 485 650 485 650 485 642 c 0,0,1
382 136 m 0,16,17
 382 131 382 131 375 129 c 0,18,19
 352 118 352 118 329 108 c 0,20,21
 304 96 304 96 287 83 c 0,22,23
 277 74 277 74 255 59 c 1,24,25
 247 59 247 59 247 75 c 0,26,27
 247 114 247 114 247.5 190.5 c 128,-1,28
 248 267 248 267 248 305 c 0,29,30
 248 371 248 371 232 410 c 0,31,32
 232 415 232 415 239 417 c 0,33,34
 279 435 279 435 283 438 c 0,35,36
 307 449 307 449 324 462 c 0,37,38
 334 472 334 472 357 487 c 1,39,40
 365 486 365 486 365 479 c 2,41,-1
 364 325 l 2,42,43
 364 218 364 218 364 229 c 1,44,45
 366 172 366 172 382 136 c 0,16,17
488 39 m 0,46,47
 488 7 488 7 470 -28 c 0,48,49
 418 -124 418 -124 281 -124 c 0,50,51
 158 -124 158 -124 87 -37 c 0,52,53
 22 45 22 45 22 171 c 0,54,55
 22 268 22 268 38 332 c 0,56,57
 58 408 58 408 110 477 c 0,58,59
 113 481 113 481 122 487 c 0,60,61
 131 489 131 489 153 489 c 0,62,63
 234 489 234 489 234 478 c 0,64,65
 233 477 233 477 232 474 c 0,66,67
 211 412 211 412 187 349 c 0,68,69
 164 278 164 278 164 219 c 0,70,71
 164 138 164 138 189 80 c 0,72,73
 222 3 222 3 293 3 c 0,74,75
 334 3 334 3 366 21 c 0,76,77
 405 44 405 44 405 82 c 0,78,79
 405 93 405 93 397 112 c 128,-1,80
 389 131 389 131 389 135 c 0,81,82
 389 143 389 143 405 143 c 0,83,84
 443 143 443 143 466 109 c 0,85,86
 488 78 488 78 488 39 c 0,46,47
219 481 m 1,87,-1
 218 478 l 1,88,-1
 218 478 l 1,89,-1
 219 481 l 1,87,-1
226 471 m 1,90,-1
 222 471 l 1,91,-1
 221 471 l 1,92,-1
 226 471 l 1,90,-1
405 135 m 1,93,-1
 404 138 l 1,94,95
 404 138 404 138 405 135 c 1,96,-1
 405 135 l 1,93,-1
400 128 m 1,97,-1
 400 128 l 1,98,99
 400 128 400 128 398 127 c 1,100,-1
 400 128 l 1,97,-1
EndSplineSet
EndChar

StartChar: U
Encoding: 85 85 54
Width: 524
VWidth: 900
GlyphClass: 1
Flags: W
LayerCount: 2
Fore
SplineSet
427 641 m 1,0,1
 427 643 427 643 414 625 c 128,-1,2
 401 607 401 607 401 588 c 2,3,-1
 401 200 l 2,4,5
 401 165 401 165 412 130 c 0,6,7
 413 129 413 129 414 125 c 0,8,9
 414 120 414 120 408 118 c 0,10,11
 351 97 351 97 339 93 c 0,12,13
 305 76 305 76 279 51 c 1,14,-1
 273 49 l 2,15,16
 265 49 265 49 265 57 c 2,17,-1
 265 588 l 2,18,19
 265 624 265 624 250 634 c 0,20,21
 244 639 244 639 244 641 c 0,22,23
 244 650 244 650 253 650 c 2,24,-1
 419 650 l 2,25,26
 427 650 427 650 427 641 c 1,0,1
522 46 m 0,27,28
 522 12 522 12 501 -24 c 0,29,30
 442 -124 442 -124 301 -124 c 0,31,32
 158 -124 158 -124 85 -12 c 0,33,34
 22 84 22 84 22 236 c 0,35,36
 22 337 22 337 56 475 c 0,37,38
 74 546 74 546 74 575 c 0,39,40
 74 606 74 606 50 642 c 1,41,42
 50 650 50 650 58 650 c 2,43,-1
 224 650 l 2,44,45
 232 650 232 650 232 642 c 0,46,47
 232 604 232 604 199.5 453 c 128,-1,48
 167 302 167 302 167 224 c 0,49,50
 167 143 167 143 200 83 c 0,51,52
 239 8 239 8 314 8 c 0,53,54
 364 8 364 8 399 35 c 0,55,56
 437 64 437 64 437 111 c 0,57,58
 437 118 437 118 435.5 130.5 c 128,-1,59
 434 143 434 143 434 150 c 0,60,61
 434 158 434 158 448 158 c 0,62,63
 487 158 487 158 507 120 c 0,64,65
 522 89 522 89 522 46 c 0,27,28
EndSplineSet
EndChar

StartChar: V
Encoding: 86 86 55
Width: 454
VWidth: 900
GlyphClass: 1
Flags: W
LayerCount: 2
Fore
SplineSet
436 417 m 0,0,1
 436 162 436 162 301 -44 c 0,2,3
 257 -109 257 -109 238 -116 c 1,4,-1
 233 -114 l 1,5,6
 56 75 56 75 56 382 c 0,7,8
 56 455 56 455 65 514 c 1,9,10
 58 516 58 516 52 516 c 0,11,12
 35 516 35 516 17.5 505.5 c 128,-1,13
 0 495 0 495 1 495 c 1,14,15
 -7 495 -7 495 -7 502 c 0,16,17
 -7 505 -7 505 22 600 c 2,18,-1
 34 644 l 1,19,20
 43 651 43 651 97 651 c 0,21,22
 115 651 115 651 151 650.5 c 128,-1,23
 187 650 187 650 205 650 c 0,24,25
 210 650 210 650 210 643 c 0,26,27
 210 642 210 642 207 634 c 0,28,29
 191 568 191 568 191 435 c 0,30,31
 191 269 191 269 240 138 c 1,32,33
 273 192 273 192 291 276 c 0,34,35
 306 348 306 348 306 422 c 0,36,37
 306 525 306 525 275 525 c 0,38,39
 267 525 267 525 257.5 512 c 128,-1,40
 248 499 248 499 245 499 c 0,41,42
 229 499 229 499 220 519 c 0,43,44
 211 535 211 535 211 552 c 0,45,46
 211 597 211 597 232 626 c 0,47,48
 257 660 257 660 301 660 c 0,49,50
 337 660 337 660 373 625 c 0,51,52
 436 563 436 563 436 417 c 0,0,1
EndSplineSet
EndChar

StartChar: W
Encoding: 87 87 56
Width: 639
VWidth: 900
GlyphClass: 1
Flags: W
LayerCount: 2
Fore
SplineSet
632 645 m 0,0,1
 593 530 593 530 590 525 c 128,-1,2
 587 520 587 520 582 520 c 2,3,-1
 153 519 l 2,4,5
 137 519 137 519 105.5 508.5 c 128,-1,6
 74 498 74 498 62 498 c 0,7,8
 54 498 54 498 54 507 c 0,9,10
 103 642 103 642 106.5 647.5 c 128,-1,11
 110 653 110 653 113 653 c 2,12,-1
 625 653 l 2,13,14
 632 653 632 653 632 645 c 0,0,1
535 147 m 0,15,16
 535 142 535 142 529 139 c 0,17,18
 503 128 503 128 478.5 116 c 128,-1,19
 454 104 454 104 432 83 c 1,20,-1
 427 81 l 2,21,22
 418 81 418 81 418 89 c 0,23,24
 418 105 418 105 419 138 c 0,25,26
 419 172 419 172 419 188 c 2,27,-1
 419 245 l 2,28,29
 419 384 419 384 403 425 c 0,30,31
 403 429 403 429 409 432 c 0,32,33
 436 444 436 444 462 454 c 1,34,35
 484 467 484 467 507 488 c 1,36,-1
 513 490 l 2,37,38
 520 489 520 489 520 482 c 0,39,40
 520 467 520 467 520 435 c 0,41,42
 520 402 520 402 520 388 c 2,43,-1
 520 329 l 2,44,45
 520 186 520 186 535 147 c 0,15,16
639 49 m 0,46,47
 639 -27 639 -27 582 -72 c 0,48,49
 530 -114 530 -114 452 -114 c 0,50,51
 391 -114 391 -114 342 -89 c 1,52,53
 296 -114 296 -114 232 -114 c 0,54,55
 128 -114 128 -114 64 -29 c 0,56,57
 7 48 7 48 7 156 c 0,58,59
 7 341 7 341 113 481 c 0,60,61
 117 485 117 485 126 490 c 0,62,63
 135 492 135 492 157 492 c 0,64,65
 232 492 232 492 232 481 c 0,66,67
 232 479 232 479 217 456 c 0,68,69
 207 442 207 442 197 428 c 0,70,71
 138 330 138 330 138 223 c 0,72,73
 138 150 138 150 157 97 c 0,74,75
 183 24 183 24 240 14 c 1,76,77
 202 89 202 89 202 190 c 0,78,79
 202 367 202 367 282 480 c 0,80,81
 284 485 284 485 293 490 c 0,82,83
 301 492 301 492 323 492 c 0,84,85
 399 492 399 492 399 481 c 0,86,87
 398 480 398 480 398 478 c 0,88,89
 375 417 375 417 352 356 c 0,90,91
 329 288 329 288 329 229 c 0,92,93
 329 144 329 144 355 89 c 0,94,95
 389 13 389 13 463 13 c 0,96,97
 504 13 504 13 536 44 c 128,-1,98
 568 75 568 75 568 114 c 0,99,100
 568 121 568 121 563 134.5 c 128,-1,101
 558 148 558 148 558 156 c 256,102,103
 558 164 558 164 566 164 c 0,104,105
 602 164 602 164 622 122 c 0,106,107
 639 90 639 90 639 49 c 0,46,47
EndSplineSet
EndChar

StartChar: X
Encoding: 88 88 57
Width: 440
VWidth: 900
GlyphClass: 1
Flags: W
LayerCount: 2
Fore
SplineSet
473 642 m 1,0,1
 473 642 473 642 452 623 c 0,2,3
 428 603 428 603 422 586 c 2,4,-1
 308 300 l 1,5,6
 374 219 374 219 400 137 c 0,7,8
 416 85 416 85 432 -46 c 0,9,10
 434 -64 434 -64 448.5 -82.5 c 128,-1,11
 463 -101 463 -101 463 -102 c 0,12,13
 463 -107 463 -107 454 -107 c 2,14,-1
 279 -107 l 2,15,16
 271 -107 271 -107 271 -102 c 0,17,18
 271 -99 271 -99 286 -82.5 c 128,-1,19
 301 -66 301 -66 301 -46 c 0,20,21
 301 75 301 75 247 140 c 1,22,-1
 178 -33 l 2,23,24
 175 -44 175 -44 175 -55 c 0,25,26
 175 -69 175 -69 185.5 -85 c 128,-1,27
 196 -101 196 -101 196 -100 c 1,28,29
 196 -107 196 -107 188 -107 c 2,30,-1
 1 -107 l 2,31,32
 -7 -107 -7 -107 -7 -99 c 0,33,34
 -7 -96 -7 -96 -2 -92 c 0,35,36
 34 -69 34 -69 44 -43 c 2,37,-1
 160 257 l 1,38,39
 81 384 81 384 81 488 c 0,40,41
 81 501 81 501 83 515 c 1,42,43
 76 516 76 516 68 516 c 0,44,45
 53 516 53 516 33 505.5 c 128,-1,46
 13 495 13 495 13 495 c 2,47,48
 5 495 5 495 5 503 c 0,49,50
 5 506 5 506 48 644 c 0,51,52
 53 651 53 651 115 651 c 0,53,54
 131 651 131 651 163.5 651 c 128,-1,55
 196 651 196 651 212 651 c 0,56,57
 220 651 220 651 220 642 c 0,58,59
 220 638 220 638 217 625 c 0,60,61
 211 610 211 610 211 607 c 0,62,63
 204 576 204 576 204 528 c 0,64,65
 204 478 204 478 227 424 c 1,66,67
 247 472 247 472 265 521 c 0,68,69
 295 596 295 596 295 610 c 0,70,71
 295 621 295 621 288.5 631.5 c 128,-1,72
 282 642 282 642 282 642 c 1,73,74
 282 651 282 651 290 651 c 2,75,-1
 465 651 l 2,76,77
 473 651 473 651 473 642 c 1,0,1
EndSplineSet
EndChar

StartChar: Y
Encoding: 89 89 58
Width: 444
VWidth: 900
GlyphClass: 1
Flags: W
LayerCount: 2
Fore
SplineSet
467 644 m 0,0,1
 467 643 467 643 446.5 621.5 c 128,-1,2
 426 600 426 600 422 587 c 2,3,-1
 348 326 l 2,4,5
 337 287 337 287 324 247 c 0,6,7
 310 199 310 199 310 168 c 0,8,9
 310 160 310 160 310.5 143.5 c 128,-1,10
 311 127 311 127 311 118 c 2,11,-1
 311 -33 l 2,12,13
 311 -59 311 -59 316.5 -70.5 c 128,-1,14
 322 -82 322 -82 342 -102 c 1,15,16
 342 -110 342 -110 334 -110 c 2,17,-1
 157 -110 l 2,18,19
 149 -110 149 -110 149 -102 c 1,20,21
 149 -104 149 -104 164 -86 c 128,-1,22
 179 -68 179 -68 179 -49 c 2,23,-1
 178 229 l 1,24,25
 86 382 86 382 90 516 c 1,26,27
 83 517 83 517 75 517 c 0,28,29
 59 517 59 517 40 506.5 c 128,-1,30
 21 496 21 496 22 496 c 1,31,32
 14 496 14 496 14 502 c 0,33,34
 14 510 14 510 26.5 575 c 128,-1,35
 39 640 39 640 42 645.5 c 128,-1,36
 45 651 45 651 49 651 c 2,37,-1
 207 651 l 2,38,39
 214 651 214 651 214 643 c 1,40,41
 214 647 214 647 211 625 c 0,42,43
 207 611 207 611 207 590 c 0,44,45
 207 483 207 483 244 402 c 1,46,47
 258 453 258 453 273 506 c 0,48,49
 292 579 292 579 292 605 c 0,50,51
 292 627 292 627 275 642 c 1,52,53
 275 651 275 651 283 651 c 2,54,-1
 459 651 l 2,55,56
 467 651 467 651 467 644 c 0,0,1
EndSplineSet
EndChar

StartChar: Z
Encoding: 90 90 59
Width: 425
VWidth: 900
GlyphClass: 1
Flags: W
LayerCount: 2
Fore
SplineSet
352 305 m 0,0,1
 317 204 317 204 313.5 198.5 c 128,-1,2
 310 193 310 193 305 193 c 2,3,-1
 270 193 l 1,4,-1
 211 31 l 1,5,-1
 257 31 l 2,6,7
 278 31 278 31 285 36 c 0,8,9
 296 42 296 42 296 63 c 0,10,11
 296 80 296 80 281.5 81 c 128,-1,12
 267 82 267 82 267 89 c 0,13,14
 267 102 267 102 289 111 c 0,15,16
 305 119 305 119 322 119 c 0,17,18
 364 119 364 119 390 89.5 c 128,-1,19
 416 60 416 60 416 17 c 0,20,21
 416 -41 416 -41 378.5 -73 c 128,-1,22
 341 -105 341 -105 283 -105 c 2,23,-1
 23 -105 l 2,24,25
 16 -105 16 -105 16 -97 c 0,26,27
 16 -91 16 -91 121 193 c 1,28,-1
 83 193 l 2,29,30
 75 193 75 193 75 201 c 0,31,32
 111 301 111 301 114.5 306.5 c 128,-1,33
 118 312 118 312 121 312 c 2,34,-1
 166 312 l 1,35,-1
 244 521 l 1,36,-1
 206 521 l 2,37,38
 165 521 165 521 165 490 c 0,39,40
 165 473 165 473 180 471 c 128,-1,41
 195 469 195 469 195 462 c 0,42,43
 195 449 195 449 170 441 c 0,44,45
 150 435 150 435 133 435 c 0,46,47
 89 435 89 435 61.5 462 c 128,-1,48
 34 489 34 489 34 534 c 0,49,50
 34 591 34 591 76 623 c 0,51,52
 113 651 113 651 174 651 c 2,53,-1
 427 651 l 2,54,55
 435 651 435 651 435 643 c 0,56,57
 435 639 435 639 314 312 c 1,58,-1
 345 312 l 2,59,60
 352 312 352 312 352 305 c 0,0,1
EndSplineSet
EndChar

StartChar: bracketleft
Encoding: 91 91 60
Width: 328
VWidth: 900
GlyphClass: 1
Flags: W
LayerCount: 2
Fore
SplineSet
0 -189 m 2,0,-1
 0 690 l 2,1,2
 0 697 0 697 7 697 c 2,3,-1
 290 697 l 2,4,5
 300 697 300 697 301 687 c 1,6,-1
 298 680 l 1,7,8
 272 653 272 653 256 589 c 0,9,10
 254 580 254 580 247 580 c 1,11,12
 250 580 250 580 219 588 c 0,13,14
 196 593 196 593 167 593 c 2,15,-1
 131 593 l 1,16,-1
 131 -93 l 1,17,-1
 290 -93 l 2,18,19
 300 -93 300 -93 301 -102 c 1,20,-1
 298 -109 l 1,21,22
 272 -138 272 -138 256 -199 c 0,23,24
 254 -207 254 -207 247 -207 c 0,25,26
 237 -207 237 -207 218.5 -202 c 128,-1,27
 200 -197 200 -197 191 -197 c 2,28,-1
 7 -197 l 2,29,30
 0 -197 0 -197 0 -189 c 2,0,-1
EndSplineSet
EndChar

StartChar: backslash
Encoding: 92 92 61
Width: 365
VWidth: 900
GlyphClass: 1
Flags: W
LayerCount: 2
Fore
SplineSet
-27 633 m 0,0,1
 -27 641 -27 641 -20 641 c 2,2,-1
 38 641 l 2,3,4
 45 641 45 641 82 562 c 0,5,6
 104 514 104 514 126 465 c 0,7,8
 130 456 130 456 270 165 c 0,9,10
 392 -94 392 -94 392 -97 c 0,11,12
 392 -105 392 -105 385 -105 c 2,13,-1
 328 -105 l 2,14,15
 320 -105 320 -105 283 -26 c 0,16,17
 262 22 262 22 239 71 c 0,18,19
 236 80 236 80 96 372 c 0,20,21
 -27 629 -27 629 -27 633 c 0,0,1
EndSplineSet
EndChar

StartChar: bracketright
Encoding: 93 93 62
Width: 328
VWidth: 900
GlyphClass: 1
Flags: W
LayerCount: 2
Fore
SplineSet
301 679 m 2,0,-1
 301 -199 l 2,1,2
 301 -207 301 -207 293 -207 c 2,3,-1
 10 -207 l 2,4,5
 1 -207 1 -207 0 -198 c 2,6,-1
 2 -191 l 1,7,8
 28 -163 28 -163 45 -99 c 0,9,10
 47 -91 47 -91 53 -91 c 1,11,12
 49 -91 49 -91 81 -98 c 0,13,14
 103 -103 103 -103 133 -103 c 2,15,-1
 169 -103 l 1,16,-1
 169 582 l 1,17,-1
 10 582 l 2,18,19
 1 582 1 582 0 592 c 2,20,-1
 2 599 l 1,21,22
 29 627 29 627 45 689 c 0,23,24
 47 697 47 697 53 697 c 0,25,26
 63 697 63 697 81.5 692 c 128,-1,27
 100 687 100 687 110 687 c 2,28,-1
 293 687 l 2,29,30
 301 687 301 687 301 679 c 2,0,-1
EndSplineSet
EndChar

StartChar: asciicircum
Encoding: 94 94 63
Width: 683
VWidth: 900
GlyphClass: 1
Flags: W
LayerCount: 2
Fore
SplineSet
638 -45 m 0,0,1
 638 -60 638 -60 649.5 -78 c 128,-1,2
 661 -96 661 -96 661 -97 c 0,3,4
 661 -105 661 -105 653 -105 c 2,5,-1
 507 -105 l 2,6,7
 494 -105 494 -105 494 -75 c 0,8,9
 494 -44 494 -44 517 60 c 0,10,11
 541 175 541 175 541 262 c 0,12,13
 541 381 541 381 477 453 c 0,14,15
 409 529 409 529 292 529 c 0,16,17
 167 529 167 529 121 444 c 0,18,19
 106 420 106 420 106 403 c 0,20,21
 106 395 106 395 112 380.5 c 128,-1,22
 118 366 118 366 118 359 c 0,23,24
 118 348 118 348 97 348 c 0,25,26
 58 348 58 348 35 384 c 0,27,28
 15 416 15 416 15 456 c 0,29,30
 15 489 15 489 36 530 c 0,31,32
 71 597 71 597 143 632 c 0,33,34
 206 661 206 661 290 661 c 0,35,36
 475 661 475 661 580 543 c 0,37,38
 679 431 679 431 679 242 c 0,39,40
 679 113 679 113 645 -9 c 0,41,42
 638 -37 638 -37 638 -45 c 0,0,1
477 -97 m 1,43,44
 477 -105 477 -105 470 -105 c 2,45,-1
 319 -105 l 2,46,47
 309 -105 309 -105 309 -97 c 1,48,49
 333 -78 333 -78 333 -48 c 2,50,-1
 333 88 l 1,51,52
 321 80 321 80 318 80 c 0,53,54
 310 80 310 80 310 88 c 2,55,-1
 310 183 l 2,56,57
 310 190 310 190 333 202 c 1,58,-1
 333 309 l 2,59,60
 333 323 333 323 325.5 347 c 128,-1,61
 318 371 318 371 318 377 c 0,62,63
 318 381 318 381 324 384 c 0,64,65
 400 413 400 413 436 451 c 1,66,-1
 442 453 l 2,67,68
 450 453 450 453 450 445 c 2,69,-1
 450 275 l 1,70,71
 465 285 465 285 469 285 c 0,72,73
 476 285 476 285 476 277 c 2,74,-1
 476 181 l 2,75,76
 476 175 476 175 450 161 c 1,77,-1
 451 -48 l 2,78,79
 451 -64 451 -64 464 -81 c 128,-1,80
 477 -98 477 -98 477 -97 c 1,43,44
289 -96 m 1,81,82
 289 -102 289 -102 266.5 -115 c 128,-1,83
 244 -128 244 -128 219 -147 c 0,84,85
 171 -187 171 -187 119 -229 c 0,86,87
 118 -229 118 -229 116 -230 c 0,88,89
 109 -230 109 -230 109 -222 c 0,90,91
 109 -219 109 -219 115 -212 c 128,-1,92
 121 -205 121 -205 130 -173 c 128,-1,93
 139 -141 139 -141 139 -127 c 2,94,-1
 139 334 l 2,95,96
 139 355 139 355 137 368 c 0,97,98
 135 371 135 371 128 387 c 128,-1,99
 121 403 121 403 121 405 c 0,100,101
 121 409 121 409 128 413 c 0,102,103
 175 433 175 433 197 447 c 0,104,105
 227 466 227 466 255 498 c 1,106,-1
 261 501 l 2,107,108
 269 501 269 501 269 493 c 2,109,-1
 269 -51 l 2,110,111
 269 -69 269 -69 279 -84 c 128,-1,112
 289 -99 289 -99 289 -96 c 1,81,82
EndSplineSet
EndChar

StartChar: underscore
Encoding: 95 95 64
Width: 384
VWidth: 900
GlyphClass: 1
Flags: W
LayerCount: 2
Fore
SplineSet
356 564 m 1,0,-1
 356 563 l 1,1,2
 356 564 356 564 356 564 c 1,0,-1
393 640 m 1,3,4
 380 623 380 623 368 605.5 c 128,-1,5
 356 588 356 588 356 564 c 2,6,-1
 357 122 l 2,7,8
 357 16 357 16 322 -35 c 0,9,10
 299 -71 299 -71 262 -94 c 0,11,12
 222 -117 222 -117 182 -117 c 0,13,14
 118 -117 118 -117 67.5 -72.5 c 128,-1,15
 17 -28 17 -28 17 35 c 0,16,17
 17 78 17 78 45.5 110.5 c 128,-1,18
 74 143 74 143 117 143 c 0,19,20
 137 143 137 143 165 123 c 128,-1,21
 193 103 193 103 193 84 c 0,22,23
 193 77 193 77 186 77 c 0,24,25
 184 77 184 77 180.5 77.5 c 128,-1,26
 177 78 177 78 175 78 c 0,27,28
 166 78 166 78 156.5 68 c 128,-1,29
 147 58 147 58 147 49 c 0,30,31
 147 11 147 11 178 11 c 0,32,33
 196 11 196 11 208 28.5 c 128,-1,34
 220 46 220 46 220 66 c 2,35,-1
 219 510 l 1,36,-1
 163 510 l 2,37,38
 134 510 134 510 111.5 492 c 128,-1,39
 89 474 89 474 90 474 c 1,40,41
 86 474 86 474 84 480 c 0,42,43
 82 483 82 483 58 561.5 c 128,-1,44
 34 640 34 640 34 642 c 0,45,46
 34 650 34 650 42 650 c 2,47,-1
 385 650 l 2,48,49
 394 650 394 650 393 640 c 1,3,4
EndSplineSet
EndChar

StartChar: grave
Encoding: 96 96 65
Width: 228
VWidth: 900
GlyphClass: 1
Flags: W
LayerCount: 2
Fore
SplineSet
276 399 m 0,0,1
 276 395 276 395 270 395 c 0,2,3
 257 395 257 395 186.5 415 c 128,-1,4
 116 435 116 435 106 442 c 0,5,6
 82 458 82 458 82 485 c 0,7,8
 82 506 82 506 96.5 520.5 c 128,-1,9
 111 535 111 535 131 535 c 0,10,11
 144 535 144 535 157 528 c 0,12,13
 167 522 167 522 221.5 464 c 128,-1,14
 276 406 276 406 276 399 c 0,0,1
EndSplineSet
EndChar

StartChar: a
Encoding: 97 97 66
Width: 335
VWidth: 900
GlyphClass: 1
Flags: W
LayerCount: 2
Fore
SplineSet
195 -76 m 1,0,1
 165 -113 165 -113 119 -113 c 0,2,3
 71 -113 71 -113 40 -84 c 128,-1,4
 9 -55 9 -55 9 -8 c 0,5,6
 9 51 9 51 49 93 c 0,7,8
 76 121 76 121 142 154 c 0,9,10
 165 165 165 165 168 166 c 0,11,12
 184 175 184 175 192 184 c 1,13,-1
 193 234 l 2,14,15
 193 244 193 244 183.5 250 c 128,-1,16
 174 256 174 256 164 256 c 0,17,18
 130 256 130 256 130 233 c 0,19,20
 130 216 130 216 147.5 212 c 128,-1,21
 165 208 165 208 165 202 c 0,22,23
 165 189 165 189 139 175 c 0,24,25
 114 164 114 164 99 164 c 0,26,27
 63 164 63 164 42 192 c 0,28,29
 23 217 23 217 23 254 c 0,30,31
 23 305 23 305 70 337 c 0,32,33
 113 368 113 368 167 368 c 0,34,35
 228 368 228 368 272 334 c 0,36,37
 319 298 319 298 319 238 c 2,38,-1
 320 -16 l 2,39,40
 320 -41 320 -41 328 -60 c 0,41,42
 333 -74 333 -74 344 -87 c 0,43,44
 351 -97 351 -97 351 -98 c 0,45,46
 351 -105 351 -105 344 -105 c 2,47,-1
 208 -105 l 2,48,49
 200 -105 200 -105 195 -76 c 1,0,1
192 69 m 1,50,51
 164 57 164 57 156 49 c 0,52,53
 137 35 137 35 137 15 c 0,54,55
 137 -2 137 -2 157 -2 c 0,56,57
 175 -2 175 -2 183 17 c 0,58,59
 187 32 187 32 192 48 c 1,60,-1
 192 69 l 1,50,51
EndSplineSet
EndChar

StartChar: b
Encoding: 98 98 67
Width: 350
VWidth: 900
GlyphClass: 1
Flags: W
LayerCount: 2
Fore
SplineSet
157 235 m 1,0,-1
 157 47 l 1,1,2
 172 24 172 24 188 24 c 0,3,4
 208 24 208 24 208 71 c 0,5,6
 208 76 208 76 208 86 c 0,7,8
 207 96 207 96 207 102 c 2,9,-1
 207 174 l 2,10,11
 207 218 207 218 207 220 c 0,12,13
 204 255 204 255 188 255 c 0,14,15
 173 255 173 255 157 235 c 1,0,-1
157 334 m 1,16,17
 203 369 203 369 245 369 c 0,18,19
 301 369 301 369 325 325 c 0,20,21
 341 291 341 291 341 229 c 2,22,-1
 341 24 l 2,23,24
 341 -26 341 -26 308 -68 c 0,25,26
 272 -112 272 -112 221 -112 c 0,27,28
 189 -112 189 -112 157 -91 c 0,29,30
 129 -72 129 -72 110 -42 c 1,31,32
 86 -66 86 -66 38 -113 c 1,33,-1
 32 -115 l 2,34,35
 25 -115 25 -115 25 -107 c 2,36,-1
 25 423 l 2,37,38
 25 449 25 449 11 472 c 128,-1,39
 -3 495 -3 495 -3 492 c 1,40,41
 -3 496 -3 496 4 498 c 0,42,43
 38 510 38 510 106 542 c 0,44,45
 147 564 147 564 149 564 c 0,46,47
 157 564 157 564 157 557 c 2,48,-1
 157 334 l 1,16,17
EndSplineSet
EndChar

StartChar: c
Encoding: 99 99 68
Width: 322
VWidth: 900
GlyphClass: 1
Flags: W
LayerCount: 2
Fore
SplineSet
328 13 m 0,0,1
 328 -2 328 -2 323 -18 c 0,2,3
 291 -120 291 -120 174 -120 c 0,4,5
 73 -120 73 -120 34 -40 c 0,6,7
 7 17 7 17 7 130 c 0,8,9
 7 244 7 244 34 300 c 0,10,11
 72 380 72 380 174 380 c 0,12,13
 221 380 221 380 258 359 c 0,14,15
 301 337 301 337 315 294 c 0,16,17
 315 293 315 293 315 291 c 0,18,19
 315 288 315 288 311 284 c 0,20,21
 268 251 268 251 261 245 c 0,22,23
 233 222 233 222 215 200 c 1,24,-1
 209 197 l 2,25,26
 202 196 202 196 201 211 c 0,27,28
 200 233 200 233 197 239 c 0,29,30
 191 255 191 255 171 255 c 0,31,32
 160 255 160 255 151 246 c 128,-1,33
 142 237 142 237 142 226 c 2,34,-1
 142 38 l 2,35,36
 142 24 142 24 153 13.5 c 128,-1,37
 164 3 164 3 177 3 c 0,38,39
 217 3 217 3 217 39 c 0,40,41
 217 57 217 57 199.5 62.5 c 128,-1,42
 182 68 182 68 182 73 c 0,43,44
 182 87 182 87 209 101 c 0,45,46
 232 114 232 114 247 114 c 0,47,48
 283 114 283 114 308 81 c 0,49,50
 328 51 328 51 328 13 c 0,0,1
EndSplineSet
EndChar

StartChar: d
Encoding: 100 100 69
Width: 355
VWidth: 900
GlyphClass: 1
Flags: W
LayerCount: 2
Fore
SplineSet
208 -62 m 1,0,1
 170 -106 170 -106 121 -106 c 0,2,3
 76 -106 76 -106 49 -62 c 0,4,5
 25 -25 25 -25 25 23 c 2,6,-1
 25 229 l 2,7,8
 25 369 25 369 121 369 c 0,9,10
 166 369 166 369 205 335 c 1,11,-1
 205 423 l 2,12,13
 205 449 205 449 191 472 c 128,-1,14
 177 495 177 495 177 492 c 1,15,16
 177 496 177 496 184 498 c 0,17,18
 218 510 218 510 283 540 c 0,19,20
 328 564 328 564 329 564 c 0,21,22
 337 564 337 564 337 557 c 2,23,-1
 337 -43 l 2,24,25
 337 -62 337 -62 351.5 -80 c 128,-1,26
 366 -98 366 -98 366 -96 c 1,27,28
 366 -105 366 -105 358 -105 c 2,29,-1
 224 -105 l 2,30,31
 214 -105 214 -105 208 -62 c 1,0,1
206 221 m 1,32,33
 192 255 192 255 178 255 c 0,34,35
 159 255 159 255 159 223 c 2,36,-1
 159 51 l 2,37,38
 159 24 159 24 178 24 c 0,39,40
 193 24 193 24 206 57 c 1,41,-1
 206 221 l 1,32,33
EndSplineSet
EndChar

StartChar: e
Encoding: 101 101 70
Width: 328
VWidth: 900
GlyphClass: 1
Flags: W
LayerCount: 2
Fore
SplineSet
324 194 m 0,0,1
 324 184 324 184 319 183 c 2,2,-1
 139 93 l 1,3,-1
 139 36 l 2,4,5
 139 24 139 24 148 15.5 c 128,-1,6
 157 7 157 7 168 7 c 0,7,8
 212 7 212 7 212 42 c 0,9,10
 212 58 212 58 195 62 c 128,-1,11
 178 66 178 66 178 71 c 0,12,13
 178 85 178 85 205 98 c 0,14,15
 229 110 229 110 243 110 c 0,16,17
 278 110 278 110 301 79 c 0,18,19
 322 52 322 52 322 17 c 0,20,21
 322 2 322 2 318 -15 c 0,22,23
 287 -114 287 -114 171 -114 c 0,24,25
 72 -114 72 -114 34 -36 c 0,26,27
 7 19 7 19 7 130 c 0,28,29
 7 242 7 242 34 296 c 0,30,31
 71 374 71 374 171 374 c 0,32,33
 324 374 324 374 324 194 c 0,0,1
197 222 m 1,34,-1
 197 223 l 2,35,36
 197 235 197 235 188.5 243.5 c 128,-1,37
 180 252 180 252 168 252 c 0,38,39
 157 252 157 252 148 243.5 c 128,-1,40
 139 235 139 235 139 223 c 2,41,-1
 139 193 l 1,42,-1
 197 222 l 1,34,-1
EndSplineSet
EndChar

StartChar: f
Encoding: 102 102 71
Width: 239
VWidth: 900
GlyphClass: 1
Flags: W
LayerCount: 2
Fore
SplineSet
257 474 m 0,0,1
 257 445 257 445 234 422.5 c 128,-1,2
 211 400 211 400 183 400 c 0,3,4
 161 400 161 400 161 408 c 0,5,6
 161 413 161 413 172 422 c 128,-1,7
 183 431 183 431 183 441 c 0,8,9
 183 450 183 450 176 458 c 128,-1,10
 169 466 169 466 160 466 c 0,11,12
 129 466 129 466 129 424 c 0,13,14
 129 401 129 401 146 382 c 128,-1,15
 163 363 163 363 182 361 c 2,16,-1
 247 361 l 2,17,18
 254 361 254 361 254 353 c 0,19,20
 254 341 254 341 247 315 c 0,21,22
 242 284 242 284 236 284 c 2,23,-1
 192 284 l 1,24,-1
 192 -43 l 2,25,26
 192 -62 192 -62 206.5 -80 c 128,-1,27
 221 -98 221 -98 221 -96 c 1,28,29
 221 -105 221 -105 214 -105 c 2,30,-1
 38 -105 l 2,31,32
 30 -105 30 -105 30 -96 c 1,33,34
 30 -98 30 -98 44.5 -80 c 128,-1,35
 59 -62 59 -62 59 -43 c 2,36,-1
 59 284 l 1,37,38
 56 284 56 284 47 283 c 0,39,40
 39 283 39 283 34 283 c 0,41,42
 11 283 11 283 11 293 c 0,43,44
 11 305 11 305 16 330 c 0,45,46
 22 361 22 361 28 361 c 2,47,-1
 54 361 l 1,48,49
 29 406 29 406 29 444 c 0,50,51
 29 495 29 495 64 531.5 c 128,-1,52
 99 568 99 568 150 568 c 0,53,54
 193 568 193 568 225 543 c 0,55,56
 257 516 257 516 257 474 c 0,0,1
EndSplineSet
EndChar

StartChar: g
Encoding: 103 103 72
Width: 330
VWidth: 900
GlyphClass: 1
Flags: W
LayerCount: 2
Fore
SplineSet
73 -136 m 1,0,-1
 74 -136 l 1,1,2
 74 -136 74 -136 73 -136 c 1,0,-1
199 216 m 0,3,4
 199 266 199 266 172 266 c 256,5,6
 145 266 145 266 145 216 c 0,7,8
 145 165 145 165 172 165 c 256,9,10
 199 165 199 165 199 216 c 0,3,4
113 67 m 1,11,-1
 121 77 l 1,12,13
 70 90 70 90 41.5 127.5 c 128,-1,14
 13 165 13 165 13 219 c 0,15,16
 13 345 13 345 133 363 c 0,17,18
 141 368 141 368 149 374 c 128,-1,19
 157 380 157 380 157 390 c 0,20,21
 157 401 157 401 144 401 c 0,22,23
 136 401 136 401 129 391 c 128,-1,24
 122 381 122 381 119 381 c 0,25,26
 110 381 110 381 102 394 c 128,-1,27
 94 407 94 407 94 417 c 0,28,29
 94 439 94 439 112.5 454 c 128,-1,30
 131 469 131 469 154 469 c 0,31,32
 190 469 190 469 210 439 c 0,33,34
 226 414 226 414 226 377 c 0,35,36
 226 367 226 367 225 359 c 1,37,38
 275 345 275 345 303.5 308 c 128,-1,39
 332 271 332 271 332 219 c 0,40,41
 332 89 332 89 207 74 c 1,42,43
 209 65 209 65 214 57 c 1,44,45
 264 42 264 42 293 11 c 0,46,47
 325 -24 325 -24 325 -73 c 0,48,49
 325 -258 325 -258 163 -258 c 0,50,51
 140 -258 140 -258 95 -253.5 c 128,-1,52
 50 -249 50 -249 27 -249 c 0,53,54
 16 -249 16 -249 -6.5 -255.5 c 128,-1,55
 -29 -262 -29 -262 -39 -262 c 0,56,57
 -47 -262 -47 -262 -47 -254 c 0,58,59
 -25 -212 -25 -212 -5 -170 c 0,60,61
 32 -100 32 -100 40 -100 c 0,62,63
 42 -100 42 -100 49.5 -114.5 c 128,-1,64
 57 -129 57 -129 72.5 -135.5 c 128,-1,65
 88 -142 88 -142 118 -142 c 0,66,67
 151 -142 151 -142 173 -129 c 0,68,69
 198 -113 198 -113 198 -82 c 0,70,71
 198 -68 198 -68 185.5 -58.5 c 128,-1,72
 173 -49 173 -49 157 -49 c 0,73,74
 123 -49 123 -49 123 -66 c 0,75,76
 123 -72 123 -72 126.5 -79.5 c 128,-1,77
 130 -87 130 -87 130 -87 c 1,78,79
 130 -102 130 -102 85 -102 c 0,80,81
 49 -102 49 -102 30 -79 c 128,-1,82
 11 -56 11 -56 11 -18 c 0,83,84
 11 21 11 21 44 44 c 0,85,86
 71 63 71 63 113 67 c 1,11,-1
EndSplineSet
EndChar

StartChar: h
Encoding: 104 104 73
Width: 369
VWidth: 900
GlyphClass: 1
Flags: W
LayerCount: 2
Fore
SplineSet
185 -96 m 0,0,1
 185 -105 185 -105 178 -105 c 2,2,-1
 13 -105 l 2,3,4
 5 -105 5 -105 5 -96 c 1,5,6
 5 -98 5 -98 20 -80 c 128,-1,7
 35 -62 35 -62 35 -43 c 2,8,-1
 35 423 l 2,9,10
 35 449 35 449 21.5 472 c 128,-1,11
 8 495 8 495 8 492 c 1,12,13
 8 496 8 496 14 498 c 0,14,15
 48 510 48 510 112 539 c 0,16,17
 158 564 158 564 160 564 c 0,18,19
 167 564 167 564 167 557 c 2,20,-1
 167 306 l 1,21,22
 225 369 225 369 261 369 c 0,23,24
 318 369 318 369 336 323 c 0,25,26
 347 295 347 295 347 229 c 2,27,-1
 347 -43 l 2,28,29
 347 -62 347 -62 361.5 -80 c 128,-1,30
 376 -98 376 -98 376 -96 c 1,31,32
 376 -105 376 -105 369 -105 c 2,33,-1
 203 -105 l 2,34,35
 196 -105 196 -105 196 -96 c 1,36,37
 209 -78 209 -78 212 -70 c 128,-1,38
 215 -62 215 -62 215 -43 c 2,39,-1
 215 203 l 2,40,41
 215 239 215 239 200 239 c 0,42,43
 184 239 184 239 167 209 c 1,44,-1
 167 -43 l 2,45,46
 167 -78 167 -78 182 -90 c 0,47,48
 185 -95 185 -95 185 -96 c 0,0,1
EndSplineSet
EndChar

StartChar: i
Encoding: 105 105 74
Width: 203
VWidth: 900
GlyphClass: 1
Flags: W
LayerCount: 2
Fore
SplineSet
202 -96 m 1,0,1
 202 -105 202 -105 194 -105 c 2,2,-1
 18 -105 l 2,3,4
 11 -105 11 -105 11 -96 c 1,5,6
 11 -98 11 -98 25.5 -80 c 128,-1,7
 40 -62 40 -62 40 -43 c 2,8,-1
 40 237 l 2,9,10
 40 262 40 262 26.5 285.5 c 128,-1,11
 13 309 13 309 13 305 c 1,12,13
 13 309 13 309 20 312 c 0,14,15
 52 323 52 323 117 352 c 0,16,17
 129 360 129 360 141 367 c 0,18,19
 159 378 159 378 164 378 c 0,20,21
 172 378 172 378 172 370 c 2,22,-1
 172 -43 l 2,23,24
 172 -62 172 -62 187 -80 c 128,-1,25
 202 -98 202 -98 202 -96 c 1,0,1
97 397 m 256,26,27
 69 397 69 397 49.5 417.5 c 128,-1,28
 30 438 30 438 30 467 c 256,29,30
 30 496 30 496 49.5 517 c 128,-1,31
 69 538 69 538 97 538 c 256,32,33
 125 538 125 538 145.5 517 c 128,-1,34
 166 496 166 496 166 467 c 256,35,36
 166 438 166 438 145.5 417.5 c 128,-1,37
 125 397 125 397 97 397 c 256,26,27
EndSplineSet
EndChar

StartChar: j
Encoding: 106 106 75
Width: 218
VWidth: 900
GlyphClass: 1
Flags: W
LayerCount: 2
Fore
SplineSet
225 -134 m 0,0,1
 225 -185 225 -185 189 -219 c 128,-1,2
 153 -253 153 -253 103 -253 c 0,3,4
 59 -253 59 -253 28 -232 c 0,5,6
 -7 -209 -7 -209 -7 -168 c 0,7,8
 -7 -140 -7 -140 9.5 -119 c 128,-1,9
 26 -98 26 -98 53 -98 c 0,10,11
 79 -98 79 -98 79 -109 c 0,12,13
 79 -112 79 -112 72.5 -119.5 c 128,-1,14
 66 -127 66 -127 66 -137 c 0,15,16
 66 -159 66 -159 93 -159 c 0,17,18
 101 -159 101 -159 106.5 -151 c 128,-1,19
 112 -143 112 -143 112 -134 c 0,20,21
 112 -118 112 -118 85.5 -84.5 c 128,-1,22
 59 -51 59 -51 59 -24 c 2,23,-1
 59 237 l 2,24,25
 59 262 59 262 45.5 285.5 c 128,-1,26
 32 309 32 309 32 305 c 1,27,28
 32 309 32 309 39 312 c 0,29,30
 72 324 72 324 136 353 c 0,31,32
 183 378 183 378 184 378 c 0,33,34
 192 378 192 378 192 370 c 2,35,-1
 192 13 l 2,36,37
 192 -13 192 -13 208.5 -61 c 128,-1,38
 225 -109 225 -109 225 -134 c 0,0,1
112 397 m 0,39,40
 83 397 83 397 63 417.5 c 128,-1,41
 43 438 43 438 43 467 c 256,42,43
 43 496 43 496 63 517 c 128,-1,44
 83 538 83 538 112 538 c 0,45,46
 139 538 139 538 159 517 c 128,-1,47
 179 496 179 496 179 467 c 256,48,49
 179 438 179 438 159 417.5 c 128,-1,50
 139 397 139 397 112 397 c 0,39,40
EndSplineSet
EndChar

StartChar: k
Encoding: 107 107 76
Width: 392
VWidth: 900
GlyphClass: 1
Flags: W
LayerCount: 2
Fore
SplineSet
185 -96 m 0,0,1
 185 -105 185 -105 178 -105 c 2,2,-1
 13 -105 l 2,3,4
 5 -105 5 -105 5 -96 c 1,5,6
 5 -98 5 -98 19.5 -80 c 128,-1,7
 34 -62 34 -62 34 -43 c 2,8,-1
 34 423 l 2,9,10
 34 449 34 449 20 472 c 128,-1,11
 6 495 6 495 6 492 c 1,12,13
 6 496 6 496 13 498 c 0,14,15
 47 510 47 510 111 539 c 0,16,17
 158 564 158 564 159 564 c 0,18,19
 166 564 166 564 166 557 c 2,20,-1
 166 223 l 1,21,22
 224 316 224 316 224 333 c 0,23,24
 224 342 224 342 220 346 c 1,25,-1
 220 346 l 1,26,-1
 216 352 l 1,27,28
 216 361 216 361 224 361 c 2,29,-1
 400 361 l 2,30,31
 408 361 408 361 408 354 c 0,32,33
 408 349 408 349 402 345 c 0,34,35
 376 329 376 329 370 324 c 0,36,37
 355 312 355 312 344 295 c 2,38,-1
 279 190 l 1,39,-1
 358 -41 l 2,40,41
 366 -67 366 -67 401 -90 c 0,42,43
 407 -94 407 -94 407 -97 c 0,44,45
 407 -105 407 -105 399 -105 c 2,46,-1
 234 -105 l 2,47,48
 226 -105 226 -105 226 -97 c 0,49,50
 226 -93 226 -93 229.5 -90 c 128,-1,51
 233 -87 233 -87 233 -80 c 0,52,53
 233 -46 233 -46 193 49 c 1,54,-1
 166 6 l 1,55,-1
 166 -43 l 2,56,57
 166 -78 166 -78 181 -90 c 0,58,59
 185 -95 185 -95 185 -96 c 0,0,1
EndSplineSet
EndChar

StartChar: l
Encoding: 108 108 77
Width: 207
VWidth: 900
GlyphClass: 1
Flags: W
LayerCount: 2
Fore
SplineSet
204 -96 m 1,0,1
 204 -105 204 -105 196 -105 c 2,2,-1
 21 -105 l 2,3,4
 13 -105 13 -105 13 -96 c 1,5,6
 13 -98 13 -98 27.5 -80 c 128,-1,7
 42 -62 42 -62 42 -43 c 2,8,-1
 42 423 l 2,9,10
 42 449 42 449 28.5 472 c 128,-1,11
 15 495 15 495 15 492 c 1,12,13
 15 496 15 496 22 498 c 0,14,15
 55 510 55 510 119 539 c 0,16,17
 131 546 131 546 143 553 c 0,18,19
 161 564 161 564 167 564 c 0,20,21
 175 564 175 564 175 557 c 2,22,-1
 175 -43 l 2,23,24
 175 -62 175 -62 189.5 -80 c 128,-1,25
 204 -98 204 -98 204 -96 c 1,0,1
EndSplineSet
EndChar

StartChar: m
Encoding: 109 109 78
Width: 559
VWidth: 900
GlyphClass: 1
Flags: W
LayerCount: 2
Fore
SplineSet
193 -96 m 0,0,1
 193 -105 193 -105 184 -105 c 2,2,-1
 20 -105 l 2,3,4
 12 -105 12 -105 12 -96 c 1,5,6
 12 -98 12 -98 26.5 -80 c 128,-1,7
 41 -62 41 -62 41 -43 c 2,8,-1
 41 228 l 2,9,10
 41 255 41 255 27 277.5 c 128,-1,11
 13 300 13 300 13 298 c 1,12,13
 13 301 13 301 20 304 c 0,14,15
 53 316 53 316 117 345 c 0,16,17
 164 370 164 370 166 370 c 0,18,19
 175 370 175 370 175 342 c 1,20,21
 175 389 175 389 173 306 c 1,22,23
 230 369 230 369 267 369 c 0,24,25
 335 369 335 369 347 301 c 1,26,27
 409 369 409 369 446 369 c 0,28,29
 502 369 502 369 521 323 c 0,30,31
 532 295 532 295 532 229 c 2,32,-1
 532 -43 l 2,33,34
 532 -62 532 -62 547 -80 c 128,-1,35
 562 -98 562 -98 562 -96 c 1,36,37
 562 -105 562 -105 554 -105 c 2,38,-1
 390 -105 l 2,39,40
 381 -105 381 -105 382 -96 c 1,41,42
 394 -78 394 -78 397 -70 c 128,-1,43
 400 -62 400 -62 400 -43 c 2,44,-1
 400 203 l 2,45,46
 400 239 400 239 384 239 c 0,47,48
 369 239 369 239 353 209 c 1,49,-1
 353 -43 l 2,50,51
 353 -62 353 -62 355.5 -70 c 128,-1,52
 358 -78 358 -78 372 -96 c 1,53,54
 373 -105 373 -105 364 -105 c 2,55,-1
 211 -105 l 2,56,57
 202 -105 202 -105 202 -96 c 1,58,59
 215 -78 215 -78 218 -70 c 128,-1,60
 221 -62 221 -62 221 -43 c 2,61,-1
 221 203 l 2,62,63
 221 239 221 239 205 239 c 256,64,65
 189 239 189 239 173 209 c 1,66,-1
 173 -43 l 2,67,68
 173 -78 173 -78 187 -90 c 0,69,70
 193 -95 193 -95 193 -96 c 0,0,1
EndSplineSet
EndChar

StartChar: n
Encoding: 110 110 79
Width: 380
VWidth: 900
GlyphClass: 1
Flags: W
LayerCount: 2
Fore
SplineSet
193 -96 m 0,0,1
 193 -105 193 -105 184 -105 c 2,2,-1
 20 -105 l 2,3,4
 12 -105 12 -105 12 -96 c 1,5,6
 12 -98 12 -98 26.5 -80 c 128,-1,7
 41 -62 41 -62 41 -43 c 2,8,-1
 41 228 l 2,9,10
 41 255 41 255 27 277.5 c 128,-1,11
 13 300 13 300 13 298 c 1,12,13
 13 301 13 301 20 304 c 0,14,15
 53 316 53 316 117 345 c 0,16,17
 164 370 164 370 166 370 c 0,18,19
 175 370 175 370 175 342 c 1,20,21
 175 388 175 388 173 306 c 1,22,23
 230 369 230 369 267 369 c 0,24,25
 323 369 323 369 341 323 c 0,26,27
 353 295 353 295 353 229 c 2,28,-1
 353 -43 l 2,29,30
 353 -62 353 -62 367.5 -80 c 128,-1,31
 382 -98 382 -98 382 -96 c 1,32,33
 382 -105 382 -105 375 -105 c 2,34,-1
 211 -105 l 2,35,36
 202 -105 202 -105 202 -96 c 1,37,38
 215 -78 215 -78 218 -70 c 128,-1,39
 221 -62 221 -62 221 -43 c 2,40,-1
 221 203 l 2,41,42
 221 239 221 239 205 239 c 256,43,44
 189 239 189 239 173 209 c 1,45,-1
 173 -43 l 2,46,47
 173 -78 173 -78 187 -90 c 0,48,49
 193 -95 193 -95 193 -96 c 0,0,1
EndSplineSet
EndChar

StartChar: o
Encoding: 111 111 80
Width: 337
VWidth: 900
GlyphClass: 1
Flags: W
LayerCount: 2
Fore
SplineSet
342 129 m 0,0,1
 342 17 342 17 315 -38 c 0,2,3
 276 -116 276 -116 175 -116 c 0,4,5
 76 -116 76 -116 38 -38 c 0,6,7
 9 17 9 17 9 129 c 256,8,9
 9 241 9 241 37 296 c 0,10,11
 75 373 75 373 175 373 c 0,12,13
 276 373 276 373 315 295 c 0,14,15
 342 240 342 240 342 129 c 0,0,1
203 35 m 2,16,-1
 203 222 l 2,17,18
 203 233 203 233 194 242 c 128,-1,19
 185 251 185 251 175 251 c 0,20,21
 163 251 163 251 154 242 c 128,-1,22
 145 233 145 233 145 222 c 2,23,-1
 145 35 l 2,24,25
 145 23 145 23 154 14.5 c 128,-1,26
 163 6 163 6 175 6 c 0,27,28
 185 6 185 6 194 14.5 c 128,-1,29
 203 23 203 23 203 35 c 2,16,-1
EndSplineSet
EndChar

StartChar: p
Encoding: 112 112 81
Width: 364
VWidth: 900
GlyphClass: 1
Flags: W
LayerCount: 2
Fore
SplineSet
167 206 m 1,0,-1
 167 45 l 1,1,2
 183 9 183 9 196 9 c 0,3,4
 216 9 216 9 216 40 c 2,5,-1
 216 213 l 2,6,7
 216 239 216 239 196 239 c 0,8,9
 182 239 182 239 167 206 c 1,0,-1
200 -232 m 1,10,11
 200 -241 200 -241 193 -241 c 2,12,-1
 16 -241 l 2,13,14
 9 -241 9 -241 9 -232 c 1,15,16
 9 -235 9 -235 23.5 -217 c 128,-1,17
 38 -199 38 -199 38 -179 c 2,18,-1
 38 227 l 2,19,20
 38 253 38 253 24 276.5 c 128,-1,21
 10 300 10 300 10 296 c 1,22,23
 10 300 10 300 16 303 c 0,24,25
 49 315 49 315 112 344 c 0,26,27
 158 369 158 369 160 369 c 0,28,29
 167 369 167 369 168 352 c 1,30,31
 168 355 168 355 167 328 c 1,32,33
 206 370 206 370 253 370 c 0,34,35
 298 370 298 370 326 327 c 0,36,37
 349 289 349 289 349 240 c 2,38,-1
 349 34 l 2,39,40
 349 -105 349 -105 253 -105 c 0,41,42
 208 -105 208 -105 168 -69 c 1,43,-1
 168 -182 l 2,44,45
 168 -199 168 -199 184 -216 c 128,-1,46
 200 -233 200 -233 200 -232 c 1,10,11
EndSplineSet
EndChar

StartChar: q
Encoding: 113 113 82
Width: 343
VWidth: 900
GlyphClass: 1
Flags: W
LayerCount: 2
Fore
SplineSet
200 -72 m 1,0,1
 153 -107 153 -107 112 -107 c 0,2,3
 55 -107 55 -107 31 -62 c 0,4,5
 15 -30 15 -30 15 32 c 2,6,-1
 15 237 l 2,7,8
 15 288 15 288 49 329 c 0,9,10
 85 373 85 373 135 373 c 0,11,12
 167 373 167 373 199 353 c 0,13,14
 228 334 228 334 247 304 c 1,15,16
 271 327 271 327 319 375 c 1,17,-1
 325 377 l 2,18,19
 333 377 333 377 333 370 c 2,20,-1
 333 -183 l 2,21,22
 333 -202 333 -202 348 -219.5 c 128,-1,23
 363 -237 363 -237 363 -237 c 1,24,25
 363 -244 363 -244 355 -244 c 2,26,-1
 179 -244 l 2,27,28
 171 -244 171 -244 171 -237 c 1,29,30
 171 -237 171 -237 186 -220 c 128,-1,31
 201 -203 201 -203 201 -183 c 2,32,-1
 200 -72 l 1,0,1
200 215 m 1,33,34
 184 237 184 237 168 237 c 0,35,36
 148 237 148 237 148 190 c 0,37,38
 148 185 148 185 148 175 c 256,39,40
 148 165 148 165 148 160 c 2,41,-1
 149 88 l 2,42,43
 149 44 149 44 149 41 c 0,44,45
 152 6 152 6 168 6 c 256,46,47
 184 6 184 6 200 28 c 1,48,-1
 200 215 l 1,33,34
EndSplineSet
EndChar

StartChar: r
Encoding: 114 114 83
Width: 287
VWidth: 900
GlyphClass: 1
Flags: W
LayerCount: 2
Fore
SplineSet
187 -97 m 0,0,1
 187 -105 187 -105 179 -105 c 2,2,-1
 14 -105 l 2,3,4
 6 -105 6 -105 6 -97 c 1,5,6
 6 -99 6 -99 21.5 -81 c 128,-1,7
 37 -63 37 -63 37 -44 c 2,8,-1
 37 235 l 2,9,10
 37 261 37 261 23 284 c 128,-1,11
 9 307 9 307 9 304 c 1,12,13
 9 308 9 308 15 310 c 0,14,15
 49 322 49 322 113 351 c 1,16,17
 160 377 160 377 160 377 c 1,18,19
 170 377 170 377 170 345 c 0,20,21
 170 338 170 338 169 327 c 128,-1,22
 168 316 168 316 168 309 c 1,23,24
 202 363 202 363 239 363 c 0,25,26
 266 363 266 363 283 337 c 0,27,28
 295 317 295 317 295 287 c 0,29,30
 295 276 295 276 293 264 c 0,31,32
 289 237 289 237 274 217 c 0,33,34
 257 193 257 193 241 198 c 0,35,36
 239 198 239 198 232 217 c 0,37,38
 225 233 225 233 209 233 c 0,39,40
 205 233 205 233 200 233 c 0,41,42
 185 229 185 229 179.5 212 c 128,-1,43
 174 195 174 195 168 179 c 1,44,-1
 168 -44 l 2,45,46
 168 -79 168 -79 182 -91 c 0,47,48
 187 -95 187 -95 187 -97 c 0,0,1
EndSplineSet
EndChar

StartChar: s
Encoding: 115 115 84
Width: 329
VWidth: 900
GlyphClass: 1
Flags: W
LayerCount: 2
Fore
SplineSet
332 310 m 0,0,1
 330 305 330 305 304 274 c 0,2,3
 289 252 289 252 257 208 c 0,4,5
 254 203 254 203 250 203 c 0,6,7
 247 203 247 203 239 219 c 0,8,9
 230 237 230 237 221 246 c 0,10,11
 207 261 207 261 186 261 c 0,12,13
 175 261 175 261 165.5 254.5 c 128,-1,14
 156 248 156 248 156 239 c 0,15,16
 156 221 156 221 201 193 c 0,17,18
 264 154 264 154 284 134 c 0,19,20
 329 90 329 90 329 33 c 0,21,22
 329 -32 329 -32 286 -75 c 128,-1,23
 243 -118 243 -118 178 -118 c 0,24,25
 142 -118 142 -118 92.5 -97.5 c 128,-1,26
 43 -77 43 -77 27 -77 c 0,27,28
 24 -77 24 -77 19 -78.5 c 128,-1,29
 14 -80 14 -80 11 -80 c 0,30,31
 4 -80 4 -80 4 -73 c 0,32,33
 4 -70 4 -70 5 -68 c 0,34,35
 5 -67 5 -67 27 -34 c 0,36,37
 41 -6 41 -6 70 49 c 0,38,39
 74 56 74 56 77 56 c 2,40,41
 77 56 77 56 102 30.5 c 128,-1,42
 127 5 127 5 155 5 c 0,43,44
 189 5 189 5 189 29 c 256,45,46
 189 53 189 53 146 80 c 0,47,48
 79 121 79 121 66 135 c 0,49,50
 22 174 22 174 22 231 c 256,51,52
 22 288 22 288 64 331.5 c 128,-1,53
 106 375 106 375 164 375 c 0,54,55
 207 375 207 375 255.5 346 c 128,-1,56
 304 317 304 317 314 317 c 0,57,58
 316 317 316 317 319 318 c 128,-1,59
 322 319 322 319 325 319 c 0,60,61
 332 319 332 319 332 310 c 0,0,1
EndSplineSet
EndChar

StartChar: t
Encoding: 116 116 85
Width: 239
VWidth: 900
GlyphClass: 1
Flags: W
LayerCount: 2
Fore
SplineSet
221 -96 m 1,0,1
 221 -105 221 -105 213 -105 c 2,2,-1
 38 -105 l 2,3,4
 30 -105 30 -105 30 -96 c 1,5,6
 30 -98 30 -98 44.5 -80 c 128,-1,7
 59 -62 59 -62 59 -43 c 2,8,-1
 59 284 l 1,9,10
 56 284 56 284 47 283 c 0,11,12
 38 283 38 283 34 283 c 0,13,14
 9 283 9 283 9 292 c 0,15,16
 9 305 9 305 15 330 c 0,17,18
 22 361 22 361 27 361 c 2,19,-1
 59 361 l 1,20,-1
 59 373 l 2,21,22
 59 413 59 413 31 442 c 0,23,24
 31 445 31 445 38 449 c 0,25,26
 73 463 73 463 113 489 c 0,27,28
 148 515 148 515 184 539 c 0,29,30
 191 539 191 539 191 532 c 2,31,-1
 191 361 l 1,32,-1
 246 361 l 2,33,34
 253 361 253 361 253 353 c 0,35,36
 253 341 253 341 247 315 c 0,37,38
 241 284 241 284 235 284 c 2,39,-1
 191 284 l 1,40,-1
 191 -43 l 2,41,42
 191 -62 191 -62 206 -80 c 128,-1,43
 221 -98 221 -98 221 -96 c 1,0,1
EndSplineSet
EndChar

StartChar: u
Encoding: 117 117 86
Width: 380
VWidth: 900
GlyphClass: 1
Flags: W
LayerCount: 2
Fore
SplineSet
222 -51 m 1,0,1
 162 -120 162 -120 123 -120 c 0,2,3
 67 -120 67 -120 49 -74 c 0,4,5
 38 -46 38 -46 38 21 c 2,6,-1
 38 224 l 2,7,8
 38 275 38 275 14 295 c 0,9,10
 9 300 9 300 9 304 c 256,11,12
 9 308 9 308 16 310 c 0,13,14
 49 323 49 323 113 351 c 0,15,16
 125 358 125 358 138 366 c 0,17,18
 157 377 157 377 161 377 c 0,19,20
 169 377 169 377 169 369 c 2,21,-1
 169 46 l 2,22,23
 169 10 169 10 185 10 c 0,24,25
 202 10 202 10 221 48 c 1,26,-1
 221 235 l 2,27,28
 221 261 221 261 207 284 c 128,-1,29
 193 307 193 307 193 304 c 1,30,31
 193 308 193 308 200 310 c 0,32,33
 233 322 233 322 297 351 c 1,34,35
 344 377 344 377 345 377 c 0,36,37
 353 377 353 377 353 369 c 2,38,-1
 353 -43 l 2,39,40
 353 -62 353 -62 368 -80 c 128,-1,41
 383 -98 383 -98 383 -96 c 1,42,43
 383 -105 383 -105 375 -105 c 2,44,-1
 240 -105 l 2,45,46
 229 -105 229 -105 222 -51 c 1,0,1
EndSplineSet
EndChar

StartChar: v
Encoding: 118 118 87
Width: 382
VWidth: 900
GlyphClass: 1
Flags: W
LayerCount: 2
Fore
SplineSet
153 -105 m 2,0,1
 148 -105 148 -105 146 -99 c 2,2,-1
 41 298 l 2,3,4
 38 312 38 312 17.5 332 c 128,-1,5
 -3 352 -3 352 -3 352 c 1,6,7
 -3 361 -3 361 5 361 c 2,8,-1
 182 361 l 2,9,10
 189 361 189 361 189 352 c 1,11,12
 189 354 189 354 180 340.5 c 128,-1,13
 171 327 171 327 171 314 c 0,14,15
 171 284 171 284 208 166 c 1,16,-1
 240 323 l 2,17,18
 243 335 243 335 243 345 c 0,19,20
 243 363 243 363 230.5 382 c 128,-1,21
 218 401 218 401 218 399 c 1,22,23
 218 405 218 405 225 408 c 0,24,25
 324 451 324 451 401 523 c 1,26,-1
 407 525 l 2,27,28
 415 525 415 525 415 517 c 0,29,30
 415 497 415 497 408 466 c 0,31,32
 401 441 401 441 395 415 c 0,33,34
 369 293 369 293 308 3 c 0,35,36
 302 -33 302 -33 286 -98 c 0,37,38
 283 -105 283 -105 278 -105 c 2,39,-1
 153 -105 l 2,0,1
EndSplineSet
EndChar

StartChar: w
Encoding: 119 119 88
Width: 575
VWidth: 900
GlyphClass: 1
Flags: W
LayerCount: 2
Fore
SplineSet
149 -105 m 2,0,1
 143 -105 143 -105 142 -99 c 2,2,-1
 43 298 l 2,3,4
 36 327 36 327 4 345 c 0,5,6
 -2 348 -2 348 -2 352 c 0,7,8
 -2 361 -2 361 6 361 c 2,9,-1
 183 361 l 2,10,11
 191 361 191 361 191 353 c 1,12,13
 191 354 191 354 182 340.5 c 128,-1,14
 173 327 173 327 173 313 c 0,15,16
 173 308 173 308 175 301 c 2,17,-1
 205 173 l 1,18,-1
 230 300 l 2,19,20
 232 311 232 311 232 321 c 0,21,22
 232 337 232 337 221 353 c 1,23,24
 221 361 221 361 229 361 c 2,25,-1
 368 361 l 2,26,27
 376 361 376 361 376 353 c 1,28,29
 365 337 365 337 365 321 c 0,30,31
 365 311 365 311 367 300 c 2,32,-1
 391 182 l 1,33,-1
 419 301 l 2,34,35
 420 308 420 308 420 313 c 0,36,37
 420 326 420 326 411.5 340 c 128,-1,38
 403 354 403 354 403 352 c 1,39,40
 403 361 403 361 410 361 c 2,41,-1
 587 361 l 2,42,43
 595 361 595 361 595 352 c 0,44,45
 595 348 595 348 589 345 c 0,46,47
 557 327 557 327 550 298 c 2,48,-1
 452 -99 l 2,49,50
 451 -105 451 -105 445 -105 c 2,51,-1
 341 -105 l 2,52,53
 335 -105 335 -105 333 -98 c 2,54,-1
 297 111 l 1,55,-1
 255 -98 l 2,56,57
 254 -105 254 -105 247 -105 c 2,58,-1
 149 -105 l 2,0,1
EndSplineSet
EndChar

StartChar: x
Encoding: 120 120 89
Width: 386
VWidth: 900
GlyphClass: 1
Flags: W
LayerCount: 2
Fore
SplineSet
168 310 m 1,0,-1
 169 309 l 1,1,2
 169 310 169 310 168 310 c 1,0,-1
221 -55 m 1,3,-1
 221 -54 l 1,4,5
 221 -55 221 -55 221 -55 c 1,3,-1
218 309 m 1,6,-1
 218 310 l 1,7,8
 218 310 218 310 218 309 c 1,6,-1
164 -56 m 1,9,-1
 164 -57 l 1,10,11
 164 -57 164 -57 164 -56 c 1,9,-1
404 353 m 0,12,13
 404 348 404 348 398 345 c 0,14,15
 358 323 358 323 345 295 c 2,16,-1
 261 131 l 1,17,-1
 348 -41 l 2,18,19
 362 -67 362 -67 401 -90 c 0,20,21
 408 -93 408 -93 408 -97 c 0,22,23
 408 -105 408 -105 400 -105 c 2,24,-1
 223 -105 l 2,25,26
 216 -105 216 -105 216 -98 c 0,27,28
 216 -96 216 -96 220.5 -88.5 c 128,-1,29
 225 -81 225 -81 225 -73 c 0,30,31
 225 -59 225 -59 213 -35 c 0,32,33
 203 -17 203 -17 193 0 c 1,34,35
 183 -18 183 -18 173 -37 c 0,36,37
 160 -60 160 -60 160 -76 c 0,38,39
 160 -84 160 -84 165 -91 c 128,-1,40
 170 -98 170 -98 170 -100 c 0,41,42
 170 -107 170 -107 162 -107 c 2,43,-1
 -14 -107 l 2,44,45
 -22 -107 -22 -107 -22 -99 c 0,46,47
 -22 -95 -22 -95 -16 -92 c 0,48,49
 23 -69 23 -69 38 -42 c 2,50,-1
 127 131 l 1,51,-1
 42 295 l 2,52,53
 28 323 28 323 -12 345 c 0,54,55
 -16 348 -16 348 -16 353 c 0,56,57
 -16 361 -16 361 -9 361 c 2,58,-1
 167 361 l 2,59,60
 175 361 175 361 175 354 c 0,61,62
 175 352 175 352 170.5 344.5 c 128,-1,63
 166 337 166 337 166 328 c 0,64,65
 166 313 166 313 175 294 c 0,66,67
 184 278 184 278 193 262 c 1,68,69
 202 278 202 278 211 294 c 0,70,71
 221 313 221 313 221 328 c 0,72,73
 221 337 221 337 216 344.5 c 128,-1,74
 211 352 211 352 211 353 c 0,75,76
 211 361 211 361 220 361 c 2,77,-1
 396 361 l 2,78,79
 404 361 404 361 404 353 c 0,12,13
EndSplineSet
EndChar

StartChar: y
Encoding: 121 121 90
Width: 384
VWidth: 900
GlyphClass: 1
Flags: W
LayerCount: 2
Fore
SplineSet
161 -233 m 1,0,-1
 160 -233 l 1,1,2
 160 -233 160 -233 161 -233 c 1,0,-1
125 -66 m 1,3,-1
 31 298 l 2,4,5
 26 315 26 315 6 333.5 c 128,-1,6
 -14 352 -14 352 -14 352 c 1,7,8
 -14 361 -14 361 -6 361 c 2,9,-1
 170 361 l 2,10,11
 178 361 178 361 178 352 c 1,12,13
 178 354 178 354 169 340.5 c 128,-1,14
 160 327 160 327 160 314 c 0,15,16
 160 285 160 285 193 176 c 1,17,18
 229 302 229 302 229 316 c 0,19,20
 229 327 229 327 220.5 340 c 128,-1,21
 212 353 212 353 212 354 c 0,22,23
 212 361 212 361 220 361 c 2,24,-1
 397 361 l 2,25,26
 404 361 404 361 404 354 c 1,27,28
 383 333 383 333 358 297 c 1,29,30
 327 203 327 203 286 54 c 0,31,32
 230 -154 230 -154 220 -191 c 0,33,34
 207 -234 207 -234 169 -234 c 0,35,36
 148 -234 148 -234 106.5 -232.5 c 128,-1,37
 65 -231 65 -231 43 -231 c 0,38,39
 35 -231 35 -231 18.5 -232.5 c 128,-1,40
 2 -234 2 -234 -6 -234 c 256,41,42
 -14 -234 -14 -234 -14 -226 c 0,43,44
 11 -155 11 -155 44 -71 c 0,45,46
 47 -66 47 -66 52 -66 c 0,47,48
 53 -66 53 -66 62 -89.5 c 128,-1,49
 71 -113 71 -113 92 -113 c 256,50,51
 113 -113 113 -113 121 -99 c 0,52,53
 124 -92 124 -92 125 -67 c 2,54,-1
 125 -66 l 1,3,-1
EndSplineSet
EndChar

StartChar: z
Encoding: 122 122 91
Width: 353
VWidth: 900
GlyphClass: 1
Flags: W
LayerCount: 2
Fore
SplineSet
360 -97 m 0,0,1
 360 -105 360 -105 352 -105 c 0,2,3
 328 -105 328 -105 278 -105 c 256,4,5
 228 -105 228 -105 203 -105 c 2,6,-1
 12 -105 l 2,7,8
 4 -105 4 -105 4 -97 c 0,9,10
 4 -95 4 -95 76 60 c 0,11,12
 157 234 157 234 160 240 c 1,13,14
 147 241 147 241 121 240 c 0,15,16
 100 239 100 239 91 228 c 0,17,18
 86 223 86 223 82 210 c 0,19,20
 78 200 78 200 74 200 c 256,21,22
 70 200 70 200 67 204.5 c 128,-1,23
 64 209 64 209 49 250 c 2,24,-1
 10 355 l 2,25,26
 11 363 11 363 18 363 c 2,27,28
 18 363 18 363 22 363 c 1,29,-1
 20 363 l 1,30,31
 47 359 47 359 89 359 c 0,32,33
 111 359 111 359 155.5 360 c 128,-1,34
 200 361 200 361 221 361 c 2,35,-1
 351 361 l 2,36,37
 358 361 358 361 358 353 c 0,38,39
 358 350 358 350 286 196 c 0,40,41
 245 106 245 106 203 16 c 1,42,43
 218 16 218 16 248 17 c 0,44,45
 268 17 268 17 277 30 c 0,46,47
 282 35 282 35 286 52 c 0,48,49
 290 64 290 64 295 64 c 0,50,51
 299 64 299 64 301 60 c 128,-1,52
 303 56 303 56 319 16 c 0,53,54
 334 -26 334 -26 360 -97 c 0,0,1
EndSplineSet
EndChar

StartChar: braceleft
Encoding: 123 123 92
Width: 210
VWidth: 900
GlyphClass: 1
Flags: W
LayerCount: 2
Fore
SplineSet
208 -96 m 1,0,1
 208 -105 208 -105 200 -105 c 2,2,-1
 23 -105 l 2,3,4
 16 -105 16 -105 16 -96 c 1,5,6
 16 -98 16 -98 31 -80 c 128,-1,7
 46 -62 46 -62 46 -43 c 2,8,-1
 46 150 l 2,9,10
 46 175 46 175 32 198.5 c 128,-1,11
 18 222 18 222 18 219 c 1,12,13
 18 223 18 223 25 226 c 0,14,15
 58 237 58 237 122 265 c 0,16,17
 135 273 135 273 146 281 c 0,18,19
 165 291 165 291 170 291 c 0,20,21
 178 291 178 291 178 283 c 2,22,-1
 178 -43 l 2,23,24
 178 -62 178 -62 193 -80 c 128,-1,25
 208 -98 208 -98 208 -96 c 1,0,1
103 289 m 256,26,27
 75 289 75 289 55 309.5 c 128,-1,28
 35 330 35 330 35 359 c 256,29,30
 35 388 35 388 55 409 c 128,-1,31
 75 430 75 430 103 430 c 256,32,33
 131 430 131 430 151 409 c 128,-1,34
 171 388 171 388 171 359 c 256,35,36
 171 330 171 330 151 309.5 c 128,-1,37
 131 289 131 289 103 289 c 256,26,27
EndSplineSet
EndChar

StartChar: bar
Encoding: 124 124 93
Width: 682
VWidth: 900
GlyphClass: 1
Flags: W
LayerCount: 2
Fore
SplineSet
646 219 m 256,0,1
 646 66 646 66 571 -21 c 0,2,3
 491 -113 491 -113 341 -113 c 256,4,5
 191 -113 191 -113 111 -21 c 0,6,7
 36 66 36 66 36 219 c 0,8,9
 36 373 36 373 110 459 c 0,10,11
 189 550 189 550 341 550 c 0,12,13
 491 550 491 550 571 458 c 0,14,15
 646 372 646 372 646 219 c 256,0,1
385 276 m 1,16,-1
 532 100 l 1,17,18
 547 152 547 152 547 219 c 0,19,20
 547 450 547 450 385 477 c 1,21,-1
 385 276 l 1,16,-1
488 15 m 1,22,-1
 385 137 l 1,23,-1
 385 -40 l 1,24,25
 448 -29 448 -29 488 15 c 1,22,-1
296 135 m 1,26,-1
 199 19 l 1,27,28
 238 -26 238 -26 296 -38 c 1,29,-1
 296 135 l 1,26,-1
153 102 m 1,30,-1
 296 273 l 1,31,-1
 296 476 l 1,32,33
 211 460 211 460 169 381 c 0,34,35
 135 315 135 315 135 219 c 0,36,37
 135 156 135 156 153 102 c 1,30,-1
EndSplineSet
EndChar

StartChar: braceright
Encoding: 125 125 94
Width: 299
VWidth: 900
GlyphClass: 1
Flags: W
LayerCount: 2
Fore
SplineSet
160 237 m 0,0,1
 160 227 160 227 200 204 c 0,2,3
 249 175 249 175 271 153 c 0,4,5
 310 114 310 114 310 64 c 0,6,7
 310 6 310 6 272 -51 c 0,8,9
 250 -83 250 -83 181.5 -144.5 c 128,-1,10
 113 -206 113 -206 76 -228 c 0,11,12
 73 -230 73 -230 70 -230 c 0,13,14
 64 -230 64 -230 60 -222 c 0,15,16
 58 -217 58 -217 44.5 -159 c 128,-1,17
 31 -101 31 -101 31 -96 c 0,18,19
 31 -89 31 -89 106 -32 c 128,-1,20
 181 25 181 25 181 50 c 0,21,22
 181 71 181 71 138 98 c 0,23,24
 74 138 74 138 58 153 c 0,25,26
 14 193 14 193 14 246 c 0,27,28
 14 302 14 302 54 339.5 c 128,-1,29
 94 377 94 377 150 377 c 0,30,31
 164 377 164 377 190 373.5 c 128,-1,32
 216 370 216 370 229 370 c 0,33,34
 261 370 261 370 298 377 c 1,35,-1
 304 374 l 2,36,37
 308 372 308 372 308 367 c 0,38,39
 308 366 308 366 290 324 c 0,40,41
 282 305 282 305 274 272 c 0,42,43
 263 229 263 229 259 218 c 0,44,45
 256 209 256 209 248 209 c 1,46,47
 248 209 248 209 225 231 c 128,-1,48
 202 253 202 253 177 253 c 0,49,50
 160 253 160 253 160 237 c 0,0,1
EndSplineSet
EndChar

StartChar: asciitilde
Encoding: 126 126 95
Width: 478
VWidth: 900
GlyphClass: 1
Flags: W
LayerCount: 2
Fore
SplineSet
293 107 m 0,0,1
 256 107 256 107 223 129 c 0,2,3
 209 138 209 138 177 168 c 0,4,5
 156 190 156 190 142 190 c 0,6,7
 123 190 123 190 123 162 c 0,8,9
 123 151 123 151 140 136.5 c 128,-1,10
 157 122 157 122 157 121 c 0,11,12
 157 96 157 96 110 96 c 0,13,14
 69 96 69 96 44 131 c 0,15,16
 22 162 22 162 22 204 c 0,17,18
 22 250 22 250 56 282.5 c 128,-1,19
 90 315 90 315 136 315 c 0,20,21
 174 315 174 315 207 293 c 0,22,23
 222 283 222 283 252 255 c 0,24,25
 274 233 274 233 284 233 c 0,26,27
 307 233 307 233 307 260 c 0,28,29
 307 271 307 271 290 284.5 c 128,-1,30
 273 298 273 298 273 300 c 0,31,32
 273 326 273 326 320 326 c 0,33,34
 361 326 361 326 386 291 c 0,35,36
 409 259 409 259 409 218 c 0,37,38
 409 172 409 172 374 139.5 c 128,-1,39
 339 107 339 107 293 107 c 0,0,1
EndSplineSet
EndChar

StartChar: Adieresis
Encoding: 196 196 96
Width: 490
VWidth: 900
GlyphClass: 1
Flags: W
LayerCount: 2
Fore
SplineSet
517 -98 m 0,0,1
 517 -105 517 -105 509 -105 c 2,2,-1
 308 -105 l 2,3,4
 300 -105 300 -105 300 -98 c 2,5,6
 300 -98 300 -98 311 -80 c 128,-1,7
 322 -62 322 -62 322 -43 c 2,8,-1
 322 104 l 1,9,10
 299 86 299 86 251 53 c 1,11,12
 247 16 247 16 243 -22 c 0,13,14
 239 -66 239 -66 239 -96 c 0,15,16
 239 -114 239 -114 252 -130 c 128,-1,17
 265 -146 265 -146 265 -145 c 1,18,19
 265 -152 265 -152 236 -165 c 0,20,21
 221 -170 221 -170 139 -217 c 0,22,23
 61 -260 61 -260 58 -260 c 0,24,25
 51 -260 51 -260 51 -253 c 0,26,27
 51 -250 51 -250 56 -246 c 0,28,29
 67 -235 67 -235 77 -204 c 0,30,31
 88 -175 88 -175 91 -157 c 0,32,33
 100 -89 100 -89 108 13 c 0,34,35
 121 173 121 173 122 183 c 0,36,37
 128 227 128 227 132 271 c 0,38,39
 139 322 139 322 139 357 c 0,40,41
 139 366 139 366 132 384 c 128,-1,42
 125 402 125 402 125 410 c 0,43,44
 125 416 125 416 132 418 c 0,45,46
 169 430 169 430 207 442.5 c 128,-1,47
 245 455 245 455 274 485 c 1,48,-1
 279 487 l 2,49,50
 288 487 288 487 287 478 c 2,51,-1
 266 229 l 1,52,-1
 322 270 l 1,53,-1
 322 370 l 2,54,55
 322 443 322 443 302 478 c 0,56,57
 276 523 276 523 209 523 c 0,58,59
 168 523 168 523 134 492.5 c 128,-1,60
 100 462 100 462 100 422 c 0,61,62
 100 414 100 414 106 400 c 128,-1,63
 112 386 112 386 112 383 c 0,64,65
 112 375 112 375 98 375 c 0,66,67
 58 375 58 375 34 408 c 0,68,69
 12 436 12 436 12 478 c 0,70,71
 12 561 12 561 73 615 c 0,72,73
 131 665 131 665 216 665 c 0,74,75
 338 665 338 665 400 579 c 0,76,77
 454 504 454 504 454 376 c 2,78,-1
 454 370 l 1,79,-1
 482 -42 l 2,80,81
 483 -60 483 -60 500 -78 c 128,-1,82
 517 -96 517 -96 517 -98 c 0,0,1
241 759 m 256,83,84
 241 735 241 735 224 717.5 c 128,-1,85
 207 700 207 700 184 700 c 0,86,87
 160 700 160 700 143.5 717.5 c 128,-1,88
 127 735 127 735 127 759 c 256,89,90
 127 783 127 783 143.5 801 c 128,-1,91
 160 819 160 819 184 819 c 0,92,93
 207 819 207 819 224 801 c 128,-1,94
 241 783 241 783 241 759 c 256,83,84
403 759 m 256,95,96
 403 735 403 735 386 717.5 c 128,-1,97
 369 700 369 700 346 700 c 0,98,99
 322 700 322 700 305.5 717.5 c 128,-1,100
 289 735 289 735 289 759 c 256,101,102
 289 783 289 783 305.5 801 c 128,-1,103
 322 819 322 819 346 819 c 0,104,105
 369 819 369 819 386 801 c 128,-1,106
 403 783 403 783 403 759 c 256,95,96
EndSplineSet
EndChar

StartChar: Aring
Encoding: 197 197 97
Width: 490
VWidth: 900
GlyphClass: 1
Flags: W
LayerCount: 2
Fore
SplineSet
517 -98 m 0,0,1
 517 -105 517 -105 509 -105 c 2,2,-1
 308 -105 l 2,3,4
 300 -105 300 -105 300 -98 c 2,5,6
 300 -98 300 -98 311 -80 c 128,-1,7
 322 -62 322 -62 322 -43 c 2,8,-1
 322 104 l 1,9,10
 299 86 299 86 251 53 c 1,11,12
 247 16 247 16 243 -22 c 0,13,14
 239 -66 239 -66 239 -96 c 0,15,16
 239 -114 239 -114 252 -130 c 128,-1,17
 265 -146 265 -146 265 -145 c 1,18,19
 265 -152 265 -152 236 -165 c 0,20,21
 221 -170 221 -170 139 -217 c 0,22,23
 61 -260 61 -260 58 -260 c 0,24,25
 51 -260 51 -260 51 -253 c 0,26,27
 51 -250 51 -250 56 -246 c 0,28,29
 67 -235 67 -235 77 -204 c 0,30,31
 88 -175 88 -175 91 -157 c 0,32,33
 100 -89 100 -89 108 13 c 0,34,35
 121 173 121 173 122 183 c 0,36,37
 128 227 128 227 132 271 c 0,38,39
 139 322 139 322 139 357 c 0,40,41
 139 366 139 366 132 384 c 128,-1,42
 125 402 125 402 125 410 c 0,43,44
 125 416 125 416 132 418 c 0,45,46
 169 430 169 430 207 442.5 c 128,-1,47
 245 455 245 455 274 485 c 1,48,-1
 279 487 l 2,49,50
 288 487 288 487 287 478 c 2,51,-1
 266 229 l 1,52,-1
 322 270 l 1,53,-1
 322 370 l 2,54,55
 322 443 322 443 302 478 c 0,56,57
 276 523 276 523 209 523 c 0,58,59
 168 523 168 523 134 492.5 c 128,-1,60
 100 462 100 462 100 422 c 0,61,62
 100 414 100 414 106 400 c 128,-1,63
 112 386 112 386 112 383 c 0,64,65
 112 375 112 375 98 375 c 0,66,67
 58 375 58 375 34 408 c 0,68,69
 12 436 12 436 12 478 c 0,70,71
 12 561 12 561 73 615 c 0,72,73
 131 665 131 665 216 665 c 0,74,75
 338 665 338 665 400 579 c 0,76,77
 454 504 454 504 454 376 c 2,78,-1
 454 370 l 1,79,-1
 482 -42 l 2,80,81
 483 -60 483 -60 500 -78 c 128,-1,82
 517 -96 517 -96 517 -98 c 0,0,1
353 777 m 256,83,84
 353 742 353 742 328 716.5 c 128,-1,85
 303 691 303 691 268 691 c 256,86,87
 233 691 233 691 207.5 716.5 c 128,-1,88
 182 742 182 742 182 777 c 256,89,90
 182 812 182 812 207.5 837 c 128,-1,91
 233 862 233 862 268 862 c 256,92,93
 303 862 303 862 328 837 c 128,-1,94
 353 812 353 812 353 777 c 256,83,84
268 806 m 0,95,96
 257 806 257 806 248 797 c 128,-1,97
 239 788 239 788 239 777 c 0,98,99
 239 765 239 765 247.5 756.5 c 128,-1,100
 256 748 256 748 268 748 c 256,101,102
 280 748 280 748 288.5 756.5 c 128,-1,103
 297 765 297 765 297 777 c 0,104,105
 297 788 297 788 288.5 797 c 128,-1,106
 280 806 280 806 268 806 c 0,95,96
EndSplineSet
EndChar

StartChar: Ccedilla
Encoding: 199 199 98
Width: 382
VWidth: 900
GlyphClass: 1
Flags: W
LayerCount: 2
Fore
SplineSet
273 -134 m 0,0,1
 273 -172 273 -172 251.5 -192.5 c 128,-1,2
 230 -213 230 -213 193 -213 c 0,3,4
 136 -213 136 -213 136 -159 c 0,5,6
 136 -140 136 -140 148 -140 c 0,7,8
 149 -140 149 -140 155 -151.5 c 128,-1,9
 161 -163 161 -163 171 -163 c 0,10,11
 201 -163 201 -163 201 -135 c 0,12,13
 201 -120 201 -120 178 -114 c 0,14,15
 161 -108 161 -108 142.5 -102 c 128,-1,16
 124 -96 124 -96 111 -87 c 0,17,18
 44 -41 44 -41 21 75 c 0,19,20
 6 143 6 143 6 267 c 0,21,22
 6 330 6 330 18.5 417.5 c 128,-1,23
 31 505 31 505 74 571 c 0,24,25
 127 654 127 654 203 654 c 0,26,27
 275 654 275 654 319 622 c 0,28,29
 369 585 369 585 369 515 c 0,30,31
 369 470 369 470 344 434 c 0,32,33
 315 393 315 393 271 393 c 0,34,35
 245 393 245 393 226 410 c 128,-1,36
 207 427 207 427 207 453 c 0,37,38
 207 460 207 460 215 460 c 0,39,40
 219 460 219 460 224 456.5 c 128,-1,41
 229 453 229 453 232 453 c 0,42,43
 242 453 242 453 248 462.5 c 128,-1,44
 254 472 254 472 254 482 c 0,45,46
 254 516 254 516 221 516 c 0,47,48
 167 516 167 516 150 403 c 0,49,50
 143 354 143 354 143 246 c 0,51,52
 143 157 143 157 157 111 c 0,53,54
 181 28 181 28 246 28 c 0,55,56
 264 28 264 28 296.5 40.5 c 128,-1,57
 329 53 329 53 345 53 c 0,58,59
 353 53 353 53 353 46 c 0,60,61
 353 18 353 18 371.5 -33.5 c 128,-1,62
 390 -85 390 -85 390 -112 c 0,63,64
 390 -120 390 -120 383 -120 c 0,65,66
 371 -120 371 -120 346.5 -114.5 c 128,-1,67
 322 -109 322 -109 310 -109 c 0,68,69
 293 -109 293 -109 267 -113 c 1,70,71
 273 -126 273 -126 273 -134 c 0,0,1
EndSplineSet
EndChar

StartChar: Eacute
Encoding: 201 201 99
Width: 361
VWidth: 900
GlyphClass: 1
Flags: W
LayerCount: 2
Fore
SplineSet
361 493 m 0,0,1
 361 447 361 447 337 417 c 0,2,3
 312 385 312 385 268 385 c 0,4,5
 241 385 241 385 220.5 405.5 c 128,-1,6
 200 426 200 426 200 452 c 0,7,8
 200 460 200 460 207 460 c 0,9,10
 211 460 211 460 215.5 456.5 c 128,-1,11
 220 453 220 453 224 453 c 0,12,13
 233 453 233 453 239 462.5 c 128,-1,14
 245 472 245 472 245 482 c 0,15,16
 245 516 245 516 214 516 c 0,17,18
 192 516 192 516 175 498 c 128,-1,19
 158 480 158 480 158 457 c 0,20,21
 158 419 158 419 172 389 c 0,22,23
 189 352 189 352 220 341 c 0,24,25
 229 337 229 337 239 336 c 0,26,27
 252 331 252 331 252 326 c 2,28,-1
 251 259 l 2,29,30
 251 253 251 253 239 250 c 0,31,32
 229 248 229 248 221 247 c 0,33,34
 193 240 193 240 177.5 216 c 128,-1,35
 162 192 162 192 162 162 c 0,36,37
 162 100 162 100 196 28 c 0,38,39
 225 -36 225 -36 272 -90 c 0,40,41
 289 -106 289 -106 311 -137 c 1,42,43
 304 -157 304 -157 277 -199 c 0,44,45
 257 -229 257 -229 237 -259 c 1,46,-1
 231 -263 l 1,47,-1
 225 -260 l 1,48,49
 145 -185 145 -185 84 -69 c 0,50,51
 15 57 15 57 15 155 c 0,52,53
 15 207 15 207 32 244 c 0,54,55
 48 276 48 276 87 316 c 1,56,57
 44 345 44 345 28 390 c 0,58,59
 15 425 15 425 15 486 c 0,60,61
 15 556 15 556 69.5 605 c 128,-1,62
 124 654 124 654 195 654 c 0,63,64
 263 654 263 654 312 607.5 c 128,-1,65
 361 561 361 561 361 493 c 0,0,1
242 826 m 0,66,67
 261 826 261 826 276 812 c 128,-1,68
 291 798 291 798 291 777 c 0,69,70
 291 749 291 749 268 734 c 0,71,72
 259 728 259 728 186.5 707.5 c 128,-1,73
 114 687 114 687 103 687 c 0,74,75
 99 687 99 687 97 690 c 2,76,-1
 96 691 l 1,77,78
 96 698 96 698 151 755.5 c 128,-1,79
 206 813 206 813 217.5 819.5 c 128,-1,80
 229 826 229 826 242 826 c 0,66,67
EndSplineSet
EndChar

StartChar: Ntilde
Encoding: 209 209 100
Width: 553
VWidth: 900
GlyphClass: 1
Flags: W
LayerCount: 2
Fore
SplineSet
521 21 m 0,0,1
 521 20 521 20 501.5 -37.5 c 128,-1,2
 482 -95 482 -95 479.5 -100 c 128,-1,3
 477 -105 477 -105 472 -105 c 2,4,-1
 301 -105 l 2,5,6
 290 -105 290 -105 290 -98 c 0,7,8
 290 -80 290 -80 301 -34 c 0,9,10
 316 32 316 32 316 33 c 0,11,12
 342 174 342 174 342 271 c 0,13,14
 342 523 342 523 184 523 c 0,15,16
 139 523 139 523 103 500 c 0,17,18
 59 474 59 474 59 434 c 0,19,20
 59 421 59 421 68 400.5 c 128,-1,21
 77 380 77 380 77 377 c 0,22,23
 77 370 77 370 63 370 c 0,24,25
 23 370 23 370 2 408 c 0,26,27
 -14 439 -14 439 -14 482 c 0,28,29
 -14 568 -14 568 54 617 c 0,30,31
 115 661 115 661 203 661 c 0,32,33
 346 661 346 661 423 550 c 0,34,35
 491 453 491 453 491 304 c 0,36,37
 491 240 491 240 476 161 c 0,38,39
 471 134 471 134 445 20 c 1,40,-1
 512 30 l 2,41,42
 521 31 521 31 521 21 c 0,0,1
268 -98 m 1,43,44
 268 -105 268 -105 261 -105 c 2,45,-1
 95 -105 l 2,46,47
 88 -105 88 -105 88 -98 c 1,48,49
 88 -98 88 -98 100.5 -80.5 c 128,-1,50
 113 -63 113 -63 113 -43 c 2,51,-1
 113 345 l 2,52,53
 113 370 113 370 94 419 c 0,54,55
 94 424 94 424 101 426 c 0,56,57
 128 435 128 435 156 445 c 0,58,59
 186 456 186 456 207 471 c 0,60,61
 218 480 218 480 241 496 c 0,62,63
 248 496 248 496 248 488 c 2,64,-1
 247 33 l 2,65,66
 247 -33 247 -33 248.5 -49.5 c 128,-1,67
 250 -66 250 -66 259 -83 c 128,-1,68
 268 -100 268 -100 268 -98 c 1,43,44
230 726 m 0,69,70
 230 718 230 718 238.5 711.5 c 128,-1,71
 247 705 247 705 247 702 c 0,72,73
 247 682 247 682 216 682 c 0,74,75
 193 682 193 682 178 703 c 0,76,77
 167 721 167 721 167 745 c 0,78,79
 167 781 167 781 187.5 800.5 c 128,-1,80
 208 820 208 820 243 820 c 0,81,82
 270 820 270 820 294 806 c 0,83,84
 304 799 304 799 328 781 c 0,85,86
 344 766 344 766 353 766 c 0,87,88
 373 766 373 766 373 784 c 0,89,90
 373 791 373 791 364.5 798.5 c 128,-1,91
 356 806 356 806 356 808 c 0,92,93
 356 827 356 827 387 827 c 0,94,95
 410 827 410 827 424 807 c 0,96,97
 437 789 437 789 437 764 c 0,98,99
 437 730 437 730 415.5 710 c 128,-1,100
 394 690 394 690 359 690 c 0,101,102
 332 690 332 690 308 703 c 0,103,104
 297 709 297 709 276 730 c 0,105,106
 258 745 258 745 250 745 c 0,107,108
 230 745 230 745 230 726 c 0,69,70
EndSplineSet
EndChar

StartChar: Odieresis
Encoding: 214 214 101
Width: 430
VWidth: 900
GlyphClass: 1
Flags: W
LayerCount: 2
Fore
SplineSet
407 102 m 2,0,1
 407 18 407 18 354 -44 c 0,2,3
 298 -111 298 -111 216 -111 c 0,4,5
 133 -111 133 -111 77 -44 c 0,6,7
 25 18 25 18 25 102 c 2,8,-1
 25 283 l 2,9,10
 25 354 25 354 49 397 c 0,11,12
 81 451 81 451 146 451 c 0,13,14
 190 451 190 451 214 417 c 0,15,16
 236 387 236 387 236 341 c 0,17,18
 236 330 236 330 228 330 c 0,19,20
 225 330 225 330 215 337.5 c 128,-1,21
 205 345 205 345 196 345 c 0,22,23
 184 345 184 345 175 332 c 128,-1,24
 166 319 166 319 166 305 c 2,25,-1
 166 107 l 2,26,27
 166 85 166 85 178 67 c 0,28,29
 193 48 193 48 214 48 c 0,30,31
 234 48 234 48 247 67 c 0,32,33
 261 85 261 85 261 107 c 2,34,-1
 261 403 l 2,35,36
 261 520 261 520 182 520 c 0,37,38
 169 520 169 520 157 513 c 128,-1,39
 145 506 145 506 145 495 c 0,40,41
 145 491 145 491 146 485 c 128,-1,42
 147 479 147 479 147 476 c 0,43,44
 147 469 147 469 139 469 c 0,45,46
 115 469 115 469 97.5 491 c 128,-1,47
 80 513 80 513 80 535 c 0,48,49
 80 594 80 594 120 629 c 0,50,51
 157 662 157 662 216 662 c 0,52,53
 298 662 298 662 354 597 c 0,54,55
 407 534 407 534 407 449 c 2,56,-1
 407 102 l 2,0,1
198 759 m 256,57,58
 198 735 198 735 181 717.5 c 128,-1,59
 164 700 164 700 141 700 c 0,60,61
 117 700 117 700 100.5 717.5 c 128,-1,62
 84 735 84 735 84 759 c 256,63,64
 84 783 84 783 100.5 801 c 128,-1,65
 117 819 117 819 141 819 c 0,66,67
 164 819 164 819 181 801 c 128,-1,68
 198 783 198 783 198 759 c 256,57,58
360 759 m 256,69,70
 360 735 360 735 343 717.5 c 128,-1,71
 326 700 326 700 303 700 c 0,72,73
 279 700 279 700 262.5 717.5 c 128,-1,74
 246 735 246 735 246 759 c 256,75,76
 246 783 246 783 262.5 801 c 128,-1,77
 279 819 279 819 303 819 c 0,78,79
 326 819 326 819 343 801 c 128,-1,80
 360 783 360 783 360 759 c 256,69,70
EndSplineSet
EndChar

StartChar: Udieresis
Encoding: 220 220 102
Width: 524
VWidth: 900
GlyphClass: 1
Flags: W
LayerCount: 2
Fore
SplineSet
427 641 m 1,0,1
 427 643 427 643 414 625 c 128,-1,2
 401 607 401 607 401 588 c 2,3,-1
 401 200 l 2,4,5
 401 165 401 165 412 130 c 0,6,7
 413 129 413 129 414 125 c 0,8,9
 414 120 414 120 408 118 c 0,10,11
 351 97 351 97 339 93 c 0,12,13
 305 76 305 76 279 51 c 1,14,-1
 273 49 l 2,15,16
 265 49 265 49 265 57 c 2,17,-1
 265 588 l 2,18,19
 265 624 265 624 250 634 c 0,20,21
 244 639 244 639 244 641 c 0,22,23
 244 650 244 650 253 650 c 2,24,-1
 419 650 l 2,25,26
 427 650 427 650 427 641 c 1,0,1
522 46 m 0,27,28
 522 12 522 12 501 -24 c 0,29,30
 442 -124 442 -124 301 -124 c 0,31,32
 158 -124 158 -124 85 -12 c 0,33,34
 22 84 22 84 22 236 c 0,35,36
 22 337 22 337 56 475 c 0,37,38
 74 546 74 546 74 575 c 0,39,40
 74 606 74 606 50 642 c 1,41,42
 50 650 50 650 58 650 c 2,43,-1
 224 650 l 2,44,45
 232 650 232 650 232 642 c 0,46,47
 232 604 232 604 199.5 453 c 128,-1,48
 167 302 167 302 167 224 c 0,49,50
 167 143 167 143 200 83 c 0,51,52
 239 8 239 8 314 8 c 0,53,54
 364 8 364 8 399 35 c 0,55,56
 437 64 437 64 437 111 c 0,57,58
 437 118 437 118 435.5 130.5 c 128,-1,59
 434 143 434 143 434 150 c 0,60,61
 434 158 434 158 448 158 c 0,62,63
 487 158 487 158 507 120 c 0,64,65
 522 89 522 89 522 46 c 0,27,28
241 759 m 256,66,67
 241 735 241 735 224 717.5 c 128,-1,68
 207 700 207 700 184 700 c 0,69,70
 160 700 160 700 143.5 717.5 c 128,-1,71
 127 735 127 735 127 759 c 256,72,73
 127 783 127 783 143.5 801 c 128,-1,74
 160 819 160 819 184 819 c 0,75,76
 207 819 207 819 224 801 c 128,-1,77
 241 783 241 783 241 759 c 256,66,67
403 759 m 256,78,79
 403 735 403 735 386 717.5 c 128,-1,80
 369 700 369 700 346 700 c 0,81,82
 322 700 322 700 305.5 717.5 c 128,-1,83
 289 735 289 735 289 759 c 256,84,85
 289 783 289 783 305.5 801 c 128,-1,86
 322 819 322 819 346 819 c 0,87,88
 369 819 369 819 386 801 c 128,-1,89
 403 783 403 783 403 759 c 256,78,79
EndSplineSet
EndChar

StartChar: aacute
Encoding: 225 225 103
Width: 335
VWidth: 900
GlyphClass: 1
Flags: W
LayerCount: 2
Fore
SplineSet
195 -76 m 1,0,1
 165 -113 165 -113 119 -113 c 0,2,3
 71 -113 71 -113 40 -84 c 128,-1,4
 9 -55 9 -55 9 -8 c 0,5,6
 9 51 9 51 49 93 c 0,7,8
 76 121 76 121 142 154 c 0,9,10
 165 165 165 165 168 166 c 0,11,12
 184 175 184 175 192 184 c 1,13,-1
 193 234 l 2,14,15
 193 244 193 244 183.5 250 c 128,-1,16
 174 256 174 256 164 256 c 0,17,18
 130 256 130 256 130 233 c 0,19,20
 130 216 130 216 147.5 212 c 128,-1,21
 165 208 165 208 165 202 c 0,22,23
 165 189 165 189 139 175 c 0,24,25
 114 164 114 164 99 164 c 0,26,27
 63 164 63 164 42 192 c 0,28,29
 23 217 23 217 23 254 c 0,30,31
 23 305 23 305 70 337 c 0,32,33
 113 368 113 368 167 368 c 0,34,35
 228 368 228 368 272 334 c 0,36,37
 319 298 319 298 319 238 c 2,38,-1
 320 -16 l 2,39,40
 320 -41 320 -41 328 -60 c 0,41,42
 333 -74 333 -74 344 -87 c 0,43,44
 351 -97 351 -97 351 -98 c 0,45,46
 351 -105 351 -105 344 -105 c 2,47,-1
 208 -105 l 2,48,49
 200 -105 200 -105 195 -76 c 1,0,1
192 69 m 1,50,51
 164 57 164 57 156 49 c 0,52,53
 137 35 137 35 137 15 c 0,54,55
 137 -2 137 -2 157 -2 c 0,56,57
 175 -2 175 -2 183 17 c 0,58,59
 187 32 187 32 192 48 c 1,60,-1
 192 69 l 1,50,51
231 534 m 0,61,62
 250 534 250 534 265 520 c 128,-1,63
 280 506 280 506 280 485 c 0,64,65
 280 457 280 457 257 442 c 0,66,67
 248 436 248 436 175.5 415.5 c 128,-1,68
 103 395 103 395 92 395 c 0,69,70
 88 395 88 395 86 398 c 2,71,-1
 85 399 l 1,72,73
 85 406 85 406 140 463.5 c 128,-1,74
 195 521 195 521 206.5 527.5 c 128,-1,75
 218 534 218 534 231 534 c 0,61,62
EndSplineSet
EndChar

StartChar: agrave
Encoding: 224 224 104
Width: 335
VWidth: 900
GlyphClass: 1
Flags: W
LayerCount: 2
Fore
SplineSet
195 -76 m 1,0,1
 165 -113 165 -113 119 -113 c 0,2,3
 71 -113 71 -113 40 -84 c 128,-1,4
 9 -55 9 -55 9 -8 c 0,5,6
 9 51 9 51 49 93 c 0,7,8
 76 121 76 121 142 154 c 0,9,10
 165 165 165 165 168 166 c 0,11,12
 184 175 184 175 192 184 c 1,13,-1
 193 234 l 2,14,15
 193 244 193 244 183.5 250 c 128,-1,16
 174 256 174 256 164 256 c 0,17,18
 130 256 130 256 130 233 c 0,19,20
 130 216 130 216 147.5 212 c 128,-1,21
 165 208 165 208 165 202 c 0,22,23
 165 189 165 189 139 175 c 0,24,25
 114 164 114 164 99 164 c 0,26,27
 63 164 63 164 42 192 c 0,28,29
 23 217 23 217 23 254 c 0,30,31
 23 305 23 305 70 337 c 0,32,33
 113 368 113 368 167 368 c 0,34,35
 228 368 228 368 272 334 c 0,36,37
 319 298 319 298 319 238 c 2,38,-1
 320 -16 l 2,39,40
 320 -41 320 -41 328 -60 c 0,41,42
 333 -74 333 -74 344 -87 c 0,43,44
 351 -97 351 -97 351 -98 c 0,45,46
 351 -105 351 -105 344 -105 c 2,47,-1
 208 -105 l 2,48,49
 200 -105 200 -105 195 -76 c 1,0,1
192 69 m 1,50,51
 164 57 164 57 156 49 c 0,52,53
 137 35 137 35 137 15 c 0,54,55
 137 -2 137 -2 157 -2 c 0,56,57
 175 -2 175 -2 183 17 c 0,58,59
 187 32 187 32 192 48 c 1,60,-1
 192 69 l 1,50,51
274 399 m 0,61,62
 274 395 274 395 268 395 c 0,63,64
 255 395 255 395 184.5 415 c 128,-1,65
 114 435 114 435 104 442 c 0,66,67
 80 458 80 458 80 485 c 0,68,69
 80 506 80 506 94.5 520.5 c 128,-1,70
 109 535 109 535 129 535 c 0,71,72
 142 535 142 535 155 528 c 0,73,74
 165 522 165 522 219.5 464 c 128,-1,75
 274 406 274 406 274 399 c 0,61,62
EndSplineSet
EndChar

StartChar: acircumflex
Encoding: 226 226 105
Width: 335
VWidth: 900
GlyphClass: 1
Flags: W
LayerCount: 2
Fore
SplineSet
195 -76 m 1,0,1
 165 -113 165 -113 119 -113 c 0,2,3
 71 -113 71 -113 40 -84 c 128,-1,4
 9 -55 9 -55 9 -8 c 0,5,6
 9 51 9 51 49 93 c 0,7,8
 76 121 76 121 142 154 c 0,9,10
 165 165 165 165 168 166 c 0,11,12
 184 175 184 175 192 184 c 1,13,-1
 193 234 l 2,14,15
 193 244 193 244 183.5 250 c 128,-1,16
 174 256 174 256 164 256 c 0,17,18
 130 256 130 256 130 233 c 0,19,20
 130 216 130 216 147.5 212 c 128,-1,21
 165 208 165 208 165 202 c 0,22,23
 165 189 165 189 139 175 c 0,24,25
 114 164 114 164 99 164 c 0,26,27
 63 164 63 164 42 192 c 0,28,29
 23 217 23 217 23 254 c 0,30,31
 23 305 23 305 70 337 c 0,32,33
 113 368 113 368 167 368 c 0,34,35
 228 368 228 368 272 334 c 0,36,37
 319 298 319 298 319 238 c 2,38,-1
 320 -16 l 2,39,40
 320 -41 320 -41 328 -60 c 0,41,42
 333 -74 333 -74 344 -87 c 0,43,44
 351 -97 351 -97 351 -98 c 0,45,46
 351 -105 351 -105 344 -105 c 2,47,-1
 208 -105 l 2,48,49
 200 -105 200 -105 195 -76 c 1,0,1
192 69 m 1,50,51
 164 57 164 57 156 49 c 0,52,53
 137 35 137 35 137 15 c 0,54,55
 137 -2 137 -2 157 -2 c 0,56,57
 175 -2 175 -2 183 17 c 0,58,59
 187 32 187 32 192 48 c 1,60,-1
 192 69 l 1,50,51
173 436 m 1,61,62
 90 391 90 391 86 391 c 0,63,64
 81 391 81 391 71 405.5 c 128,-1,65
 61 420 61 420 61 426 c 0,66,67
 61 431 61 431 67 435 c 0,68,69
 125 470 125 470 164 539 c 0,70,71
 168 545 168 545 173 545 c 0,72,73
 179 545 179 545 182 539 c 0,74,75
 222 470 222 470 279 435 c 0,76,77
 285 431 285 431 285 426 c 0,78,79
 285 420 285 420 275.5 405.5 c 128,-1,80
 266 391 266 391 260 391 c 0,81,82
 257 391 257 391 173 436 c 1,61,62
EndSplineSet
EndChar

StartChar: adieresis
Encoding: 228 228 106
Width: 335
VWidth: 900
GlyphClass: 1
Flags: W
LayerCount: 2
Fore
SplineSet
195 -76 m 1,0,1
 165 -113 165 -113 119 -113 c 0,2,3
 71 -113 71 -113 40 -84 c 128,-1,4
 9 -55 9 -55 9 -8 c 0,5,6
 9 51 9 51 49 93 c 0,7,8
 76 121 76 121 142 154 c 0,9,10
 165 165 165 165 168 166 c 0,11,12
 184 175 184 175 192 184 c 1,13,-1
 193 234 l 2,14,15
 193 244 193 244 183.5 250 c 128,-1,16
 174 256 174 256 164 256 c 0,17,18
 130 256 130 256 130 233 c 0,19,20
 130 216 130 216 147.5 212 c 128,-1,21
 165 208 165 208 165 202 c 0,22,23
 165 189 165 189 139 175 c 0,24,25
 114 164 114 164 99 164 c 0,26,27
 63 164 63 164 42 192 c 0,28,29
 23 217 23 217 23 254 c 0,30,31
 23 305 23 305 70 337 c 0,32,33
 113 368 113 368 167 368 c 0,34,35
 228 368 228 368 272 334 c 0,36,37
 319 298 319 298 319 238 c 2,38,-1
 320 -16 l 2,39,40
 320 -41 320 -41 328 -60 c 0,41,42
 333 -74 333 -74 344 -87 c 0,43,44
 351 -97 351 -97 351 -98 c 0,45,46
 351 -105 351 -105 344 -105 c 2,47,-1
 208 -105 l 2,48,49
 200 -105 200 -105 195 -76 c 1,0,1
192 69 m 1,50,51
 164 57 164 57 156 49 c 0,52,53
 137 35 137 35 137 15 c 0,54,55
 137 -2 137 -2 157 -2 c 0,56,57
 175 -2 175 -2 183 17 c 0,58,59
 187 32 187 32 192 48 c 1,60,-1
 192 69 l 1,50,51
147 467 m 256,61,62
 147 443 147 443 130 425.5 c 128,-1,63
 113 408 113 408 90 408 c 0,64,65
 66 408 66 408 49.5 425.5 c 128,-1,66
 33 443 33 443 33 467 c 256,67,68
 33 491 33 491 49.5 509 c 128,-1,69
 66 527 66 527 90 527 c 0,70,71
 113 527 113 527 130 509 c 128,-1,72
 147 491 147 491 147 467 c 256,61,62
309 467 m 256,73,74
 309 443 309 443 292 425.5 c 128,-1,75
 275 408 275 408 252 408 c 0,76,77
 228 408 228 408 211.5 425.5 c 128,-1,78
 195 443 195 443 195 467 c 256,79,80
 195 491 195 491 211.5 509 c 128,-1,81
 228 527 228 527 252 527 c 0,82,83
 275 527 275 527 292 509 c 128,-1,84
 309 491 309 491 309 467 c 256,73,74
EndSplineSet
EndChar

StartChar: atilde
Encoding: 227 227 107
Width: 335
VWidth: 900
GlyphClass: 1
Flags: W
LayerCount: 2
Fore
SplineSet
195 -76 m 1,0,1
 165 -113 165 -113 119 -113 c 0,2,3
 71 -113 71 -113 40 -84 c 128,-1,4
 9 -55 9 -55 9 -8 c 0,5,6
 9 51 9 51 49 93 c 0,7,8
 76 121 76 121 142 154 c 0,9,10
 165 165 165 165 168 166 c 0,11,12
 184 175 184 175 192 184 c 1,13,-1
 193 234 l 2,14,15
 193 244 193 244 183.5 250 c 128,-1,16
 174 256 174 256 164 256 c 0,17,18
 130 256 130 256 130 233 c 0,19,20
 130 216 130 216 147.5 212 c 128,-1,21
 165 208 165 208 165 202 c 0,22,23
 165 189 165 189 139 175 c 0,24,25
 114 164 114 164 99 164 c 0,26,27
 63 164 63 164 42 192 c 0,28,29
 23 217 23 217 23 254 c 0,30,31
 23 305 23 305 70 337 c 0,32,33
 113 368 113 368 167 368 c 0,34,35
 228 368 228 368 272 334 c 0,36,37
 319 298 319 298 319 238 c 2,38,-1
 320 -16 l 2,39,40
 320 -41 320 -41 328 -60 c 0,41,42
 333 -74 333 -74 344 -87 c 0,43,44
 351 -97 351 -97 351 -98 c 0,45,46
 351 -105 351 -105 344 -105 c 2,47,-1
 208 -105 l 2,48,49
 200 -105 200 -105 195 -76 c 1,0,1
192 69 m 1,50,51
 164 57 164 57 156 49 c 0,52,53
 137 35 137 35 137 15 c 0,54,55
 137 -2 137 -2 157 -2 c 0,56,57
 175 -2 175 -2 183 17 c 0,58,59
 187 32 187 32 192 48 c 1,60,-1
 192 69 l 1,50,51
109 434 m 0,61,62
 109 426 109 426 117.5 419.5 c 128,-1,63
 126 413 126 413 126 410 c 0,64,65
 126 390 126 390 95 390 c 0,66,67
 72 390 72 390 57 411 c 0,68,69
 46 429 46 429 46 453 c 0,70,71
 46 489 46 489 66.5 508.5 c 128,-1,72
 87 528 87 528 122 528 c 0,73,74
 149 528 149 528 173 514 c 0,75,76
 183 507 183 507 207 489 c 0,77,78
 223 474 223 474 232 474 c 0,79,80
 252 474 252 474 252 492 c 0,81,82
 252 499 252 499 243.5 506.5 c 128,-1,83
 235 514 235 514 235 516 c 0,84,85
 235 535 235 535 266 535 c 0,86,87
 289 535 289 535 303 515 c 0,88,89
 316 497 316 497 316 472 c 0,90,91
 316 438 316 438 294.5 418 c 128,-1,92
 273 398 273 398 238 398 c 0,93,94
 211 398 211 398 187 411 c 0,95,96
 176 417 176 417 155 438 c 0,97,98
 137 453 137 453 129 453 c 0,99,100
 109 453 109 453 109 434 c 0,61,62
EndSplineSet
EndChar

StartChar: aring
Encoding: 229 229 108
Width: 335
VWidth: 900
GlyphClass: 1
Flags: W
LayerCount: 2
Fore
SplineSet
195 -76 m 1,0,1
 165 -113 165 -113 119 -113 c 0,2,3
 71 -113 71 -113 40 -84 c 128,-1,4
 9 -55 9 -55 9 -8 c 0,5,6
 9 51 9 51 49 93 c 0,7,8
 76 121 76 121 142 154 c 0,9,10
 165 165 165 165 168 166 c 0,11,12
 184 175 184 175 192 184 c 1,13,-1
 193 234 l 2,14,15
 193 244 193 244 183.5 250 c 128,-1,16
 174 256 174 256 164 256 c 0,17,18
 130 256 130 256 130 233 c 0,19,20
 130 216 130 216 147.5 212 c 128,-1,21
 165 208 165 208 165 202 c 0,22,23
 165 189 165 189 139 175 c 0,24,25
 114 164 114 164 99 164 c 0,26,27
 63 164 63 164 42 192 c 0,28,29
 23 217 23 217 23 254 c 0,30,31
 23 305 23 305 70 337 c 0,32,33
 113 368 113 368 167 368 c 0,34,35
 228 368 228 368 272 334 c 0,36,37
 319 298 319 298 319 238 c 2,38,-1
 320 -16 l 2,39,40
 320 -41 320 -41 328 -60 c 0,41,42
 333 -74 333 -74 344 -87 c 0,43,44
 351 -97 351 -97 351 -98 c 0,45,46
 351 -105 351 -105 344 -105 c 2,47,-1
 208 -105 l 2,48,49
 200 -105 200 -105 195 -76 c 1,0,1
192 69 m 1,50,51
 164 57 164 57 156 49 c 0,52,53
 137 35 137 35 137 15 c 0,54,55
 137 -2 137 -2 157 -2 c 0,56,57
 175 -2 175 -2 183 17 c 0,58,59
 187 32 187 32 192 48 c 1,60,-1
 192 69 l 1,50,51
256 485 m 256,61,62
 256 450 256 450 231 424.5 c 128,-1,63
 206 399 206 399 171 399 c 256,64,65
 136 399 136 399 110.5 424.5 c 128,-1,66
 85 450 85 450 85 485 c 256,67,68
 85 520 85 520 110.5 545 c 128,-1,69
 136 570 136 570 171 570 c 256,70,71
 206 570 206 570 231 545 c 128,-1,72
 256 520 256 520 256 485 c 256,61,62
171 514 m 0,73,74
 160 514 160 514 151 505 c 128,-1,75
 142 496 142 496 142 485 c 0,76,77
 142 473 142 473 150.5 464.5 c 128,-1,78
 159 456 159 456 171 456 c 256,79,80
 183 456 183 456 191.5 464.5 c 128,-1,81
 200 473 200 473 200 485 c 0,82,83
 200 496 200 496 191.5 505 c 128,-1,84
 183 514 183 514 171 514 c 0,73,74
EndSplineSet
EndChar

StartChar: ccedilla
Encoding: 231 231 109
Width: 322
VWidth: 900
GlyphClass: 1
Flags: W
LayerCount: 2
Fore
SplineSet
240 -134 m 0,0,1
 240 -172 240 -172 219 -192.5 c 128,-1,2
 198 -213 198 -213 160 -213 c 0,3,4
 103 -213 103 -213 103 -159 c 0,5,6
 103 -140 103 -140 115 -140 c 0,7,8
 116 -140 116 -140 122.5 -151.5 c 128,-1,9
 129 -163 129 -163 139 -163 c 0,10,11
 168 -163 168 -163 168 -135 c 0,12,13
 168 -123 168 -123 158 -119 c 0,14,15
 67 -114 67 -114 31 -33 c 0,16,17
 7 23 7 23 7 130 c 0,18,19
 7 244 7 244 34 300 c 0,20,21
 72 380 72 380 174 380 c 0,22,23
 220 380 220 380 258 359 c 0,24,25
 301 336 301 336 315 294 c 0,26,27
 315 293 315 293 315 291 c 0,28,29
 315 288 315 288 311 284 c 0,30,31
 286 265 286 265 261 245 c 0,32,33
 232 221 232 221 215 200 c 1,34,-1
 209 197 l 2,35,36
 202 196 202 196 201 210 c 0,37,38
 200 233 200 233 197 239 c 0,39,40
 191 255 191 255 171 255 c 0,41,42
 160 255 160 255 151 246 c 128,-1,43
 142 237 142 237 142 226 c 2,44,-1
 142 38 l 2,45,46
 142 24 142 24 153 13.5 c 128,-1,47
 164 3 164 3 177 3 c 0,48,49
 217 3 217 3 217 39 c 0,50,51
 217 57 217 57 199.5 62.5 c 128,-1,52
 182 68 182 68 182 73 c 0,53,54
 182 87 182 87 209 101 c 0,55,56
 232 114 232 114 247 114 c 0,57,58
 283 114 283 114 308 81 c 0,59,60
 328 51 328 51 328 13 c 0,61,62
 328 -27 328 -27 301 -62.5 c 128,-1,63
 274 -98 274 -98 234 -111 c 1,64,65
 240 -124 240 -124 240 -134 c 0,0,1
EndSplineSet
EndChar

StartChar: eacute
Encoding: 233 233 110
Width: 328
VWidth: 900
GlyphClass: 1
Flags: W
LayerCount: 2
Fore
SplineSet
324 194 m 0,0,1
 324 184 324 184 319 183 c 2,2,-1
 139 93 l 1,3,-1
 139 36 l 2,4,5
 139 24 139 24 148 15.5 c 128,-1,6
 157 7 157 7 168 7 c 0,7,8
 212 7 212 7 212 42 c 0,9,10
 212 58 212 58 195 62 c 128,-1,11
 178 66 178 66 178 71 c 0,12,13
 178 85 178 85 205 98 c 0,14,15
 229 110 229 110 243 110 c 0,16,17
 278 110 278 110 301 79 c 0,18,19
 322 52 322 52 322 17 c 0,20,21
 322 2 322 2 318 -15 c 0,22,23
 287 -114 287 -114 171 -114 c 0,24,25
 72 -114 72 -114 34 -36 c 0,26,27
 7 19 7 19 7 130 c 0,28,29
 7 242 7 242 34 296 c 0,30,31
 71 374 71 374 171 374 c 0,32,33
 324 374 324 374 324 194 c 0,0,1
197 222 m 1,34,-1
 197 223 l 2,35,36
 197 235 197 235 188.5 243.5 c 128,-1,37
 180 252 180 252 168 252 c 0,38,39
 157 252 157 252 148 243.5 c 128,-1,40
 139 235 139 235 139 223 c 2,41,-1
 139 193 l 1,42,-1
 197 222 l 1,34,-1
231 534 m 0,43,44
 250 534 250 534 265 520 c 128,-1,45
 280 506 280 506 280 485 c 0,46,47
 280 457 280 457 257 442 c 0,48,49
 248 436 248 436 175.5 415.5 c 128,-1,50
 103 395 103 395 92 395 c 0,51,52
 88 395 88 395 86 398 c 2,53,-1
 85 399 l 1,54,55
 85 406 85 406 140 463.5 c 128,-1,56
 195 521 195 521 206.5 527.5 c 128,-1,57
 218 534 218 534 231 534 c 0,43,44
EndSplineSet
EndChar

StartChar: egrave
Encoding: 232 232 111
Width: 328
VWidth: 900
GlyphClass: 1
Flags: W
LayerCount: 2
Fore
SplineSet
324 194 m 0,0,1
 324 184 324 184 319 183 c 2,2,-1
 139 93 l 1,3,-1
 139 36 l 2,4,5
 139 24 139 24 148 15.5 c 128,-1,6
 157 7 157 7 168 7 c 0,7,8
 212 7 212 7 212 42 c 0,9,10
 212 58 212 58 195 62 c 128,-1,11
 178 66 178 66 178 71 c 0,12,13
 178 85 178 85 205 98 c 0,14,15
 229 110 229 110 243 110 c 0,16,17
 278 110 278 110 301 79 c 0,18,19
 322 52 322 52 322 17 c 0,20,21
 322 2 322 2 318 -15 c 0,22,23
 287 -114 287 -114 171 -114 c 0,24,25
 72 -114 72 -114 34 -36 c 0,26,27
 7 19 7 19 7 130 c 0,28,29
 7 242 7 242 34 296 c 0,30,31
 71 374 71 374 171 374 c 0,32,33
 324 374 324 374 324 194 c 0,0,1
197 222 m 1,34,-1
 197 223 l 2,35,36
 197 235 197 235 188.5 243.5 c 128,-1,37
 180 252 180 252 168 252 c 0,38,39
 157 252 157 252 148 243.5 c 128,-1,40
 139 235 139 235 139 223 c 2,41,-1
 139 193 l 1,42,-1
 197 222 l 1,34,-1
276 399 m 0,43,44
 276 395 276 395 270 395 c 0,45,46
 257 395 257 395 186.5 415 c 128,-1,47
 116 435 116 435 106 442 c 0,48,49
 82 458 82 458 82 485 c 0,50,51
 82 506 82 506 96.5 520.5 c 128,-1,52
 111 535 111 535 131 535 c 0,53,54
 144 535 144 535 157 528 c 0,55,56
 167 522 167 522 221.5 464 c 128,-1,57
 276 406 276 406 276 399 c 0,43,44
EndSplineSet
EndChar

StartChar: ecircumflex
Encoding: 234 234 112
Width: 328
VWidth: 900
GlyphClass: 1
Flags: W
LayerCount: 2
Fore
SplineSet
324 194 m 0,0,1
 324 184 324 184 319 183 c 2,2,-1
 139 93 l 1,3,-1
 139 36 l 2,4,5
 139 24 139 24 148 15.5 c 128,-1,6
 157 7 157 7 168 7 c 0,7,8
 212 7 212 7 212 42 c 0,9,10
 212 58 212 58 195 62 c 128,-1,11
 178 66 178 66 178 71 c 0,12,13
 178 85 178 85 205 98 c 0,14,15
 229 110 229 110 243 110 c 0,16,17
 278 110 278 110 301 79 c 0,18,19
 322 52 322 52 322 17 c 0,20,21
 322 2 322 2 318 -15 c 0,22,23
 287 -114 287 -114 171 -114 c 0,24,25
 72 -114 72 -114 34 -36 c 0,26,27
 7 19 7 19 7 130 c 0,28,29
 7 242 7 242 34 296 c 0,30,31
 71 374 71 374 171 374 c 0,32,33
 324 374 324 374 324 194 c 0,0,1
197 222 m 1,34,-1
 197 223 l 2,35,36
 197 235 197 235 188.5 243.5 c 128,-1,37
 180 252 180 252 168 252 c 0,38,39
 157 252 157 252 148 243.5 c 128,-1,40
 139 235 139 235 139 223 c 2,41,-1
 139 193 l 1,42,-1
 197 222 l 1,34,-1
173 436 m 1,43,44
 90 391 90 391 86 391 c 0,45,46
 81 391 81 391 71 405.5 c 128,-1,47
 61 420 61 420 61 426 c 0,48,49
 61 431 61 431 67 435 c 0,50,51
 125 470 125 470 164 539 c 0,52,53
 168 545 168 545 173 545 c 0,54,55
 179 545 179 545 182 539 c 0,56,57
 222 470 222 470 279 435 c 0,58,59
 285 431 285 431 285 426 c 0,60,61
 285 420 285 420 275.5 405.5 c 128,-1,62
 266 391 266 391 260 391 c 0,63,64
 257 391 257 391 173 436 c 1,43,44
EndSplineSet
EndChar

StartChar: edieresis
Encoding: 235 235 113
Width: 328
VWidth: 900
GlyphClass: 1
Flags: W
LayerCount: 2
Fore
SplineSet
324 194 m 0,0,1
 324 184 324 184 319 183 c 2,2,-1
 139 93 l 1,3,-1
 139 36 l 2,4,5
 139 24 139 24 148 15.5 c 128,-1,6
 157 7 157 7 168 7 c 0,7,8
 212 7 212 7 212 42 c 0,9,10
 212 58 212 58 195 62 c 128,-1,11
 178 66 178 66 178 71 c 0,12,13
 178 85 178 85 205 98 c 0,14,15
 229 110 229 110 243 110 c 0,16,17
 278 110 278 110 301 79 c 0,18,19
 322 52 322 52 322 17 c 0,20,21
 322 2 322 2 318 -15 c 0,22,23
 287 -114 287 -114 171 -114 c 0,24,25
 72 -114 72 -114 34 -36 c 0,26,27
 7 19 7 19 7 130 c 0,28,29
 7 242 7 242 34 296 c 0,30,31
 71 374 71 374 171 374 c 0,32,33
 324 374 324 374 324 194 c 0,0,1
197 222 m 1,34,-1
 197 223 l 2,35,36
 197 235 197 235 188.5 243.5 c 128,-1,37
 180 252 180 252 168 252 c 0,38,39
 157 252 157 252 148 243.5 c 128,-1,40
 139 235 139 235 139 223 c 2,41,-1
 139 193 l 1,42,-1
 197 222 l 1,34,-1
149 467 m 256,43,44
 149 443 149 443 132 425.5 c 128,-1,45
 115 408 115 408 92 408 c 0,46,47
 68 408 68 408 51.5 425.5 c 128,-1,48
 35 443 35 443 35 467 c 256,49,50
 35 491 35 491 51.5 509 c 128,-1,51
 68 527 68 527 92 527 c 0,52,53
 115 527 115 527 132 509 c 128,-1,54
 149 491 149 491 149 467 c 256,43,44
311 467 m 256,55,56
 311 443 311 443 294 425.5 c 128,-1,57
 277 408 277 408 254 408 c 0,58,59
 230 408 230 408 213.5 425.5 c 128,-1,60
 197 443 197 443 197 467 c 256,61,62
 197 491 197 491 213.5 509 c 128,-1,63
 230 527 230 527 254 527 c 0,64,65
 277 527 277 527 294 509 c 128,-1,66
 311 491 311 491 311 467 c 256,55,56
EndSplineSet
EndChar

StartChar: iacute
Encoding: 237 237 114
Width: 203
VWidth: 900
GlyphClass: 1
Flags: W
LayerCount: 2
Fore
SplineSet
202 -96 m 1,0,1
 202 -105 202 -105 194 -105 c 2,2,-1
 18 -105 l 2,3,4
 11 -105 11 -105 11 -96 c 1,5,6
 11 -98 11 -98 25.5 -80 c 128,-1,7
 40 -62 40 -62 40 -43 c 2,8,-1
 40 237 l 2,9,10
 40 262 40 262 26.5 285.5 c 128,-1,11
 13 309 13 309 13 305 c 1,12,13
 13 309 13 309 20 312 c 0,14,15
 52 323 52 323 117 352 c 0,16,17
 129 360 129 360 141 367 c 0,18,19
 159 378 159 378 164 378 c 0,20,21
 172 378 172 378 172 370 c 2,22,-1
 172 -43 l 2,23,24
 172 -62 172 -62 187 -80 c 128,-1,25
 202 -98 202 -98 202 -96 c 1,0,1
174 534 m 0,26,27
 193 534 193 534 208 520 c 128,-1,28
 223 506 223 506 223 485 c 0,29,30
 223 457 223 457 200 442 c 0,31,32
 191 436 191 436 118.5 415.5 c 128,-1,33
 46 395 46 395 35 395 c 0,34,35
 31 395 31 395 29 398 c 2,36,-1
 28 399 l 1,37,38
 28 406 28 406 83 463.5 c 128,-1,39
 138 521 138 521 149.5 527.5 c 128,-1,40
 161 534 161 534 174 534 c 0,26,27
EndSplineSet
EndChar

StartChar: igrave
Encoding: 236 236 115
Width: 203
VWidth: 900
GlyphClass: 1
Flags: W
LayerCount: 2
Fore
SplineSet
202 -96 m 1,0,1
 202 -105 202 -105 194 -105 c 2,2,-1
 18 -105 l 2,3,4
 11 -105 11 -105 11 -96 c 1,5,6
 11 -98 11 -98 25.5 -80 c 128,-1,7
 40 -62 40 -62 40 -43 c 2,8,-1
 40 237 l 2,9,10
 40 262 40 262 26.5 285.5 c 128,-1,11
 13 309 13 309 13 305 c 1,12,13
 13 309 13 309 20 312 c 0,14,15
 52 323 52 323 117 352 c 0,16,17
 129 360 129 360 141 367 c 0,18,19
 159 378 159 378 164 378 c 0,20,21
 172 378 172 378 172 370 c 2,22,-1
 172 -43 l 2,23,24
 172 -62 172 -62 187 -80 c 128,-1,25
 202 -98 202 -98 202 -96 c 1,0,1
198 399 m 0,26,27
 198 395 198 395 192 395 c 0,28,29
 179 395 179 395 108.5 415 c 128,-1,30
 38 435 38 435 28 442 c 0,31,32
 4 458 4 458 4 485 c 0,33,34
 4 506 4 506 18.5 520.5 c 128,-1,35
 33 535 33 535 53 535 c 0,36,37
 66 535 66 535 79 528 c 0,38,39
 89 522 89 522 143.5 464 c 128,-1,40
 198 406 198 406 198 399 c 0,26,27
EndSplineSet
EndChar

StartChar: icircumflex
Encoding: 238 238 116
Width: 203
VWidth: 900
GlyphClass: 1
Flags: W
LayerCount: 2
Fore
SplineSet
202 -96 m 1,0,1
 202 -105 202 -105 194 -105 c 2,2,-1
 18 -105 l 2,3,4
 11 -105 11 -105 11 -96 c 1,5,6
 11 -98 11 -98 25.5 -80 c 128,-1,7
 40 -62 40 -62 40 -43 c 2,8,-1
 40 237 l 2,9,10
 40 262 40 262 26.5 285.5 c 128,-1,11
 13 309 13 309 13 305 c 1,12,13
 13 309 13 309 20 312 c 0,14,15
 52 323 52 323 117 352 c 0,16,17
 129 360 129 360 141 367 c 0,18,19
 159 378 159 378 164 378 c 0,20,21
 172 378 172 378 172 370 c 2,22,-1
 172 -43 l 2,23,24
 172 -62 172 -62 187 -80 c 128,-1,25
 202 -98 202 -98 202 -96 c 1,0,1
105 436 m 1,26,27
 22 391 22 391 18 391 c 0,28,29
 13 391 13 391 3 405.5 c 128,-1,30
 -7 420 -7 420 -7 426 c 0,31,32
 -7 431 -7 431 -1 435 c 0,33,34
 57 470 57 470 96 539 c 0,35,36
 100 545 100 545 105 545 c 0,37,38
 111 545 111 545 114 539 c 0,39,40
 154 470 154 470 211 435 c 0,41,42
 217 431 217 431 217 426 c 0,43,44
 217 420 217 420 207.5 405.5 c 128,-1,45
 198 391 198 391 192 391 c 0,46,47
 189 391 189 391 105 436 c 1,26,27
EndSplineSet
EndChar

StartChar: idieresis
Encoding: 239 239 117
Width: 203
VWidth: 900
GlyphClass: 1
Flags: W
LayerCount: 2
Fore
SplineSet
202 -96 m 1,0,1
 202 -105 202 -105 194 -105 c 2,2,-1
 18 -105 l 2,3,4
 11 -105 11 -105 11 -96 c 1,5,6
 11 -98 11 -98 25.5 -80 c 128,-1,7
 40 -62 40 -62 40 -43 c 2,8,-1
 40 237 l 2,9,10
 40 262 40 262 26.5 285.5 c 128,-1,11
 13 309 13 309 13 305 c 1,12,13
 13 309 13 309 20 312 c 0,14,15
 52 323 52 323 117 352 c 0,16,17
 129 360 129 360 141 367 c 0,18,19
 159 378 159 378 164 378 c 0,20,21
 172 378 172 378 172 370 c 2,22,-1
 172 -43 l 2,23,24
 172 -62 172 -62 187 -80 c 128,-1,25
 202 -98 202 -98 202 -96 c 1,0,1
87 467 m 256,26,27
 87 443 87 443 70 425.5 c 128,-1,28
 53 408 53 408 30 408 c 0,29,30
 6 408 6 408 -10.5 425.5 c 128,-1,31
 -27 443 -27 443 -27 467 c 256,32,33
 -27 491 -27 491 -10.5 509 c 128,-1,34
 6 527 6 527 30 527 c 0,35,36
 53 527 53 527 70 509 c 128,-1,37
 87 491 87 491 87 467 c 256,26,27
249 467 m 256,38,39
 249 443 249 443 232 425.5 c 128,-1,40
 215 408 215 408 192 408 c 0,41,42
 168 408 168 408 151.5 425.5 c 128,-1,43
 135 443 135 443 135 467 c 256,44,45
 135 491 135 491 151.5 509 c 128,-1,46
 168 527 168 527 192 527 c 0,47,48
 215 527 215 527 232 509 c 128,-1,49
 249 491 249 491 249 467 c 256,38,39
EndSplineSet
EndChar

StartChar: ntilde
Encoding: 241 241 118
Width: 380
VWidth: 900
GlyphClass: 1
Flags: W
LayerCount: 2
Fore
SplineSet
193 -96 m 0,0,1
 193 -105 193 -105 184 -105 c 2,2,-1
 20 -105 l 2,3,4
 12 -105 12 -105 12 -96 c 1,5,6
 12 -98 12 -98 26.5 -80 c 128,-1,7
 41 -62 41 -62 41 -43 c 2,8,-1
 41 228 l 2,9,10
 41 255 41 255 27 277.5 c 128,-1,11
 13 300 13 300 13 298 c 1,12,13
 13 301 13 301 20 304 c 0,14,15
 53 316 53 316 117 345 c 0,16,17
 164 370 164 370 166 370 c 0,18,19
 175 370 175 370 175 342 c 1,20,21
 175 388 175 388 173 306 c 1,22,23
 230 369 230 369 267 369 c 0,24,25
 323 369 323 369 341 323 c 0,26,27
 353 295 353 295 353 229 c 2,28,-1
 353 -43 l 2,29,30
 353 -62 353 -62 367.5 -80 c 128,-1,31
 382 -98 382 -98 382 -96 c 1,32,33
 382 -105 382 -105 375 -105 c 2,34,-1
 211 -105 l 2,35,36
 202 -105 202 -105 202 -96 c 1,37,38
 215 -78 215 -78 218 -70 c 128,-1,39
 221 -62 221 -62 221 -43 c 2,40,-1
 221 203 l 2,41,42
 221 239 221 239 205 239 c 256,43,44
 189 239 189 239 173 209 c 1,45,-1
 173 -43 l 2,46,47
 173 -78 173 -78 187 -90 c 0,48,49
 193 -95 193 -95 193 -96 c 0,0,1
111 434 m 0,50,51
 111 426 111 426 119.5 419.5 c 128,-1,52
 128 413 128 413 128 410 c 0,53,54
 128 390 128 390 97 390 c 0,55,56
 74 390 74 390 59 411 c 0,57,58
 48 429 48 429 48 453 c 0,59,60
 48 489 48 489 68.5 508.5 c 128,-1,61
 89 528 89 528 124 528 c 0,62,63
 151 528 151 528 175 514 c 0,64,65
 185 507 185 507 209 489 c 0,66,67
 225 474 225 474 234 474 c 0,68,69
 254 474 254 474 254 492 c 0,70,71
 254 499 254 499 245.5 506.5 c 128,-1,72
 237 514 237 514 237 516 c 0,73,74
 237 535 237 535 268 535 c 0,75,76
 291 535 291 535 305 515 c 0,77,78
 318 497 318 497 318 472 c 0,79,80
 318 438 318 438 296.5 418 c 128,-1,81
 275 398 275 398 240 398 c 0,82,83
 213 398 213 398 189 411 c 0,84,85
 178 417 178 417 157 438 c 0,86,87
 139 453 139 453 131 453 c 0,88,89
 111 453 111 453 111 434 c 0,50,51
EndSplineSet
EndChar

StartChar: oacute
Encoding: 243 243 119
Width: 337
VWidth: 900
GlyphClass: 1
Flags: W
LayerCount: 2
Fore
SplineSet
342 129 m 0,0,1
 342 17 342 17 315 -38 c 0,2,3
 276 -116 276 -116 175 -116 c 0,4,5
 76 -116 76 -116 38 -38 c 0,6,7
 9 17 9 17 9 129 c 256,8,9
 9 241 9 241 37 296 c 0,10,11
 75 373 75 373 175 373 c 0,12,13
 276 373 276 373 315 295 c 0,14,15
 342 240 342 240 342 129 c 0,0,1
203 35 m 2,16,-1
 203 222 l 2,17,18
 203 233 203 233 194 242 c 128,-1,19
 185 251 185 251 175 251 c 0,20,21
 163 251 163 251 154 242 c 128,-1,22
 145 233 145 233 145 222 c 2,23,-1
 145 35 l 2,24,25
 145 23 145 23 154 14.5 c 128,-1,26
 163 6 163 6 175 6 c 0,27,28
 185 6 185 6 194 14.5 c 128,-1,29
 203 23 203 23 203 35 c 2,16,-1
231 534 m 0,30,31
 250 534 250 534 265 520 c 128,-1,32
 280 506 280 506 280 485 c 0,33,34
 280 457 280 457 257 442 c 0,35,36
 248 436 248 436 175.5 415.5 c 128,-1,37
 103 395 103 395 92 395 c 0,38,39
 88 395 88 395 86 398 c 2,40,-1
 85 399 l 1,41,42
 85 406 85 406 140 463.5 c 128,-1,43
 195 521 195 521 206.5 527.5 c 128,-1,44
 218 534 218 534 231 534 c 0,30,31
EndSplineSet
EndChar

StartChar: ograve
Encoding: 242 242 120
Width: 337
VWidth: 900
GlyphClass: 1
Flags: W
LayerCount: 2
Fore
SplineSet
342 129 m 0,0,1
 342 17 342 17 315 -38 c 0,2,3
 276 -116 276 -116 175 -116 c 0,4,5
 76 -116 76 -116 38 -38 c 0,6,7
 9 17 9 17 9 129 c 256,8,9
 9 241 9 241 37 296 c 0,10,11
 75 373 75 373 175 373 c 0,12,13
 276 373 276 373 315 295 c 0,14,15
 342 240 342 240 342 129 c 0,0,1
203 35 m 2,16,-1
 203 222 l 2,17,18
 203 233 203 233 194 242 c 128,-1,19
 185 251 185 251 175 251 c 0,20,21
 163 251 163 251 154 242 c 128,-1,22
 145 233 145 233 145 222 c 2,23,-1
 145 35 l 2,24,25
 145 23 145 23 154 14.5 c 128,-1,26
 163 6 163 6 175 6 c 0,27,28
 185 6 185 6 194 14.5 c 128,-1,29
 203 23 203 23 203 35 c 2,16,-1
274 399 m 0,30,31
 274 395 274 395 268 395 c 0,32,33
 255 395 255 395 184.5 415 c 128,-1,34
 114 435 114 435 104 442 c 0,35,36
 80 458 80 458 80 485 c 0,37,38
 80 506 80 506 94.5 520.5 c 128,-1,39
 109 535 109 535 129 535 c 0,40,41
 142 535 142 535 155 528 c 0,42,43
 165 522 165 522 219.5 464 c 128,-1,44
 274 406 274 406 274 399 c 0,30,31
EndSplineSet
EndChar

StartChar: ocircumflex
Encoding: 244 244 121
Width: 337
VWidth: 900
GlyphClass: 1
Flags: W
LayerCount: 2
Fore
SplineSet
342 129 m 0,0,1
 342 17 342 17 315 -38 c 0,2,3
 276 -116 276 -116 175 -116 c 0,4,5
 76 -116 76 -116 38 -38 c 0,6,7
 9 17 9 17 9 129 c 256,8,9
 9 241 9 241 37 296 c 0,10,11
 75 373 75 373 175 373 c 0,12,13
 276 373 276 373 315 295 c 0,14,15
 342 240 342 240 342 129 c 0,0,1
203 35 m 2,16,-1
 203 222 l 2,17,18
 203 233 203 233 194 242 c 128,-1,19
 185 251 185 251 175 251 c 0,20,21
 163 251 163 251 154 242 c 128,-1,22
 145 233 145 233 145 222 c 2,23,-1
 145 35 l 2,24,25
 145 23 145 23 154 14.5 c 128,-1,26
 163 6 163 6 175 6 c 0,27,28
 185 6 185 6 194 14.5 c 128,-1,29
 203 23 203 23 203 35 c 2,16,-1
181 436 m 1,30,31
 98 391 98 391 94 391 c 0,32,33
 89 391 89 391 79 405.5 c 128,-1,34
 69 420 69 420 69 426 c 0,35,36
 69 431 69 431 75 435 c 0,37,38
 133 470 133 470 172 539 c 0,39,40
 176 545 176 545 181 545 c 0,41,42
 187 545 187 545 190 539 c 0,43,44
 230 470 230 470 287 435 c 0,45,46
 293 431 293 431 293 426 c 0,47,48
 293 420 293 420 283.5 405.5 c 128,-1,49
 274 391 274 391 268 391 c 0,50,51
 265 391 265 391 181 436 c 1,30,31
EndSplineSet
EndChar

StartChar: odieresis
Encoding: 246 246 122
Width: 337
VWidth: 900
GlyphClass: 1
Flags: W
LayerCount: 2
Fore
SplineSet
342 129 m 0,0,1
 342 17 342 17 315 -38 c 0,2,3
 276 -116 276 -116 175 -116 c 0,4,5
 76 -116 76 -116 38 -38 c 0,6,7
 9 17 9 17 9 129 c 256,8,9
 9 241 9 241 37 296 c 0,10,11
 75 373 75 373 175 373 c 0,12,13
 276 373 276 373 315 295 c 0,14,15
 342 240 342 240 342 129 c 0,0,1
203 35 m 2,16,-1
 203 222 l 2,17,18
 203 233 203 233 194 242 c 128,-1,19
 185 251 185 251 175 251 c 0,20,21
 163 251 163 251 154 242 c 128,-1,22
 145 233 145 233 145 222 c 2,23,-1
 145 35 l 2,24,25
 145 23 145 23 154 14.5 c 128,-1,26
 163 6 163 6 175 6 c 0,27,28
 185 6 185 6 194 14.5 c 128,-1,29
 203 23 203 23 203 35 c 2,16,-1
149 467 m 256,30,31
 149 443 149 443 132 425.5 c 128,-1,32
 115 408 115 408 92 408 c 0,33,34
 68 408 68 408 51.5 425.5 c 128,-1,35
 35 443 35 443 35 467 c 256,36,37
 35 491 35 491 51.5 509 c 128,-1,38
 68 527 68 527 92 527 c 0,39,40
 115 527 115 527 132 509 c 128,-1,41
 149 491 149 491 149 467 c 256,30,31
311 467 m 256,42,43
 311 443 311 443 294 425.5 c 128,-1,44
 277 408 277 408 254 408 c 0,45,46
 230 408 230 408 213.5 425.5 c 128,-1,47
 197 443 197 443 197 467 c 256,48,49
 197 491 197 491 213.5 509 c 128,-1,50
 230 527 230 527 254 527 c 0,51,52
 277 527 277 527 294 509 c 128,-1,53
 311 491 311 491 311 467 c 256,42,43
EndSplineSet
EndChar

StartChar: otilde
Encoding: 245 245 123
Width: 337
VWidth: 900
GlyphClass: 1
Flags: W
LayerCount: 2
Fore
SplineSet
342 129 m 0,0,1
 342 17 342 17 315 -38 c 0,2,3
 276 -116 276 -116 175 -116 c 0,4,5
 76 -116 76 -116 38 -38 c 0,6,7
 9 17 9 17 9 129 c 256,8,9
 9 241 9 241 37 296 c 0,10,11
 75 373 75 373 175 373 c 0,12,13
 276 373 276 373 315 295 c 0,14,15
 342 240 342 240 342 129 c 0,0,1
203 35 m 2,16,-1
 203 222 l 2,17,18
 203 233 203 233 194 242 c 128,-1,19
 185 251 185 251 175 251 c 0,20,21
 163 251 163 251 154 242 c 128,-1,22
 145 233 145 233 145 222 c 2,23,-1
 145 35 l 2,24,25
 145 23 145 23 154 14.5 c 128,-1,26
 163 6 163 6 175 6 c 0,27,28
 185 6 185 6 194 14.5 c 128,-1,29
 203 23 203 23 203 35 c 2,16,-1
109 434 m 0,30,31
 109 426 109 426 117.5 419.5 c 128,-1,32
 126 413 126 413 126 410 c 0,33,34
 126 390 126 390 95 390 c 0,35,36
 72 390 72 390 57 411 c 0,37,38
 46 429 46 429 46 453 c 0,39,40
 46 489 46 489 66.5 508.5 c 128,-1,41
 87 528 87 528 122 528 c 0,42,43
 149 528 149 528 173 514 c 0,44,45
 183 507 183 507 207 489 c 0,46,47
 223 474 223 474 232 474 c 0,48,49
 252 474 252 474 252 492 c 0,50,51
 252 499 252 499 243.5 506.5 c 128,-1,52
 235 514 235 514 235 516 c 0,53,54
 235 535 235 535 266 535 c 0,55,56
 289 535 289 535 303 515 c 0,57,58
 316 497 316 497 316 472 c 0,59,60
 316 438 316 438 294.5 418 c 128,-1,61
 273 398 273 398 238 398 c 0,62,63
 211 398 211 398 187 411 c 0,64,65
 176 417 176 417 155 438 c 0,66,67
 137 453 137 453 129 453 c 0,68,69
 109 453 109 453 109 434 c 0,30,31
EndSplineSet
EndChar

StartChar: uacute
Encoding: 250 250 124
Width: 380
VWidth: 900
GlyphClass: 1
Flags: W
LayerCount: 2
Fore
SplineSet
222 -51 m 1,0,1
 162 -120 162 -120 123 -120 c 0,2,3
 67 -120 67 -120 49 -74 c 0,4,5
 38 -46 38 -46 38 21 c 2,6,-1
 38 224 l 2,7,8
 38 275 38 275 14 295 c 0,9,10
 9 300 9 300 9 304 c 256,11,12
 9 308 9 308 16 310 c 0,13,14
 49 323 49 323 113 351 c 0,15,16
 125 358 125 358 138 366 c 0,17,18
 157 377 157 377 161 377 c 0,19,20
 169 377 169 377 169 369 c 2,21,-1
 169 46 l 2,22,23
 169 10 169 10 185 10 c 0,24,25
 202 10 202 10 221 48 c 1,26,-1
 221 235 l 2,27,28
 221 261 221 261 207 284 c 128,-1,29
 193 307 193 307 193 304 c 1,30,31
 193 308 193 308 200 310 c 0,32,33
 233 322 233 322 297 351 c 1,34,35
 344 377 344 377 345 377 c 0,36,37
 353 377 353 377 353 369 c 2,38,-1
 353 -43 l 2,39,40
 353 -62 353 -62 368 -80 c 128,-1,41
 383 -98 383 -98 383 -96 c 1,42,43
 383 -105 383 -105 375 -105 c 2,44,-1
 240 -105 l 2,45,46
 229 -105 229 -105 222 -51 c 1,0,1
252 534 m 0,47,48
 271 534 271 534 286 520 c 128,-1,49
 301 506 301 506 301 485 c 0,50,51
 301 457 301 457 278 442 c 0,52,53
 269 436 269 436 196.5 415.5 c 128,-1,54
 124 395 124 395 113 395 c 0,55,56
 109 395 109 395 107 398 c 2,57,-1
 106 399 l 1,58,59
 106 406 106 406 161 463.5 c 128,-1,60
 216 521 216 521 227.5 527.5 c 128,-1,61
 239 534 239 534 252 534 c 0,47,48
EndSplineSet
EndChar

StartChar: ugrave
Encoding: 249 249 125
Width: 380
VWidth: 900
GlyphClass: 1
Flags: W
LayerCount: 2
Fore
SplineSet
222 -51 m 1,0,1
 162 -120 162 -120 123 -120 c 0,2,3
 67 -120 67 -120 49 -74 c 0,4,5
 38 -46 38 -46 38 21 c 2,6,-1
 38 224 l 2,7,8
 38 275 38 275 14 295 c 0,9,10
 9 300 9 300 9 304 c 256,11,12
 9 308 9 308 16 310 c 0,13,14
 49 323 49 323 113 351 c 0,15,16
 125 358 125 358 138 366 c 0,17,18
 157 377 157 377 161 377 c 0,19,20
 169 377 169 377 169 369 c 2,21,-1
 169 46 l 2,22,23
 169 10 169 10 185 10 c 0,24,25
 202 10 202 10 221 48 c 1,26,-1
 221 235 l 2,27,28
 221 261 221 261 207 284 c 128,-1,29
 193 307 193 307 193 304 c 1,30,31
 193 308 193 308 200 310 c 0,32,33
 233 322 233 322 297 351 c 1,34,35
 344 377 344 377 345 377 c 0,36,37
 353 377 353 377 353 369 c 2,38,-1
 353 -43 l 2,39,40
 353 -62 353 -62 368 -80 c 128,-1,41
 383 -98 383 -98 383 -96 c 1,42,43
 383 -105 383 -105 375 -105 c 2,44,-1
 240 -105 l 2,45,46
 229 -105 229 -105 222 -51 c 1,0,1
287 399 m 0,47,48
 287 395 287 395 281 395 c 0,49,50
 268 395 268 395 197.5 415 c 128,-1,51
 127 435 127 435 117 442 c 0,52,53
 93 458 93 458 93 485 c 0,54,55
 93 506 93 506 107.5 520.5 c 128,-1,56
 122 535 122 535 142 535 c 0,57,58
 155 535 155 535 168 528 c 0,59,60
 178 522 178 522 232.5 464 c 128,-1,61
 287 406 287 406 287 399 c 0,47,48
EndSplineSet
EndChar

StartChar: ucircumflex
Encoding: 251 251 126
Width: 380
VWidth: 900
GlyphClass: 1
Flags: W
LayerCount: 2
Fore
SplineSet
222 -51 m 1,0,1
 162 -120 162 -120 123 -120 c 0,2,3
 67 -120 67 -120 49 -74 c 0,4,5
 38 -46 38 -46 38 21 c 2,6,-1
 38 224 l 2,7,8
 38 275 38 275 14 295 c 0,9,10
 9 300 9 300 9 304 c 256,11,12
 9 308 9 308 16 310 c 0,13,14
 49 323 49 323 113 351 c 0,15,16
 125 358 125 358 138 366 c 0,17,18
 157 377 157 377 161 377 c 0,19,20
 169 377 169 377 169 369 c 2,21,-1
 169 46 l 2,22,23
 169 10 169 10 185 10 c 0,24,25
 202 10 202 10 221 48 c 1,26,-1
 221 235 l 2,27,28
 221 261 221 261 207 284 c 128,-1,29
 193 307 193 307 193 304 c 1,30,31
 193 308 193 308 200 310 c 0,32,33
 233 322 233 322 297 351 c 1,34,35
 344 377 344 377 345 377 c 0,36,37
 353 377 353 377 353 369 c 2,38,-1
 353 -43 l 2,39,40
 353 -62 353 -62 368 -80 c 128,-1,41
 383 -98 383 -98 383 -96 c 1,42,43
 383 -105 383 -105 375 -105 c 2,44,-1
 240 -105 l 2,45,46
 229 -105 229 -105 222 -51 c 1,0,1
189 436 m 1,47,48
 106 391 106 391 102 391 c 0,49,50
 97 391 97 391 87 405.5 c 128,-1,51
 77 420 77 420 77 426 c 0,52,53
 77 431 77 431 83 435 c 0,54,55
 141 470 141 470 180 539 c 0,56,57
 184 545 184 545 189 545 c 0,58,59
 195 545 195 545 198 539 c 0,60,61
 238 470 238 470 295 435 c 0,62,63
 301 431 301 431 301 426 c 0,64,65
 301 420 301 420 291.5 405.5 c 128,-1,66
 282 391 282 391 276 391 c 0,67,68
 273 391 273 391 189 436 c 1,47,48
EndSplineSet
EndChar

StartChar: udieresis
Encoding: 252 252 127
Width: 380
VWidth: 900
GlyphClass: 1
Flags: W
LayerCount: 2
Fore
SplineSet
222 -51 m 1,0,1
 162 -120 162 -120 123 -120 c 0,2,3
 67 -120 67 -120 49 -74 c 0,4,5
 38 -46 38 -46 38 21 c 2,6,-1
 38 224 l 2,7,8
 38 275 38 275 14 295 c 0,9,10
 9 300 9 300 9 304 c 256,11,12
 9 308 9 308 16 310 c 0,13,14
 49 323 49 323 113 351 c 0,15,16
 125 358 125 358 138 366 c 0,17,18
 157 377 157 377 161 377 c 0,19,20
 169 377 169 377 169 369 c 2,21,-1
 169 46 l 2,22,23
 169 10 169 10 185 10 c 0,24,25
 202 10 202 10 221 48 c 1,26,-1
 221 235 l 2,27,28
 221 261 221 261 207 284 c 128,-1,29
 193 307 193 307 193 304 c 1,30,31
 193 308 193 308 200 310 c 0,32,33
 233 322 233 322 297 351 c 1,34,35
 344 377 344 377 345 377 c 0,36,37
 353 377 353 377 353 369 c 2,38,-1
 353 -43 l 2,39,40
 353 -62 353 -62 368 -80 c 128,-1,41
 383 -98 383 -98 383 -96 c 1,42,43
 383 -105 383 -105 375 -105 c 2,44,-1
 240 -105 l 2,45,46
 229 -105 229 -105 222 -51 c 1,0,1
165 467 m 256,47,48
 165 443 165 443 148 425.5 c 128,-1,49
 131 408 131 408 108 408 c 0,50,51
 84 408 84 408 67.5 425.5 c 128,-1,52
 51 443 51 443 51 467 c 256,53,54
 51 491 51 491 67.5 509 c 128,-1,55
 84 527 84 527 108 527 c 0,56,57
 131 527 131 527 148 509 c 128,-1,58
 165 491 165 491 165 467 c 256,47,48
327 467 m 256,59,60
 327 443 327 443 310 425.5 c 128,-1,61
 293 408 293 408 270 408 c 0,62,63
 246 408 246 408 229.5 425.5 c 128,-1,64
 213 443 213 443 213 467 c 256,65,66
 213 491 213 491 229.5 509 c 128,-1,67
 246 527 246 527 270 527 c 0,68,69
 293 527 293 527 310 509 c 128,-1,70
 327 491 327 491 327 467 c 256,59,60
EndSplineSet
EndChar

StartChar: degree
Encoding: 176 176 128
Width: 314
VWidth: 900
GlyphClass: 1
Flags: W
LayerCount: 2
Fore
SplineSet
285 485 m 0,0,1
 285 432 285 432 247.5 394 c 128,-1,2
 210 356 210 356 157 356 c 256,3,4
 104 356 104 356 66.5 394 c 128,-1,5
 29 432 29 432 29 485 c 0,6,7
 29 537 29 537 66.5 575 c 128,-1,8
 104 613 104 613 157 613 c 256,9,10
 210 613 210 613 247.5 575 c 128,-1,11
 285 537 285 537 285 485 c 0,0,1
157 528 m 256,12,13
 139 528 139 528 126 515 c 128,-1,14
 113 502 113 502 113 485 c 0,15,16
 113 467 113 467 126 454.5 c 128,-1,17
 139 442 139 442 157 442 c 256,18,19
 175 442 175 442 187.5 454.5 c 128,-1,20
 200 467 200 467 200 485 c 0,21,22
 200 502 200 502 187.5 515 c 128,-1,23
 175 528 175 528 157 528 c 256,12,13
EndSplineSet
EndChar

StartChar: cent
Encoding: 162 162 129
Width: 338
VWidth: 900
GlyphClass: 1
Flags: W
LayerCount: 2
Fore
SplineSet
219 -114 m 0,0,1
 219 -120 219 -120 215 -121.5 c 128,-1,2
 211 -123 211 -123 206 -122 c 0,3,4
 197 -120 197 -120 197 -120 c 2,5,6
 184 -120 184 -120 160.5 -129 c 128,-1,7
 137 -138 137 -138 134 -138 c 0,8,9
 126 -138 126 -138 126 -130 c 2,10,-1
 126 -16 l 1,11,12
 59 3 59 3 35 77 c 0,13,14
 19 126 19 126 19 215 c 0,15,16
 19 302 19 302 34 352 c 0,17,18
 59 426 59 426 124 445 c 1,19,20
 126 495 126 495 126 489 c 1,21,22
 126 496 126 496 121 512 c 128,-1,23
 116 528 116 528 116 535 c 0,24,25
 116 541 116 541 119.5 542 c 128,-1,26
 123 543 123 543 130 543 c 0,27,28
 139 543 139 543 139 543 c 2,29,30
 151 543 151 543 175 551 c 128,-1,31
 199 559 199 559 201 559 c 0,32,33
 209 559 209 559 209 551 c 2,34,-1
 209 449 l 1,35,36
 244 444 244 444 272 424 c 0,37,38
 302 402 302 402 311 371 c 0,39,40
 312 369 312 369 312 368 c 0,41,42
 312 364 312 364 308 361 c 0,43,44
 284 342 284 342 261 323 c 0,45,46
 234 301 234 301 217 280 c 1,47,-1
 211 277 l 2,48,49
 203 276 203 276 203 291 c 0,50,51
 202 312 202 312 200 318 c 0,52,53
 193 332 193 332 175 332 c 0,54,55
 164 332 164 332 156 324 c 128,-1,56
 148 316 148 316 148 305 c 2,57,-1
 148 127 l 2,58,59
 148 114 148 114 158 104 c 128,-1,60
 168 94 168 94 181 94 c 0,61,62
 218 94 218 94 218 129 c 0,63,64
 218 145 218 145 201.5 150.5 c 128,-1,65
 185 156 185 156 185 160 c 0,66,67
 185 174 185 174 211 187 c 0,68,69
 233 199 233 199 247 199 c 0,70,71
 283 199 283 199 304 168 c 0,72,73
 325 139 325 139 325 103 c 0,74,75
 325 57 325 57 291 21.5 c 128,-1,76
 257 -14 257 -14 211 -21 c 0,77,78
 211 -25 211 -25 210 -44 c 0,79,80
 209 -58 209 -58 209 -66 c 0,81,82
 209 -75 209 -75 214 -90 c 128,-1,83
 219 -105 219 -105 219 -114 c 0,0,1
EndSplineSet
EndChar

StartChar: sterling
Encoding: 163 163 130
Width: 411
VWidth: 900
GlyphClass: 1
Flags: W
LayerCount: 2
Fore
SplineSet
418 -104 m 0,0,1
 418 -111 418 -111 409 -111 c 2,2,-1
 67 -111 l 2,3,4
 59 -111 59 -111 59 -105 c 0,5,6
 59 -100 59 -100 66 -96 c 0,7,8
 79 -84 79 -84 90 -55 c 0,9,10
 127 45 127 45 127 139 c 2,11,-1
 127 144 l 1,12,-1
 23 145 l 2,13,14
 16 145 16 145 16 152 c 2,15,-1
 19 157 l 1,16,17
 39 178 39 178 58 229 c 0,18,19
 61 237 61 237 67 237 c 0,20,21
 74 237 74 237 88.5 232 c 128,-1,22
 103 227 103 227 111 227 c 2,23,-1
 121 227 l 1,24,25
 109 269 109 269 98 311 c 0,26,27
 85 362 85 362 85 396 c 0,28,29
 85 457 85 457 135 499 c 0,30,31
 183 539 183 539 246 539 c 0,32,33
 307 539 307 539 352 507 c 0,34,35
 403 470 403 470 403 411 c 0,36,37
 403 370 403 370 382 342 c 0,38,39
 359 312 359 312 319 312 c 0,40,41
 295 312 295 312 268 327 c 0,42,43
 238 345 238 345 238 366 c 0,44,45
 238 373 238 373 255 373 c 0,46,47
 283 373 283 373 283 399 c 0,48,49
 283 426 283 426 249 426 c 0,50,51
 231 426 231 426 219 414 c 128,-1,52
 207 402 207 402 207 384 c 0,53,54
 207 351 207 351 218 305 c 0,55,56
 229 266 229 266 238 228 c 1,57,-1
 366 228 l 2,58,59
 373 228 373 228 373 220 c 2,60,-1
 372 215 l 1,61,62
 345 189 345 189 326 141 c 0,63,64
 323 134 323 134 319 134 c 0,65,66
 309 134 309 134 288.5 140 c 128,-1,67
 268 146 268 146 257 146 c 2,68,-1
 247 145 l 1,69,70
 247 75 247 75 230 10 c 1,71,-1
 295 10 l 2,72,73
 315 10 315 10 329 22 c 0,74,75
 339 30 339 30 350 45 c 0,76,77
 358 57 358 57 362 57 c 0,78,79
 365 57 365 57 369 50.5 c 128,-1,80
 373 44 373 44 418 -104 c 0,0,1
EndSplineSet
EndChar

StartChar: bullet
Encoding: 8226 8226 131
Width: 247
VWidth: 900
GlyphClass: 1
Flags: W
LayerCount: 2
Fore
SplineSet
123 95 m 256,0,1
 77 95 77 95 44 128 c 128,-1,2
 11 161 11 161 11 208 c 0,3,4
 11 254 11 254 44 287 c 128,-1,5
 77 320 77 320 123 320 c 256,6,7
 169 320 169 320 202.5 287 c 128,-1,8
 236 254 236 254 236 208 c 0,9,10
 236 161 236 161 202.5 128 c 128,-1,11
 169 95 169 95 123 95 c 256,0,1
EndSplineSet
EndChar

StartChar: germandbls
Encoding: 223 223 132
Width: 492
VWidth: 900
GlyphClass: 1
Flags: W
LayerCount: 2
Fore
SplineSet
480 32 m 0,0,1
 480 -24 480 -24 439 -66 c 128,-1,2
 398 -108 398 -108 343 -108 c 0,3,4
 293 -108 293 -108 257 -75.5 c 128,-1,5
 221 -43 221 -43 221 6 c 0,6,7
 221 30 221 30 236 53 c 0,8,9
 253 79 253 79 275 79 c 0,10,11
 284 79 284 79 284 73 c 0,12,13
 284 66 284 66 280 52.5 c 128,-1,14
 276 39 276 39 276 31 c 0,15,16
 276 14 276 14 292 1.5 c 128,-1,17
 308 -11 308 -11 326 -11 c 0,18,19
 337 -11 337 -11 348.5 5 c 128,-1,20
 360 21 360 21 360 31 c 0,21,22
 360 56 360 56 324 84 c 0,23,24
 268 127 268 127 256 139 c 0,25,26
 220 182 220 182 220 238 c 0,27,28
 220 283 220 283 241 323 c 0,29,30
 248 336 248 336 281 378 c 0,31,32
 301 406 301 406 301 425 c 0,33,34
 301 450 301 450 279.5 466.5 c 128,-1,35
 258 483 258 483 232 483 c 0,36,37
 201 483 201 483 180.5 467.5 c 128,-1,38
 160 452 160 452 160 422 c 0,39,40
 160 385 160 385 192 353 c 1,41,-1
 192 -54 l 2,42,43
 192 -78 192 -78 211 -96 c 1,44,45
 209 -105 209 -105 203 -105 c 2,46,-1
 38 -105 l 2,47,48
 31 -105 31 -105 30 -96 c 1,49,50
 59 -74 59 -74 59 -43 c 2,51,-1
 59 284 l 1,52,-1
 18 284 l 1,53,-1
 11 293 l 1,54,55
 12 308 12 308 16 330 c 0,56,57
 22 361 22 361 28 361 c 2,58,-1
 54 361 l 1,59,60
 40 391 40 391 40 444 c 0,61,62
 40 517 40 517 99 556 c 0,63,64
 149 588 149 588 226 588 c 0,65,66
 315 588 315 588 369 545 c 0,67,68
 426 499 426 499 426 417 c 0,69,70
 426 381 426 381 385 324 c 128,-1,71
 344 267 344 267 344 253 c 0,72,73
 344 233 344 233 379 200 c 0,74,75
 430 150 430 150 445 132 c 0,76,77
 480 85 480 85 480 32 c 0,0,1
EndSplineSet
EndChar

StartChar: registered
Encoding: 174 174 133
Width: 1928
VWidth: 900
GlyphClass: 1
Flags: W
LayerCount: 2
Fore
SplineSet
1823 682 m 1,0,1
 1813 679 1813 679 1802 667.5 c 128,-1,2
 1791 656 1791 656 1791 644 c 2,3,-1
 1791 496 l 1,4,-1
 1758 496 l 1,5,-1
 1758 682 l 2,6,7
 1758 693 1758 693 1750 699 c 1,8,-1
 1769 724 l 1,9,10
 1788 718 1788 718 1791 692 c 1,11,12
 1815 724 1815 724 1821 724 c 2,13,-1
 1823 724 l 1,14,-1
 1823 682 l 1,0,1
1741 658 m 0,15,16
 1741 597 1741 597 1694 586 c 1,17,18
 1693 568 1693 568 1701 551 c 0,19,20
 1709 531 1709 531 1726 531 c 0,21,22
 1731 531 1731 531 1741 535 c 1,23,-1
 1741 497 l 1,24,25
 1733 494 1733 494 1723 494 c 0,26,27
 1658 494 1658 494 1658 608 c 2,28,-1
 1658 634 l 2,29,30
 1658 724 1658 724 1700 724 c 0,31,32
 1741 724 1741 724 1741 658 c 0,15,16
1640 496 m 1,33,-1
 1606 496 l 1,34,-1
 1606 681 l 2,35,36
 1606 691 1606 691 1597 691 c 0,37,38
 1593 691 1593 691 1589 686 c 1,39,-1
 1589 496 l 1,40,-1
 1555 496 l 1,41,-1
 1555 682 l 2,42,43
 1555 695 1555 695 1549 700 c 1,44,-1
 1570 724 l 1,45,46
 1579 723 1579 723 1587 708 c 1,47,48
 1599 724 1599 724 1613 724 c 0,49,50
 1640 724 1640 724 1640 685 c 2,51,-1
 1640 496 l 1,33,-1
1536 496 m 1,52,-1
 1503 496 l 1,53,-1
 1503 679 l 2,54,55
 1503 691 1503 691 1495 691 c 0,56,57
 1491 691 1491 691 1485 684 c 1,58,-1
 1485 496 l 1,59,-1
 1452 496 l 1,60,-1
 1452 790 l 1,61,-1
 1485 790 l 1,62,-1
 1485 712 l 1,63,64
 1496 725 1496 725 1509 725 c 0,65,66
 1536 725 1536 725 1536 682 c 2,67,-1
 1536 496 l 1,52,-1
1892 155 m 1,68,-1
 1858 155 l 1,69,-1
 1858 337 l 2,70,71
 1858 350 1858 350 1849 350 c 0,72,73
 1845 350 1845 350 1840 343 c 1,74,-1
 1840 155 l 1,75,-1
 1807 155 l 1,76,-1
 1807 338 l 2,77,78
 1807 350 1807 350 1798 350 c 0,79,80
 1795 350 1795 350 1789 343 c 1,81,-1
 1789 155 l 1,82,-1
 1756 155 l 1,83,-1
 1756 345 l 2,84,85
 1756 355 1756 355 1750 359 c 1,86,-1
 1769 384 l 1,87,88
 1784 380 1784 380 1787 366 c 1,89,90
 1799 384 1799 384 1814 384 c 0,91,92
 1830 384 1830 384 1838 367 c 1,93,94
 1851 384 1851 384 1865 384 c 0,95,96
 1892 384 1892 384 1892 342 c 2,97,-1
 1892 155 l 1,68,-1
1436 609 m 0,98,99
 1436 494 1436 494 1395 494 c 0,100,101
 1368 494 1368 494 1358 545 c 0,102,103
 1352 575 1352 575 1352 609 c 0,104,105
 1352 724 1352 724 1394 724 c 0,106,107
 1420 724 1420 724 1431 675 c 0,108,109
 1436 647 1436 647 1436 609 c 0,98,99
1739 268 m 0,110,111
 1739 153 1739 153 1697 153 c 0,112,113
 1669 153 1669 153 1660 204 c 0,114,115
 1654 233 1654 233 1654 268 c 0,116,117
 1654 383 1654 383 1696 383 c 0,118,119
 1723 383 1723 383 1733 334 c 0,120,121
 1739 305 1739 305 1739 268 c 0,110,111
1344 496 m 1,122,-1
 1281 496 l 1,123,-1
 1281 790 l 1,124,-1
 1319 790 l 1,125,-1
 1319 535 l 1,126,-1
 1344 535 l 1,127,-1
 1344 496 l 1,122,-1
1644 158 m 1,128,129
 1640 152 1640 152 1627 152 c 0,130,131
 1580 152 1580 152 1580 255 c 2,132,-1
 1580 287 l 2,133,134
 1580 384 1580 384 1629 384 c 0,135,136
 1636 384 1636 384 1643 381 c 1,137,-1
 1643 346 l 1,138,139
 1638 349 1638 349 1636 349 c 0,140,141
 1615 349 1615 349 1615 287 c 2,142,-1
 1615 257 l 2,143,144
 1615 223 1615 223 1618 209 c 0,145,146
 1622 187 1622 187 1633 187 c 0,147,148
 1641 187 1641 187 1644 192 c 1,149,-1
 1644 158 l 1,128,129
1225 523 m 1,150,-1
 1205 493 l 1,151,152
 1192 497 1192 497 1187 514 c 1,153,154
 1175 494 1175 494 1165 494 c 0,155,156
 1131 494 1131 494 1131 579 c 2,157,-1
 1131 621 l 2,158,159
 1131 724 1131 724 1183 724 c 1,160,-1
 1183 790 l 1,161,-1
 1217 790 l 1,162,-1
 1217 551 l 2,163,164
 1217 530 1217 530 1225 523 c 1,150,-1
1521 204 m 0,165,166
 1521 153 1521 153 1482 153 c 0,167,168
 1470 153 1470 153 1460 158 c 1,169,-1
 1460 193 l 1,170,171
 1465 186 1465 186 1473 186 c 0,172,173
 1490 186 1490 186 1490 203 c 0,174,175
 1490 222 1490 222 1475 266 c 128,-1,176
 1460 310 1460 310 1460 332 c 0,177,178
 1460 384 1460 384 1495 384 c 0,179,180
 1505 384 1505 384 1517 377 c 1,181,-1
 1517 345 l 1,182,183
 1511 351 1511 351 1506 351 c 0,184,185
 1492 351 1492 351 1492 334 c 0,186,187
 1492 316 1492 316 1506.5 272 c 128,-1,188
 1521 228 1521 228 1521 204 c 0,165,166
1121 519 m 1,189,-1
 1096 494 l 1,190,191
 1078 499 1078 499 1078 525 c 2,192,-1
 1078 790 l 1,193,-1
 1111 790 l 1,194,-1
 1111 543 l 2,195,196
 1111 524 1111 524 1121 519 c 1,189,-1
1572 174 m 0,197,198
 1572 153 1572 153 1550 153 c 256,199,200
 1528 153 1528 153 1528 174 c 0,201,202
 1528 196 1528 196 1550 196 c 256,203,204
 1572 196 1572 196 1572 174 c 0,197,198
1450 160 m 1,205,206
 1442 154 1442 154 1432 154 c 0,207,208
 1399 154 1399 154 1399 192 c 2,209,-1
 1399 353 l 1,210,-1
 1382 353 l 1,211,-1
 1382 363 l 1,212,213
 1394 374 1394 374 1424 418 c 1,214,-1
 1434 418 l 1,215,-1
 1434 381 l 1,216,-1
 1450 381 l 1,217,-1
 1450 353 l 1,218,-1
 1434 353 l 1,219,-1
 1434 197 l 2,220,221
 1434 186 1434 186 1443 186 c 0,222,223
 1445 186 1445 186 1450 189 c 1,224,-1
 1450 160 l 1,205,206
1060 609 m 0,225,226
 1060 494 1060 494 1020 494 c 0,227,228
 992 494 992 494 981 545 c 0,229,230
 976 575 976 575 976 609 c 0,231,232
 976 724 976 724 1017 724 c 0,233,234
 1044 724 1044 724 1054 675 c 0,235,236
 1060 647 1060 647 1060 609 c 0,225,226
1370 155 m 1,237,-1
 1336 155 l 1,238,-1
 1336 341 l 2,239,240
 1336 350 1336 350 1327 350 c 0,241,242
 1323 350 1323 350 1318 345 c 1,243,-1
 1318 155 l 1,244,-1
 1285 155 l 1,245,-1
 1285 341 l 2,246,247
 1285 354 1285 354 1278 359 c 1,248,-1
 1300 384 l 1,249,250
 1309 381 1309 381 1316 368 c 1,251,252
 1328 384 1328 384 1342 384 c 0,253,254
 1370 384 1370 384 1370 344 c 2,255,-1
 1370 155 l 1,237,-1
967 682 m 1,256,257
 956 679 956 679 945 667.5 c 128,-1,258
 934 656 934 656 934 644 c 2,259,-1
 934 496 l 1,260,-1
 901 496 l 1,261,-1
 901 682 l 2,262,263
 901 693 901 693 893 699 c 1,264,-1
 913 724 l 1,265,266
 931 718 931 718 934 692 c 1,267,268
 959 724 959 724 964 724 c 2,269,-1
 967 724 l 1,270,-1
 967 682 l 1,256,257
1671 -186 m 1,271,-1
 1637 -186 l 1,272,-1
 1637 -3 l 2,273,274
 1637 9 1637 9 1629 9 c 0,275,276
 1625 9 1625 9 1620 2 c 1,277,-1
 1620 -186 l 1,278,-1
 1586 -186 l 1,279,-1
 1586 -2 l 2,280,281
 1586 9 1586 9 1579 9 c 0,282,283
 1574 9 1574 9 1569 2 c 1,284,-1
 1569 -186 l 1,285,-1
 1535 -186 l 1,286,-1
 1535 5 l 2,287,288
 1535 14 1535 14 1530 19 c 1,289,-1
 1550 42 l 1,290,291
 1564 39 1564 39 1568 26 c 1,292,293
 1579 43 1579 43 1594 43 c 256,294,295
 1609 43 1609 43 1618 27 c 1,296,297
 1631 43 1631 43 1644 43 c 0,298,299
 1671 43 1671 43 1671 2 c 2,300,-1
 1671 -186 l 1,271,-1
1270 268 m 0,301,302
 1270 153 1270 153 1229 153 c 0,303,304
 1201 153 1201 153 1191 204 c 0,305,306
 1185 233 1185 233 1185 268 c 0,307,308
 1185 383 1185 383 1227 383 c 0,309,310
 1254 383 1254 383 1264 334 c 0,311,312
 1270 305 1270 305 1270 268 c 0,301,302
889 524 m 1,313,-1
 869 494 l 1,314,315
 859 497 859 497 851 514 c 1,316,317
 842 494 842 494 828 494 c 0,318,319
 795 494 795 494 795 595 c 2,320,-1
 795 622 l 2,321,322
 795 663 795 663 808 690 c 0,323,324
 826 724 826 724 864 724 c 2,325,-1
 880 724 l 1,326,-1
 880 556 l 2,327,328
 880 530 880 530 889 524 c 1,313,-1
1175 419 m 1,329,330
 1159 417 1159 417 1159 399 c 2,331,-1
 1159 381 l 1,332,-1
 1175 381 l 1,333,-1
 1175 353 l 1,334,-1
 1159 353 l 1,335,-1
 1159 172 l 2,336,337
 1159 147 1159 147 1154 135 c 0,338,339
 1143 112 1143 112 1111 112 c 1,340,-1
 1111 149 l 1,341,342
 1126 149 1126 149 1126 179 c 2,343,-1
 1126 353 l 1,344,-1
 1111 353 l 1,345,-1
 1111 381 l 1,346,-1
 1126 381 l 1,347,-1
 1126 397 l 2,348,349
 1126 454 1126 454 1175 451 c 1,350,-1
 1175 419 l 1,329,330
1518 -73 m 0,351,352
 1518 -188 1518 -188 1478 -188 c 0,353,354
 1449 -188 1449 -188 1439 -137 c 0,355,356
 1434 -107 1434 -107 1434 -73 c 0,357,358
 1434 42 1434 42 1475 42 c 0,359,360
 1502 42 1502 42 1512 -7 c 0,361,362
 1518 -35 1518 -35 1518 -73 c 0,351,352
776 496 m 1,363,-1
 736 496 l 1,364,-1
 736 620 l 1,365,-1
 715 620 l 1,366,-1
 715 496 l 1,367,-1
 676 496 l 1,368,-1
 676 790 l 1,369,-1
 715 790 l 1,370,-1
 715 658 l 1,371,-1
 736 658 l 1,372,-1
 736 790 l 1,373,-1
 776 790 l 1,374,-1
 776 496 l 1,363,-1
1103 204 m 0,375,376
 1103 153 1103 153 1064 153 c 0,377,378
 1050 153 1050 153 1040 158 c 1,379,-1
 1040 193 l 1,380,381
 1046 186 1046 186 1054 186 c 0,382,383
 1071 186 1071 186 1071 203 c 0,384,385
 1071 222 1071 222 1056 266 c 128,-1,386
 1041 310 1041 310 1041 332 c 0,387,388
 1041 384 1041 384 1076 384 c 0,389,390
 1085 384 1085 384 1099 377 c 1,391,-1
 1099 345 l 1,392,393
 1093 351 1093 351 1086 351 c 0,394,395
 1073 351 1073 351 1073 334 c 0,396,397
 1073 316 1073 316 1088 272 c 128,-1,398
 1103 228 1103 228 1103 204 c 0,375,376
1424 -182 m 1,399,400
 1419 -188 1419 -188 1407 -188 c 0,401,402
 1360 -188 1360 -188 1360 -87 c 2,403,-1
 1360 -53 l 2,404,405
 1360 42 1360 42 1408 42 c 0,406,407
 1416 42 1416 42 1424 39 c 1,408,-1
 1424 5 l 1,409,410
 1417 9 1417 9 1416 9 c 0,411,412
 1395 9 1395 9 1395 -53 c 2,413,-1
 1395 -84 l 2,414,415
 1395 -118 1395 -118 1397 -132 c 0,416,417
 1401 -154 1401 -154 1413 -154 c 0,418,419
 1420 -154 1420 -154 1424 -149 c 1,420,-1
 1424 -182 l 1,399,400
1035 183 m 1,421,-1
 1015 153 l 1,422,423
 1002 156 1002 156 997 173 c 1,424,425
 985 154 985 154 975 154 c 0,426,427
 941 154 941 154 941 239 c 2,428,-1
 941 280 l 2,429,430
 941 384 941 384 993 384 c 1,431,-1
 993 449 l 1,432,-1
 1027 449 l 1,433,-1
 1027 210 l 2,434,435
 1027 190 1027 190 1035 183 c 1,421,-1
1303 -163 m 1,436,-1
 1277 -188 l 1,437,438
 1259 -182 1259 -182 1259 -158 c 2,439,-1
 1259 108 l 1,440,-1
 1293 108 l 1,441,-1
 1293 -140 l 2,442,443
 1293 -159 1293 -159 1303 -163 c 1,436,-1
623 751 m 1,444,-1
 588 751 l 1,445,-1
 588 659 l 1,446,447
 619 636 619 636 619 587 c 0,448,449
 619 553 619 553 599 525 c 0,450,451
 578 490 578 490 545 494 c 1,452,-1
 545 535 l 1,453,454
 578 543 578 543 578 589 c 0,455,456
 578 633 578 633 548 640 c 1,457,-1
 548 790 l 1,458,-1
 623 790 l 1,459,-1
 623 751 l 1,444,-1
931 178 m 1,460,-1
 905 154 l 1,461,462
 887 158 887 158 887 183 c 2,463,-1
 887 449 l 1,464,-1
 921 449 l 1,465,-1
 921 201 l 2,466,467
 921 183 921 183 931 178 c 1,460,-1
1352 -167 m 0,468,469
 1352 -188 1352 -188 1330 -188 c 0,470,471
 1309 -188 1309 -188 1309 -167 c 0,472,473
 1309 -145 1309 -145 1330 -145 c 0,474,475
 1352 -145 1352 -145 1352 -167 c 0,468,469
1242 -73 m 0,476,477
 1242 -188 1242 -188 1201 -188 c 0,478,479
 1173 -188 1173 -188 1163 -137 c 0,480,481
 1157 -107 1157 -107 1157 -73 c 0,482,483
 1157 42 1157 42 1199 42 c 0,484,485
 1226 42 1226 42 1237 -7 c 0,486,487
 1242 -35 1242 -35 1242 -73 c 0,476,477
532 640 m 0,488,489
 532 534 532 534 502 504 c 0,490,491
 491 494 491 494 481 494 c 0,492,493
 467 494 467 494 458 504 c 0,494,495
 427 534 427 534 427 642 c 0,496,497
 427 792 427 792 480 792 c 0,498,499
 532 792 532 792 532 640 c 0,488,489
870 268 m 0,500,501
 870 153 870 153 830 153 c 0,502,503
 801 153 801 153 791 204 c 0,504,505
 786 233 786 233 786 268 c 0,506,507
 786 383 786 383 827 383 c 0,508,509
 854 383 854 383 865 334 c 0,510,511
 870 305 870 305 870 268 c 0,500,501
1151 -159 m 1,512,-1
 1132 -188 l 1,513,514
 1121 -185 1121 -185 1114 -168 c 1,515,516
 1104 -188 1104 -188 1091 -188 c 0,517,518
 1057 -188 1057 -188 1057 -87 c 2,519,-1
 1057 -60 l 2,520,521
 1057 -19 1057 -19 1071 8 c 0,522,523
 1089 42 1089 42 1127 42 c 2,524,-1
 1143 42 l 1,525,-1
 1143 -126 l 2,526,527
 1143 -152 1143 -152 1151 -159 c 1,512,-1
777 341 m 1,528,529
 765 339 765 339 754.5 327 c 128,-1,530
 744 315 744 315 744 303 c 2,531,-1
 744 155 l 1,532,-1
 711 155 l 1,533,-1
 711 341 l 2,534,535
 711 352 711 352 703 359 c 1,536,-1
 724 383 l 1,537,538
 742 377 742 377 744 352 c 1,539,540
 769 383 769 383 774 383 c 2,541,-1
 777 383 l 1,542,-1
 777 341 l 1,528,529
413 640 m 0,543,544
 413 534 413 534 382 504 c 0,545,546
 373 494 373 494 362 494 c 0,547,548
 348 494 348 494 338 504 c 0,549,550
 308 534 308 534 308 642 c 0,551,552
 308 792 308 792 360 792 c 0,553,554
 413 792 413 792 413 640 c 0,543,544
1046 -12 m 0,555,556
 1046 -43 1046 -43 1039 -75 c 0,557,558
 1029 -123 1029 -123 1009 -123 c 0,559,560
 996 -123 996 -123 992 -101 c 1,561,562
 985 -123 985 -123 973 -123 c 0,563,564
 949 -123 949 -123 949 -55 c 0,565,566
 949 -27 949 -27 956 2 c 0,567,568
 965 44 965 44 984 44 c 0,569,570
 994 44 994 44 999 29 c 1,571,-1
 1000 38 l 1,572,-1
 1021 38 l 1,573,-1
 1010 -51 l 2,574,575
 1009 -64 1009 -64 1009 -66 c 0,576,577
 1009 -69 1009 -69 1009 -73 c 0,578,579
 1009 -87 1009 -87 1012 -87 c 0,580,581
 1013 -87 1013 -87 1020.5 -66 c 128,-1,582
 1028 -45 1028 -45 1028 -10 c 0,583,584
 1028 19 1028 19 1021 42 c 0,585,586
 1011 78 1011 78 988 78 c 0,587,588
 960 78 960 78 946 28 c 0,589,590
 937 -8 937 -8 937 -47 c 0,591,592
 937 -83 937 -83 945 -114 c 0,593,594
 958 -163 958 -163 985 -163 c 0,595,596
 1005 -163 1005 -163 1023 -131 c 2,597,-1
 1028 -120 l 1,598,-1
 1036 -150 l 1,599,-1
 1036 -151 l 1,600,601
 1013 -196 1013 -196 985 -196 c 0,602,603
 951 -196 951 -196 933 -145 c 0,604,605
 919 -103 919 -103 919 -45 c 0,606,607
 919 4 919 4 931 48 c 0,608,609
 949 112 949 112 987 112 c 0,610,611
 1020 112 1020 112 1035 63 c 0,612,613
 1046 29 1046 29 1046 -12 c 0,555,556
699 183 m 1,614,-1
 679 154 l 1,615,616
 669 156 669 156 661 173 c 1,617,618
 652 154 652 154 638 154 c 0,619,620
 605 154 605 154 605 255 c 2,621,-1
 605 282 l 2,622,623
 605 323 605 323 618 349 c 0,624,625
 636 383 636 383 674 383 c 2,626,-1
 690 383 l 1,627,-1
 690 215 l 2,628,629
 690 189 690 189 699 183 c 1,614,-1
293 496 m 1,630,-1
 211 496 l 1,631,632
 249 631 249 631 249 714 c 0,633,634
 249 748 249 748 229 748 c 0,635,636
 220 748 220 748 211 738 c 1,637,-1
 211 777 l 1,638,639
 229 792 229 792 245 792 c 0,640,641
 290 792 290 792 290 721 c 0,642,643
 290 663 290 663 261 534 c 1,644,-1
 293 535 l 1,645,-1
 293 496 l 1,630,-1
586 155 m 1,646,-1
 553 155 l 1,647,-1
 553 339 l 2,648,649
 553 350 553 350 544 350 c 0,650,651
 540 350 540 350 535 343 c 1,652,-1
 535 155 l 1,653,-1
 501 155 l 1,654,-1
 501 449 l 1,655,-1
 535 449 l 1,656,-1
 535 370 l 1,657,658
 545 384 545 384 559 384 c 0,659,660
 586 384 586 384 586 341 c 2,661,-1
 586 155 l 1,646,-1
909 0 m 1,662,663
 898 -2 898 -2 887.5 -14 c 128,-1,664
 877 -26 877 -26 877 -37 c 2,665,-1
 877 -186 l 1,666,-1
 843 -186 l 1,667,-1
 843 0 l 2,668,669
 843 11 843 11 835 17 c 1,670,-1
 855 42 l 1,671,672
 874 36 874 36 877 10 c 1,673,674
 901 42 901 42 906 42 c 2,675,-1
 909 42 l 1,676,-1
 909 0 l 1,662,663
199 637 m 0,677,678
 199 593 199 593 188 550 c 0,679,680
 173 485 173 485 142 485 c 0,681,682
 112 485 112 485 95 550 c 0,683,684
 85 593 85 593 85 637 c 0,685,686
 85 700 85 700 102 744 c 0,687,688
 117 791 117 791 142 791 c 0,689,690
 173 791 173 791 188 726 c 0,691,692
 199 683 199 683 199 637 c 0,677,678
827 -24 m 0,693,694
 827 -84 827 -84 779 -96 c 1,695,696
 779 -114 779 -114 787 -131 c 0,697,698
 795 -151 795 -151 812 -151 c 0,699,700
 816 -151 816 -151 826 -147 c 1,701,-1
 826 -185 l 1,702,703
 819 -188 819 -188 808 -188 c 0,704,705
 743 -188 743 -188 743 -73 c 2,706,-1
 743 -48 l 2,707,708
 743 42 743 42 786 42 c 0,709,710
 827 42 827 42 827 -24 c 0,693,694
454 381 m 1,711,-1
 427 153 l 1,712,-1
 401 153 l 1,713,-1
 388 298 l 1,714,-1
 374 153 l 1,715,-1
 347 153 l 1,716,-1
 320 381 l 1,717,-1
 355 381 l 1,718,-1
 362 227 l 1,719,-1
 373 381 l 1,720,-1
 402 381 l 1,721,-1
 414 228 l 1,722,-1
 421 381 l 1,723,-1
 454 381 l 1,711,-1
489 174 m 0,724,725
 489 153 489 153 466 153 c 0,726,727
 445 153 445 153 445 174 c 0,728,729
 445 196 445 196 466 196 c 0,730,731
 489 196 489 196 489 174 c 0,724,725
725 -186 m 1,732,-1
 692 -186 l 1,733,-1
 692 -1 l 2,734,735
 692 10 692 10 683 10 c 0,736,737
 679 10 679 10 675 3 c 1,738,-1
 675 -186 l 1,739,-1
 641 -186 l 1,740,-1
 641 0 l 2,741,742
 641 13 641 13 634 18 c 1,743,-1
 655 42 l 1,744,745
 665 40 665 40 672 27 c 1,746,747
 685 42 685 42 698 42 c 0,748,749
 725 42 725 42 725 3 c 2,750,-1
 725 -186 l 1,732,-1
622 -186 m 1,751,-1
 589 -186 l 1,752,-1
 589 -2 l 2,753,754
 589 10 589 10 580 10 c 0,755,756
 577 10 577 10 571 3 c 1,757,-1
 571 -186 l 1,758,-1
 537 -186 l 1,759,-1
 537 108 l 1,760,-1
 571 108 l 1,761,-1
 571 30 l 1,762,763
 581 43 581 43 595 43 c 0,764,765
 622 43 622 43 622 0 c 2,766,-1
 622 -186 l 1,751,-1
312 381 m 1,767,-1
 286 153 l 1,768,-1
 258 153 l 1,769,-1
 246 298 l 1,770,-1
 232 153 l 1,771,-1
 205 153 l 1,772,-1
 178 381 l 1,773,-1
 212 381 l 1,774,-1
 219 227 l 1,775,-1
 229 381 l 1,776,-1
 261 381 l 1,777,-1
 272 228 l 1,778,-1
 279 381 l 1,779,-1
 312 381 l 1,767,-1
523 -73 m 0,780,781
 523 -188 523 -188 481 -188 c 0,782,783
 454 -188 454 -188 444 -137 c 0,784,785
 437 -107 437 -107 437 -73 c 0,786,787
 437 42 437 42 480 42 c 0,788,789
 506 42 506 42 517 -7 c 0,790,791
 523 -35 523 -35 523 -73 c 0,780,781
171 381 m 1,792,-1
 144 153 l 1,793,-1
 117 153 l 1,794,-1
 103 298 l 1,795,-1
 90 153 l 1,796,-1
 63 153 l 1,797,-1
 36 381 l 1,798,-1
 70 381 l 1,799,-1
 77 227 l 1,800,-1
 88 381 l 1,801,-1
 118 381 l 1,802,-1
 130 228 l 1,803,-1
 137 381 l 1,804,-1
 171 381 l 1,792,-1
429 -186 m 1,805,-1
 366 -186 l 1,806,-1
 366 108 l 1,807,-1
 406 108 l 1,808,-1
 406 -147 l 1,809,-1
 429 -147 l 1,810,-1
 429 -186 l 1,805,-1
345 -186 m 1,811,-1
 306 -186 l 1,812,-1
 306 -62 l 1,813,-1
 285 -62 l 1,814,-1
 285 -186 l 1,815,-1
 246 -186 l 1,816,-1
 246 108 l 1,817,-1
 285 108 l 1,818,-1
 285 -24 l 1,819,-1
 306 -24 l 1,820,-1
 306 108 l 1,821,-1
 345 108 l 1,822,-1
 345 -186 l 1,811,-1
1708 658 m 0,823,824
 1708 679 1708 679 1701 689 c 1,825,826
 1692 675 1692 675 1692 652 c 2,827,-1
 1692 623 l 1,828,829
 1708 629 1708 629 1708 658 c 0,823,824
1402 608 m 0,830,831
 1402 679 1402 679 1395 685 c 1,832,833
 1387 679 1387 679 1387 612 c 0,834,835
 1387 540 1387 540 1395 533 c 1,836,837
 1402 542 1402 542 1402 608 c 0,830,831
1705 267 m 0,838,839
 1705 339 1705 339 1696 345 c 1,840,841
 1688 338 1688 338 1688 272 c 0,842,843
 1688 200 1688 200 1696 192 c 1,844,845
 1705 201 1705 201 1705 267 c 0,838,839
1183 531 m 2,846,-1
 1183 683 l 1,847,848
 1165 678 1165 678 1165 632 c 2,849,-1
 1165 585 l 2,850,851
 1165 527 1165 527 1177 527 c 0,852,853
 1183 527 1183 527 1183 531 c 2,846,-1
1026 608 m 0,854,855
 1026 679 1026 679 1018 685 c 1,856,857
 1010 679 1010 679 1010 612 c 0,858,859
 1010 540 1010 540 1018 533 c 1,860,861
 1026 542 1026 542 1026 608 c 0,854,855
1237 267 m 0,862,863
 1237 339 1237 339 1228 345 c 1,864,865
 1219 338 1219 338 1219 272 c 0,866,867
 1219 200 1219 200 1228 192 c 1,868,869
 1237 201 1237 201 1237 267 c 0,862,863
847 529 m 2,870,-1
 847 682 l 1,871,872
 830 677 830 677 830 624 c 2,873,-1
 830 583 l 2,874,875
 830 527 830 527 841 527 c 0,876,877
 845 527 845 527 847 529 c 2,870,-1
1484 -73 m 0,878,879
 1484 -2 1484 -2 1476 3 c 1,880,881
 1468 -2 1468 -2 1468 -69 c 0,882,883
 1468 -141 1468 -141 1476 -149 c 1,884,885
 1484 -141 1484 -141 1484 -73 c 0,878,879
993 190 m 2,886,-1
 993 342 l 1,887,888
 976 337 976 337 976 291 c 2,889,-1
 976 244 l 2,890,891
 976 186 976 186 987 186 c 0,892,893
 992 186 992 186 993 190 c 2,886,-1
1208 -73 m 0,894,895
 1208 -2 1208 -2 1200 3 c 1,896,897
 1192 -2 1192 -2 1192 -69 c 0,898,899
 1192 -141 1192 -141 1200 -149 c 1,900,901
 1208 -141 1208 -141 1208 -73 c 0,894,895
491 638 m 0,902,903
 491 687 491 687 490 705 c 0,904,905
 488 734 488 734 480 747 c 1,906,907
 472 737 472 737 470 708 c 0,908,909
 468 690 468 690 468 648 c 0,910,911
 468 600 468 600 470 579 c 0,912,913
 472 549 472 549 481 539 c 1,914,915
 491 556 491 556 491 638 c 0,902,903
837 267 m 0,916,917
 837 339 837 339 828 345 c 1,918,919
 820 338 820 338 820 272 c 0,920,921
 820 200 820 200 828 192 c 1,922,923
 837 201 837 201 837 267 c 0,916,917
1109 -152 m 2,924,-1
 1109 0 l 1,925,926
 1092 -5 1092 -5 1092 -58 c 2,927,-1
 1092 -98 l 2,928,929
 1092 -155 1092 -155 1103 -155 c 0,930,931
 1108 -155 1108 -155 1109 -152 c 2,924,-1
372 638 m 0,932,933
 372 687 372 687 370 705 c 0,934,935
 368 734 368 734 360 747 c 1,936,937
 353 737 353 737 351 708 c 0,938,939
 348 690 348 690 348 648 c 0,940,941
 348 600 348 600 351 579 c 0,942,943
 353 549 353 549 361 539 c 1,944,945
 372 556 372 556 372 638 c 0,932,933
993 -9 m 0,946,947
 993 12 993 12 987 12 c 0,948,949
 985 12 985 12 977 -11 c 0,950,951
 971 -36 971 -36 971 -59 c 0,952,953
 971 -87 971 -87 977 -87 c 0,954,955
 981 -87 981 -87 988 -59 c 0,956,957
 993 -27 993 -27 993 -9 c 0,946,947
657 189 m 2,958,-1
 657 341 l 1,959,960
 639 336 639 336 639 283 c 2,961,-1
 639 242 l 2,962,963
 639 186 639 186 651 186 c 0,964,965
 655 186 655 186 657 189 c 2,958,-1
180 637 m 0,966,967
 180 669 180 669 173 703 c 0,968,969
 162 753 162 753 142 753 c 0,970,971
 128 753 128 753 117 721 c 0,972,973
 104 687 104 687 104 637 c 0,974,975
 104 589 104 589 116 555.5 c 128,-1,976
 128 522 128 522 142 522 c 0,977,978
 162 522 162 522 173 572 c 0,979,980
 180 607 180 607 180 637 c 0,966,967
794 -24 m 0,981,982
 794 -3 794 -3 787 7 c 1,983,984
 778 -7 778 -7 778 -30 c 2,985,-1
 778 -59 l 1,986,987
 794 -53 794 -53 794 -24 c 0,981,982
488 -73 m 0,988,989
 488 -2 488 -2 481 3 c 1,990,991
 472 -2 472 -2 472 -69 c 0,992,993
 472 -141 472 -141 481 -149 c 1,994,995
 488 -141 488 -141 488 -73 c 0,988,989
170 671 m 1,996,-1
 151 658 l 1,997,-1
 150 665 l 2,998,999
 148 687 148 687 142 688 c 0,1000,1001
 139 688 139 688 136 677 c 0,1002,1003
 132 663 132 663 132 637 c 0,1004,1005
 132 598 132 598 139 588 c 0,1006,1007
 141 587 141 587 142 587 c 0,1008,1009
 145 587 145 587 150 616 c 2,1010,-1
 151 625 l 1,1011,-1
 170 606 l 1,1012,-1
 170 605 l 1,1013,1014
 164 551 164 551 142 551 c 0,1015,1016
 112 551 112 551 112 636 c 0,1017,1018
 112 724 112 724 143 724 c 0,1019,1020
 164 724 164 724 170 673 c 1,1021,-1
 170 671 l 1,996,-1
EndSplineSet
EndChar

